<ttFont>
    <TTGlyph name=".notdef" xMin="75" yMin="0" xMax="634" yMax="531">
      <contour>
        <pt x="620" y="506" on="1"/>
        <pt x="368" y="266" on="1"/>
        <pt x="620" y="25" on="1"/>
      </contour>
      <contour>
        <pt x="103" y="13" on="1"/>
        <pt x="610" y="13" on="1"/>
        <pt x="357" y="256" on="1"/>
      </contour>
      <contour>
        <pt x="90" y="22" on="1"/>
        <pt x="346" y="266" on="1"/>
        <pt x="90" y="507" on="1"/>
      </contour>
      <contour>
        <pt x="611" y="518" on="1"/>
        <pt x="100" y="518" on="1"/>
        <pt x="357" y="276" on="1"/>
      </contour>
      <contour>
        <pt x="76" y="0" on="1"/>
        <pt x="76" y="531" on="1"/>
        <pt x="634" y="531" on="1"/>
        <pt x="634" y="0" on="1"/>
      </contour>
    </TTGlyph>
    <TTGlyph name="A" xMin="34" yMin="0" xMax="678" yMax="732">
      <contour>
        <pt x="34" y="0" on="1"/>
        <pt x="281" y="732" on="1"/>
        <pt x="440" y="732" on="1"/>
        <pt x="678" y="0" on="1"/>
        <pt x="529" y="0" on="1"/>
        <pt x="477" y="162" on="1"/>
        <pt x="237" y="162" on="1"/>
        <pt x="184" y="0" on="1"/>
      </contour>
      <contour>
        <pt x="274" y="286" on="1"/>
        <pt x="444" y="286" on="1"/>
        <pt x="362" y="548" on="1"/>
      </contour>
    </TTGlyph>
    <TTGlyph name="AE" xMin="22" yMin="-5" xMax="920" yMax="734">
      <contour>
        <pt x="496" y="728" on="1"/>
        <pt x="522" y="731" on="0"/>
        <pt x="563" y="733" on="0"/>
        <pt x="591" y="733" on="0"/>
        <pt x="607" y="732" on="1"/>
        <pt x="856" y="725" on="0"/>
        <pt x="920" y="716" on="1"/>
        <pt x="920" y="600" on="1"/>
        <pt x="640" y="600" on="1"/>
        <pt x="604" y="600" on="0"/>
        <pt x="596" y="582" on="1"/>
        <pt x="590" y="568" on="0"/>
        <pt x="589" y="545" on="1"/>
        <pt x="589" y="428" on="1"/>
        <pt x="874" y="417" on="1"/>
        <pt x="874" y="302" on="1"/>
        <pt x="589" y="293" on="1"/>
        <pt x="589" y="180" on="1"/>
        <pt x="589" y="144" on="0"/>
        <pt x="608" y="136" on="1"/>
        <pt x="622" y="130" on="0"/>
        <pt x="649" y="130" on="0"/>
        <pt x="651" y="130" on="1"/>
        <pt x="920" y="130" on="1"/>
        <pt x="920" y="13" on="1"/>
        <pt x="869" y="6" on="0"/>
        <pt x="681" y="-1" on="1"/>
        <pt x="618" y="-4" on="1"/>
        <pt x="609" y="-4" on="0"/>
        <pt x="581" y="-4" on="0"/>
        <pt x="536" y="2" on="0"/>
        <pt x="481" y="26" on="0"/>
        <pt x="449" y="81" on="0"/>
        <pt x="449" y="121" on="1"/>
        <pt x="449" y="194" on="1"/>
        <pt x="274" y="194" on="1"/>
        <pt x="178" y="0" on="1"/>
        <pt x="23" y="0" on="1"/>
        <pt x="306" y="575" on="1"/>
        <pt x="343" y="651" on="0"/>
        <pt x="393" y="686" on="1"/>
        <pt x="442" y="721" on="0"/>
      </contour>
      <contour>
        <pt x="449" y="317" on="1"/>
        <pt x="449" y="558" on="1"/>
        <pt x="333" y="317" on="1"/>
      </contour>
    </TTGlyph>
    <TTGlyph name="Aacute" xMin="34" yMin="0" xMax="678" yMax="936">
      <contour>
        <pt x="315" y="797" on="1"/>
        <pt x="406" y="936" on="1"/>
        <pt x="528" y="936" on="1"/>
        <pt x="406" y="797" on="1"/>
      </contour>
      <contour>
        <pt x="34" y="0" on="1"/>
        <pt x="281" y="732" on="1"/>
        <pt x="440" y="732" on="1"/>
        <pt x="678" y="0" on="1"/>
        <pt x="529" y="0" on="1"/>
        <pt x="477" y="162" on="1"/>
        <pt x="237" y="162" on="1"/>
        <pt x="184" y="0" on="1"/>
      </contour>
      <contour>
        <pt x="274" y="286" on="1"/>
        <pt x="444" y="286" on="1"/>
        <pt x="362" y="548" on="1"/>
      </contour>
    </TTGlyph>
    <TTGlyph name="Abreve" xMin="34" yMin="0" xMax="678" yMax="911">
      <contour>
        <pt x="246" y="911" on="1"/>
        <pt x="304" y="911" on="1"/>
        <pt x="304" y="886" on="0"/>
        <pt x="335" y="855" on="0"/>
        <pt x="388" y="855" on="0"/>
        <pt x="418" y="885" on="0"/>
        <pt x="418" y="911" on="1"/>
        <pt x="476" y="911" on="1"/>
        <pt x="476" y="859" on="0"/>
        <pt x="409" y="797" on="0"/>
        <pt x="311" y="797" on="0"/>
        <pt x="246" y="860" on="0"/>
      </contour>
      <contour>
        <pt x="34" y="0" on="1"/>
        <pt x="281" y="732" on="1"/>
        <pt x="440" y="732" on="1"/>
        <pt x="678" y="0" on="1"/>
        <pt x="529" y="0" on="1"/>
        <pt x="477" y="162" on="1"/>
        <pt x="237" y="162" on="1"/>
        <pt x="184" y="0" on="1"/>
      </contour>
      <contour>
        <pt x="274" y="286" on="1"/>
        <pt x="444" y="286" on="1"/>
        <pt x="362" y="548" on="1"/>
      </contour>
    </TTGlyph>
    <TTGlyph name="Acircumflex" xMin="34" yMin="0" xMax="678" yMax="933">
      <contour>
        <pt x="206" y="797" on="1"/>
        <pt x="314" y="932" on="1"/>
        <pt x="418" y="932" on="1"/>
        <pt x="515" y="797" on="1"/>
        <pt x="422" y="797" on="1"/>
        <pt x="363" y="857" on="1"/>
        <pt x="300" y="797" on="1"/>
      </contour>
      <contour>
        <pt x="34" y="0" on="1"/>
        <pt x="281" y="732" on="1"/>
        <pt x="440" y="732" on="1"/>
        <pt x="678" y="0" on="1"/>
        <pt x="529" y="0" on="1"/>
        <pt x="477" y="162" on="1"/>
        <pt x="237" y="162" on="1"/>
        <pt x="184" y="0" on="1"/>
      </contour>
      <contour>
        <pt x="274" y="286" on="1"/>
        <pt x="444" y="286" on="1"/>
        <pt x="362" y="548" on="1"/>
      </contour>
    </TTGlyph>
    <TTGlyph name="Adieresis" xMin="34" yMin="0" xMax="678" yMax="915">
      <contour>
        <pt x="209" y="797" on="0"/>
        <pt x="174" y="832" on="0"/>
        <pt x="174" y="872" on="0"/>
        <pt x="182" y="886" on="1"/>
        <pt x="200" y="915" on="0"/>
        <pt x="258" y="914" on="0"/>
        <pt x="292" y="881" on="0"/>
        <pt x="292" y="832" on="0"/>
        <pt x="258" y="797" on="0"/>
      </contour>
      <contour>
        <pt x="429" y="832" on="0"/>
        <pt x="429" y="880" on="0"/>
        <pt x="464" y="914" on="0"/>
        <pt x="513" y="914" on="0"/>
        <pt x="547" y="881" on="0"/>
        <pt x="547" y="832" on="0"/>
        <pt x="513" y="797" on="0"/>
        <pt x="464" y="797" on="0"/>
      </contour>
      <contour>
        <pt x="34" y="0" on="1"/>
        <pt x="281" y="732" on="1"/>
        <pt x="440" y="732" on="1"/>
        <pt x="678" y="0" on="1"/>
        <pt x="529" y="0" on="1"/>
        <pt x="477" y="162" on="1"/>
        <pt x="237" y="162" on="1"/>
        <pt x="184" y="0" on="1"/>
      </contour>
      <contour>
        <pt x="274" y="286" on="1"/>
        <pt x="444" y="286" on="1"/>
        <pt x="362" y="548" on="1"/>
      </contour>
    </TTGlyph>
    <TTGlyph name="Agrave" xMin="34" yMin="0" xMax="678" yMax="936">
      <contour>
        <pt x="193" y="936" on="1"/>
        <pt x="316" y="936" on="1"/>
        <pt x="406" y="797" on="1"/>
        <pt x="315" y="797" on="1"/>
      </contour>
      <contour>
        <pt x="34" y="0" on="1"/>
        <pt x="281" y="732" on="1"/>
        <pt x="440" y="732" on="1"/>
        <pt x="678" y="0" on="1"/>
        <pt x="529" y="0" on="1"/>
        <pt x="477" y="162" on="1"/>
        <pt x="237" y="162" on="1"/>
        <pt x="184" y="0" on="1"/>
      </contour>
      <contour>
        <pt x="274" y="286" on="1"/>
        <pt x="444" y="286" on="1"/>
        <pt x="362" y="548" on="1"/>
      </contour>
    </TTGlyph>
    <TTGlyph name="Amacron" xMin="34" yMin="0" xMax="678" yMax="877">
      <contour>
        <pt x="215" y="797" on="1"/>
        <pt x="215" y="876" on="1"/>
        <pt x="507" y="876" on="1"/>
        <pt x="507" y="797" on="1"/>
      </contour>
      <contour>
        <pt x="34" y="0" on="1"/>
        <pt x="281" y="732" on="1"/>
        <pt x="440" y="732" on="1"/>
        <pt x="678" y="0" on="1"/>
        <pt x="529" y="0" on="1"/>
        <pt x="477" y="162" on="1"/>
        <pt x="237" y="162" on="1"/>
        <pt x="184" y="0" on="1"/>
      </contour>
      <contour>
        <pt x="274" y="286" on="1"/>
        <pt x="444" y="286" on="1"/>
        <pt x="362" y="548" on="1"/>
      </contour>
    </TTGlyph>
    <TTGlyph name="Aogonek" xMin="34" yMin="-189" xMax="678" yMax="732">
      <contour>
        <pt x="643" y="-186" on="1"/>
        <pt x="630" y="-189" on="0"/>
        <pt x="599" y="-189" on="0"/>
        <pt x="552" y="-173" on="0"/>
        <pt x="534" y="-152" on="1"/>
        <pt x="508" y="-120" on="0"/>
        <pt x="508" y="-95" on="1"/>
        <pt x="508" y="-35" on="0"/>
        <pt x="579" y="1" on="1"/>
        <pt x="635" y="1" on="1"/>
        <pt x="569" y="-49" on="0"/>
        <pt x="593" y="-89" on="1"/>
        <pt x="607" y="-111" on="0"/>
        <pt x="643" y="-109" on="1"/>
      </contour>
      <contour>
        <pt x="34" y="0" on="1"/>
        <pt x="281" y="732" on="1"/>
        <pt x="440" y="732" on="1"/>
        <pt x="678" y="0" on="1"/>
        <pt x="529" y="0" on="1"/>
        <pt x="477" y="162" on="1"/>
        <pt x="237" y="162" on="1"/>
        <pt x="184" y="0" on="1"/>
      </contour>
      <contour>
        <pt x="274" y="286" on="1"/>
        <pt x="444" y="286" on="1"/>
        <pt x="362" y="548" on="1"/>
      </contour>
    </TTGlyph>
    <TTGlyph name="Aring" xMin="34" yMin="0" xMax="678" yMax="936">
      <contour>
        <pt x="259" y="804" on="0"/>
        <pt x="287" y="757" on="0"/>
        <pt x="334" y="730" on="0"/>
        <pt x="389" y="730" on="0"/>
        <pt x="435" y="757" on="0"/>
        <pt x="462" y="804" on="0"/>
        <pt x="462" y="875" on="0"/>
        <pt x="403" y="935" on="0"/>
        <pt x="319" y="935" on="0"/>
        <pt x="259" y="875" on="0"/>
      </contour>
      <contour>
        <pt x="318" y="850" on="0"/>
        <pt x="343" y="876" on="0"/>
        <pt x="379" y="876" on="0"/>
        <pt x="404" y="850" on="0"/>
        <pt x="404" y="814" on="0"/>
        <pt x="379" y="790" on="0"/>
        <pt x="343" y="790" on="0"/>
        <pt x="330" y="802" on="1"/>
        <pt x="325" y="808" on="0"/>
        <pt x="318" y="823" on="0"/>
      </contour>
      <contour>
        <pt x="34" y="0" on="1"/>
        <pt x="281" y="732" on="1"/>
        <pt x="440" y="732" on="1"/>
        <pt x="678" y="0" on="1"/>
        <pt x="529" y="0" on="1"/>
        <pt x="477" y="162" on="1"/>
        <pt x="237" y="162" on="1"/>
        <pt x="184" y="0" on="1"/>
      </contour>
      <contour>
        <pt x="274" y="286" on="1"/>
        <pt x="444" y="286" on="1"/>
        <pt x="362" y="548" on="1"/>
      </contour>
    </TTGlyph>
    <TTGlyph name="Atilde" xMin="34" yMin="0" xMax="678" yMax="925">
      <contour>
        <pt x="420" y="887" on="1"/>
        <pt x="458" y="887" on="0"/>
        <pt x="508" y="925" on="1"/>
        <pt x="532" y="865" on="1"/>
        <pt x="470" y="797" on="0"/>
        <pt x="420" y="797" on="1"/>
        <pt x="395" y="797" on="0"/>
        <pt x="325" y="832" on="0"/>
        <pt x="298" y="832" on="0"/>
        <pt x="278" y="829" on="0"/>
        <pt x="266" y="826" on="0"/>
        <pt x="247" y="817" on="0"/>
        <pt x="240" y="813" on="0"/>
        <pt x="217" y="799" on="0"/>
        <pt x="213" y="797" on="1"/>
        <pt x="189" y="852" on="1"/>
        <pt x="253" y="922" on="0"/>
        <pt x="310" y="922" on="1"/>
        <pt x="334" y="921" on="0"/>
        <pt x="400" y="887" on="0"/>
        <pt x="418" y="887" on="0"/>
      </contour>
      <contour>
        <pt x="34" y="0" on="1"/>
        <pt x="281" y="732" on="1"/>
        <pt x="440" y="732" on="1"/>
        <pt x="678" y="0" on="1"/>
        <pt x="529" y="0" on="1"/>
        <pt x="477" y="162" on="1"/>
        <pt x="237" y="162" on="1"/>
        <pt x="184" y="0" on="1"/>
      </contour>
      <contour>
        <pt x="274" y="286" on="1"/>
        <pt x="444" y="286" on="1"/>
        <pt x="362" y="548" on="1"/>
      </contour>
    </TTGlyph>
    <TTGlyph name="B" xMin="60" yMin="0" xMax="581" yMax="732">
      <contour>
        <pt x="61" y="0" on="1"/>
        <pt x="61" y="732" on="1"/>
        <pt x="363" y="732" on="1"/>
        <pt x="469" y="732" on="0"/>
        <pt x="569" y="623" on="0"/>
        <pt x="569" y="536" on="1"/>
        <pt x="569" y="480" on="0"/>
        <pt x="519" y="389" on="0"/>
        <pt x="469" y="380" on="1"/>
        <pt x="517" y="371" on="0"/>
        <pt x="581" y="282" on="0"/>
        <pt x="581" y="215" on="1"/>
        <pt x="581" y="110" on="0"/>
        <pt x="478" y="0" on="0"/>
        <pt x="365" y="0" on="1"/>
      </contour>
      <contour>
        <pt x="441" y="221" on="1"/>
        <pt x="441" y="266" on="0"/>
        <pt x="401" y="324" on="0"/>
        <pt x="360" y="324" on="1"/>
        <pt x="201" y="324" on="1"/>
        <pt x="201" y="124" on="1"/>
        <pt x="360" y="123" on="1"/>
        <pt x="441" y="123" on="0"/>
      </contour>
      <contour>
        <pt x="201" y="442" on="1"/>
        <pt x="354" y="442" on="1"/>
        <pt x="392" y="442" on="0"/>
        <pt x="431" y="485" on="0"/>
        <pt x="431" y="571" on="0"/>
        <pt x="387" y="608" on="0"/>
        <pt x="354" y="608" on="1"/>
        <pt x="201" y="608" on="1"/>
      </contour>
    </TTGlyph>
    <TTGlyph name="C" xMin="41" yMin="-7" xMax="546" yMax="740">
      <contour>
        <pt x="92" y="642" on="1"/>
        <pt x="132" y="708" on="0"/>
        <pt x="203" y="729" on="1"/>
        <pt x="242" y="740" on="0"/>
        <pt x="291" y="740" on="1"/>
        <pt x="434" y="740" on="0"/>
        <pt x="546" y="707" on="1"/>
        <pt x="546" y="597" on="1"/>
        <pt x="546" y="597" on="0"/>
        <pt x="531" y="599" on="0"/>
        <pt x="506" y="601" on="0"/>
        <pt x="472" y="604" on="0"/>
        <pt x="431" y="607" on="0"/>
        <pt x="411" y="608" on="1"/>
        <pt x="364" y="611" on="0"/>
        <pt x="290" y="611" on="0"/>
        <pt x="249" y="602" on="0"/>
        <pt x="211" y="575" on="0"/>
        <pt x="202" y="548" on="1"/>
        <pt x="182" y="490" on="0"/>
        <pt x="182" y="236" on="0"/>
        <pt x="241" y="123" on="0"/>
        <pt x="324" y="123" on="1"/>
        <pt x="418" y="123" on="0"/>
        <pt x="514" y="129" on="1"/>
        <pt x="546" y="131" on="1"/>
        <pt x="546" y="22" on="1"/>
        <pt x="456" y="-6" on="0"/>
        <pt x="314" y="-6" on="1"/>
        <pt x="303" y="-6" on="0"/>
        <pt x="291" y="-6" on="1"/>
        <pt x="157" y="-5" on="0"/>
        <pt x="42" y="185" on="0"/>
        <pt x="42" y="560" on="0"/>
      </contour>
    </TTGlyph>
    <TTGlyph name="Cacute" xMin="41" yMin="-7" xMax="546" yMax="939">
      <contour>
        <pt x="286" y="800" on="1"/>
        <pt x="377" y="938" on="1"/>
        <pt x="499" y="938" on="1"/>
        <pt x="377" y="800" on="1"/>
      </contour>
      <contour>
        <pt x="92" y="642" on="1"/>
        <pt x="132" y="708" on="0"/>
        <pt x="203" y="729" on="1"/>
        <pt x="242" y="740" on="0"/>
        <pt x="291" y="740" on="1"/>
        <pt x="434" y="740" on="0"/>
        <pt x="546" y="707" on="1"/>
        <pt x="546" y="597" on="1"/>
        <pt x="546" y="597" on="0"/>
        <pt x="531" y="599" on="0"/>
        <pt x="506" y="601" on="0"/>
        <pt x="472" y="604" on="0"/>
        <pt x="431" y="607" on="0"/>
        <pt x="411" y="608" on="1"/>
        <pt x="364" y="611" on="0"/>
        <pt x="290" y="611" on="0"/>
        <pt x="249" y="602" on="0"/>
        <pt x="211" y="575" on="0"/>
        <pt x="202" y="548" on="1"/>
        <pt x="182" y="490" on="0"/>
        <pt x="182" y="366" on="1"/>
        <pt x="182" y="234" on="0"/>
        <pt x="210" y="183" on="1"/>
        <pt x="242" y="123" on="0"/>
        <pt x="324" y="123" on="1"/>
        <pt x="418" y="123" on="0"/>
        <pt x="514" y="129" on="1"/>
        <pt x="546" y="131" on="1"/>
        <pt x="546" y="22" on="1"/>
        <pt x="456" y="-6" on="0"/>
        <pt x="314" y="-6" on="1"/>
        <pt x="303" y="-6" on="0"/>
        <pt x="291" y="-6" on="1"/>
        <pt x="157" y="-5" on="0"/>
        <pt x="42" y="185" on="0"/>
        <pt x="42" y="560" on="0"/>
      </contour>
    </TTGlyph>
    <TTGlyph name="Ccaron" xMin="41" yMin="-7" xMax="546" yMax="936">
      <contour>
        <pt x="184" y="936" on="1"/>
        <pt x="278" y="936" on="1"/>
        <pt x="341" y="876" on="1"/>
        <pt x="399" y="936" on="1"/>
        <pt x="493" y="936" on="1"/>
        <pt x="391" y="800" on="1"/>
        <pt x="287" y="800" on="1"/>
      </contour>
      <contour>
        <pt x="92" y="642" on="1"/>
        <pt x="132" y="708" on="0"/>
        <pt x="203" y="729" on="1"/>
        <pt x="242" y="740" on="0"/>
        <pt x="291" y="740" on="1"/>
        <pt x="434" y="740" on="0"/>
        <pt x="546" y="707" on="1"/>
        <pt x="546" y="597" on="1"/>
        <pt x="546" y="597" on="0"/>
        <pt x="531" y="599" on="0"/>
        <pt x="506" y="601" on="0"/>
        <pt x="472" y="604" on="0"/>
        <pt x="431" y="607" on="0"/>
        <pt x="411" y="608" on="1"/>
        <pt x="364" y="611" on="0"/>
        <pt x="290" y="611" on="0"/>
        <pt x="249" y="602" on="0"/>
        <pt x="211" y="575" on="0"/>
        <pt x="202" y="548" on="1"/>
        <pt x="182" y="490" on="0"/>
        <pt x="182" y="366" on="1"/>
        <pt x="182" y="234" on="0"/>
        <pt x="210" y="183" on="1"/>
        <pt x="242" y="123" on="0"/>
        <pt x="324" y="123" on="1"/>
        <pt x="418" y="123" on="0"/>
        <pt x="514" y="129" on="1"/>
        <pt x="546" y="131" on="1"/>
        <pt x="546" y="22" on="1"/>
        <pt x="456" y="-6" on="0"/>
        <pt x="314" y="-6" on="1"/>
        <pt x="303" y="-6" on="0"/>
        <pt x="291" y="-6" on="1"/>
        <pt x="157" y="-5" on="0"/>
        <pt x="42" y="185" on="0"/>
        <pt x="42" y="560" on="0"/>
      </contour>
    </TTGlyph>
    <TTGlyph name="Ccedilla" xMin="41" yMin="-179" xMax="546" yMax="740">
      <contour>
        <pt x="188" y="-37" on="1"/>
        <pt x="282" y="-37" on="1"/>
        <pt x="282" y="-115" on="0"/>
        <pt x="234" y="-178" on="0"/>
        <pt x="170" y="-178" on="1"/>
        <pt x="114" y="-178" on="1"/>
        <pt x="114" y="-118" on="1"/>
        <pt x="158" y="-103" on="1"/>
        <pt x="177" y="-95" on="0"/>
        <pt x="188" y="-68" on="0"/>
      </contour>
      <contour>
        <pt x="92" y="642" on="1"/>
        <pt x="132" y="708" on="0"/>
        <pt x="203" y="729" on="1"/>
        <pt x="242" y="740" on="0"/>
        <pt x="291" y="740" on="1"/>
        <pt x="434" y="740" on="0"/>
        <pt x="546" y="707" on="1"/>
        <pt x="546" y="597" on="1"/>
        <pt x="546" y="597" on="0"/>
        <pt x="531" y="599" on="0"/>
        <pt x="506" y="601" on="0"/>
        <pt x="472" y="604" on="0"/>
        <pt x="431" y="607" on="0"/>
        <pt x="411" y="608" on="1"/>
        <pt x="364" y="611" on="0"/>
        <pt x="290" y="611" on="0"/>
        <pt x="249" y="602" on="0"/>
        <pt x="211" y="575" on="0"/>
        <pt x="202" y="548" on="1"/>
        <pt x="182" y="490" on="0"/>
        <pt x="182" y="366" on="1"/>
        <pt x="182" y="234" on="0"/>
        <pt x="210" y="183" on="1"/>
        <pt x="242" y="123" on="0"/>
        <pt x="324" y="123" on="1"/>
        <pt x="418" y="123" on="0"/>
        <pt x="514" y="129" on="1"/>
        <pt x="546" y="131" on="1"/>
        <pt x="546" y="22" on="1"/>
        <pt x="456" y="-6" on="0"/>
        <pt x="314" y="-6" on="1"/>
        <pt x="303" y="-6" on="0"/>
        <pt x="291" y="-6" on="1"/>
        <pt x="157" y="-5" on="0"/>
        <pt x="42" y="185" on="0"/>
        <pt x="42" y="560" on="0"/>
      </contour>
    </TTGlyph>
    <TTGlyph name="Ccircumflex" xMin="41" yMin="-7" xMax="546" yMax="936">
      <contour>
        <pt x="176" y="800" on="1"/>
        <pt x="284" y="936" on="1"/>
        <pt x="388" y="936" on="1"/>
        <pt x="485" y="800" on="1"/>
        <pt x="392" y="800" on="1"/>
        <pt x="333" y="860" on="1"/>
        <pt x="270" y="800" on="1"/>
      </contour>
      <contour>
        <pt x="92" y="642" on="1"/>
        <pt x="132" y="708" on="0"/>
        <pt x="203" y="729" on="1"/>
        <pt x="242" y="740" on="0"/>
        <pt x="291" y="740" on="1"/>
        <pt x="434" y="740" on="0"/>
        <pt x="546" y="707" on="1"/>
        <pt x="546" y="597" on="1"/>
        <pt x="546" y="597" on="0"/>
        <pt x="531" y="599" on="0"/>
        <pt x="506" y="601" on="0"/>
        <pt x="472" y="604" on="0"/>
        <pt x="431" y="607" on="0"/>
        <pt x="411" y="608" on="1"/>
        <pt x="364" y="611" on="0"/>
        <pt x="290" y="611" on="0"/>
        <pt x="249" y="602" on="0"/>
        <pt x="211" y="575" on="0"/>
        <pt x="202" y="548" on="1"/>
        <pt x="182" y="490" on="0"/>
        <pt x="182" y="366" on="1"/>
        <pt x="182" y="234" on="0"/>
        <pt x="210" y="183" on="1"/>
        <pt x="242" y="123" on="0"/>
        <pt x="324" y="123" on="1"/>
        <pt x="418" y="123" on="0"/>
        <pt x="514" y="129" on="1"/>
        <pt x="546" y="131" on="1"/>
        <pt x="546" y="22" on="1"/>
        <pt x="456" y="-6" on="0"/>
        <pt x="314" y="-6" on="1"/>
        <pt x="303" y="-6" on="0"/>
        <pt x="291" y="-6" on="1"/>
        <pt x="157" y="-5" on="0"/>
        <pt x="42" y="185" on="0"/>
        <pt x="42" y="560" on="0"/>
      </contour>
    </TTGlyph>
    <TTGlyph name="Cdotaccent" xMin="41" yMin="-7" xMax="546" yMax="925">
      <contour>
        <pt x="271" y="824" on="1"/>
        <pt x="271" y="900" on="1"/>
        <pt x="271" y="925" on="0"/>
        <pt x="295" y="925" on="1"/>
        <pt x="367" y="925" on="1"/>
        <pt x="378" y="925" on="0"/>
        <pt x="390" y="911" on="0"/>
        <pt x="390" y="900" on="1"/>
        <pt x="390" y="824" on="1"/>
        <pt x="390" y="801" on="0"/>
        <pt x="367" y="801" on="1"/>
        <pt x="295" y="801" on="1"/>
        <pt x="285" y="801" on="0"/>
        <pt x="271" y="814" on="0"/>
      </contour>
      <contour>
        <pt x="92" y="642" on="1"/>
        <pt x="132" y="708" on="0"/>
        <pt x="203" y="729" on="1"/>
        <pt x="242" y="740" on="0"/>
        <pt x="291" y="740" on="1"/>
        <pt x="434" y="740" on="0"/>
        <pt x="546" y="707" on="1"/>
        <pt x="546" y="597" on="1"/>
        <pt x="546" y="597" on="0"/>
        <pt x="531" y="599" on="0"/>
        <pt x="506" y="601" on="0"/>
        <pt x="472" y="604" on="0"/>
        <pt x="431" y="607" on="0"/>
        <pt x="411" y="608" on="1"/>
        <pt x="364" y="611" on="0"/>
        <pt x="290" y="611" on="0"/>
        <pt x="249" y="602" on="0"/>
        <pt x="211" y="575" on="0"/>
        <pt x="202" y="548" on="1"/>
        <pt x="182" y="490" on="0"/>
        <pt x="182" y="366" on="1"/>
        <pt x="182" y="234" on="0"/>
        <pt x="210" y="183" on="1"/>
        <pt x="242" y="123" on="0"/>
        <pt x="324" y="123" on="1"/>
        <pt x="418" y="123" on="0"/>
        <pt x="514" y="129" on="1"/>
        <pt x="546" y="131" on="1"/>
        <pt x="546" y="22" on="1"/>
        <pt x="456" y="-6" on="0"/>
        <pt x="314" y="-6" on="1"/>
        <pt x="303" y="-6" on="0"/>
        <pt x="291" y="-6" on="1"/>
        <pt x="157" y="-5" on="0"/>
        <pt x="42" y="185" on="0"/>
        <pt x="42" y="560" on="0"/>
      </contour>
    </TTGlyph>
    <TTGlyph name="D" xMin="60" yMin="0" xMax="626" yMax="732">
      <contour>
        <pt x="61" y="0" on="1"/>
        <pt x="61" y="732" on="1"/>
        <pt x="372" y="732" on="1"/>
        <pt x="626" y="732" on="0"/>
        <pt x="626" y="363" on="1"/>
        <pt x="626" y="135" on="0"/>
        <pt x="517" y="47" on="1"/>
        <pt x="459" y="0" on="0"/>
        <pt x="372" y="0" on="1"/>
      </contour>
      <contour>
        <pt x="486" y="364" on="1"/>
        <pt x="486" y="546" on="0"/>
        <pt x="428" y="589" on="1"/>
        <pt x="402" y="608" on="0"/>
        <pt x="361" y="608" on="1"/>
        <pt x="201" y="608" on="1"/>
        <pt x="201" y="125" on="1"/>
        <pt x="361" y="125" on="1"/>
        <pt x="486" y="125" on="0"/>
      </contour>
    </TTGlyph>
    <TTGlyph name="Dcaron" xMin="60" yMin="0" xMax="626" yMax="931">
      <contour>
        <pt x="164" y="930" on="1"/>
        <pt x="257" y="930" on="1"/>
        <pt x="320" y="870" on="1"/>
        <pt x="379" y="930" on="1"/>
        <pt x="472" y="930" on="1"/>
        <pt x="370" y="795" on="1"/>
        <pt x="266" y="795" on="1"/>
      </contour>
      <contour>
        <pt x="61" y="0" on="1"/>
        <pt x="61" y="732" on="1"/>
        <pt x="372" y="732" on="1"/>
        <pt x="626" y="732" on="0"/>
        <pt x="626" y="363" on="1"/>
        <pt x="626" y="135" on="0"/>
        <pt x="517" y="47" on="1"/>
        <pt x="459" y="0" on="0"/>
        <pt x="372" y="0" on="1"/>
      </contour>
      <contour>
        <pt x="201" y="125" on="1"/>
        <pt x="361" y="125" on="1"/>
        <pt x="486" y="125" on="0"/>
        <pt x="486" y="364" on="1"/>
        <pt x="486" y="546" on="0"/>
        <pt x="428" y="589" on="1"/>
        <pt x="402" y="608" on="0"/>
        <pt x="361" y="608" on="1"/>
        <pt x="201" y="608" on="1"/>
      </contour>
    </TTGlyph>
    <TTGlyph name="Dcroat" xMin="-5" yMin="0" xMax="626" yMax="732">
      <contour>
        <pt x="-4" y="340" on="1"/>
        <pt x="-4" y="406" on="1"/>
        <pt x="61" y="406" on="1"/>
        <pt x="61" y="732" on="1"/>
        <pt x="61" y="732" on="0"/>
        <pt x="372" y="732" on="1"/>
        <pt x="600" y="732" on="0"/>
        <pt x="623" y="441" on="1"/>
        <pt x="626" y="404" on="0"/>
        <pt x="626" y="281" on="0"/>
        <pt x="596" y="150" on="0"/>
        <pt x="566" y="101" on="1"/>
        <pt x="504" y="0" on="0"/>
        <pt x="372" y="0" on="1"/>
        <pt x="61" y="0" on="1"/>
        <pt x="61" y="340" on="1"/>
      </contour>
      <contour>
        <pt x="201" y="125" on="1"/>
        <pt x="361" y="125" on="1"/>
        <pt x="427" y="125" on="0"/>
        <pt x="484" y="248" on="0"/>
        <pt x="484" y="364" on="1"/>
        <pt x="484" y="505" on="0"/>
        <pt x="450" y="558" on="1"/>
        <pt x="420" y="606" on="0"/>
        <pt x="361" y="606" on="1"/>
        <pt x="201" y="606" on="1"/>
        <pt x="201" y="406" on="1"/>
        <pt x="312" y="406" on="1"/>
        <pt x="312" y="340" on="1"/>
        <pt x="201" y="340" on="1"/>
      </contour>
    </TTGlyph>
    <TTGlyph name="E" xMin="58" yMin="-4" xMax="540" yMax="733">
      <contour>
        <pt x="112" y="705" on="1"/>
        <pt x="137" y="720" on="0"/>
        <pt x="186" y="732" on="0"/>
        <pt x="215" y="732" on="0"/>
        <pt x="475" y="725" on="0"/>
        <pt x="539" y="716" on="1"/>
        <pt x="539" y="600" on="1"/>
        <pt x="250" y="600" on="1"/>
        <pt x="213" y="600" on="0"/>
        <pt x="204" y="582" on="1"/>
        <pt x="198" y="568" on="0"/>
        <pt x="198" y="544" on="1"/>
        <pt x="198" y="430" on="1"/>
        <pt x="494" y="420" on="1"/>
        <pt x="494" y="304" on="1"/>
        <pt x="198" y="295" on="1"/>
        <pt x="198" y="181" on="1"/>
        <pt x="198" y="143" on="0"/>
        <pt x="219" y="135" on="1"/>
        <pt x="234" y="129" on="0"/>
        <pt x="260" y="129" on="1"/>
        <pt x="539" y="129" on="1"/>
        <pt x="539" y="14" on="1"/>
        <pt x="489" y="7" on="0"/>
        <pt x="292" y="0" on="1"/>
        <pt x="227" y="-3" on="1"/>
        <pt x="219" y="-3" on="0"/>
        <pt x="198" y="-3" on="0"/>
        <pt x="164" y="0" on="0"/>
        <pt x="116" y="18" on="0"/>
        <pt x="98" y="33" on="1"/>
        <pt x="58" y="69" on="0"/>
        <pt x="58" y="144" on="1"/>
        <pt x="58" y="580" on="1"/>
        <pt x="58" y="671" on="0"/>
      </contour>
    </TTGlyph>
    <TTGlyph name="Eacute" xMin="58" yMin="-4" xMax="540" yMax="934">
      <contour>
        <pt x="275" y="795" on="1"/>
        <pt x="366" y="933" on="1"/>
        <pt x="488" y="933" on="1"/>
        <pt x="366" y="795" on="1"/>
      </contour>
      <contour>
        <pt x="58" y="144" on="1"/>
        <pt x="58" y="580" on="1"/>
        <pt x="58" y="671" on="0"/>
        <pt x="112" y="704" on="1"/>
        <pt x="157" y="732" on="0"/>
        <pt x="209" y="732" on="1"/>
        <pt x="213" y="732" on="0"/>
        <pt x="475" y="725" on="0"/>
        <pt x="539" y="716" on="1"/>
        <pt x="539" y="600" on="1"/>
        <pt x="250" y="600" on="1"/>
        <pt x="213" y="600" on="0"/>
        <pt x="204" y="582" on="1"/>
        <pt x="198" y="568" on="0"/>
        <pt x="198" y="544" on="1"/>
        <pt x="198" y="430" on="1"/>
        <pt x="494" y="420" on="1"/>
        <pt x="494" y="304" on="1"/>
        <pt x="198" y="295" on="1"/>
        <pt x="198" y="181" on="1"/>
        <pt x="198" y="143" on="0"/>
        <pt x="219" y="135" on="1"/>
        <pt x="234" y="129" on="0"/>
        <pt x="260" y="129" on="1"/>
        <pt x="539" y="129" on="1"/>
        <pt x="539" y="14" on="1"/>
        <pt x="489" y="7" on="0"/>
        <pt x="292" y="0" on="1"/>
        <pt x="227" y="-3" on="1"/>
        <pt x="219" y="-3" on="0"/>
        <pt x="198" y="-3" on="0"/>
        <pt x="164" y="0" on="0"/>
        <pt x="116" y="18" on="0"/>
        <pt x="98" y="33" on="1"/>
        <pt x="58" y="69" on="0"/>
      </contour>
    </TTGlyph>
    <TTGlyph name="Ecaron" xMin="58" yMin="-4" xMax="540" yMax="931">
      <contour>
        <pt x="165" y="930" on="1"/>
        <pt x="259" y="930" on="1"/>
        <pt x="322" y="870" on="1"/>
        <pt x="380" y="930" on="1"/>
        <pt x="474" y="930" on="1"/>
        <pt x="372" y="795" on="1"/>
        <pt x="268" y="795" on="1"/>
      </contour>
      <contour>
        <pt x="58" y="144" on="1"/>
        <pt x="58" y="580" on="1"/>
        <pt x="58" y="671" on="0"/>
        <pt x="112" y="704" on="1"/>
        <pt x="157" y="732" on="0"/>
        <pt x="209" y="732" on="1"/>
        <pt x="213" y="732" on="0"/>
        <pt x="475" y="725" on="0"/>
        <pt x="539" y="716" on="1"/>
        <pt x="539" y="600" on="1"/>
        <pt x="250" y="600" on="1"/>
        <pt x="213" y="600" on="0"/>
        <pt x="204" y="582" on="1"/>
        <pt x="198" y="568" on="0"/>
        <pt x="198" y="544" on="1"/>
        <pt x="198" y="430" on="1"/>
        <pt x="494" y="420" on="1"/>
        <pt x="494" y="304" on="1"/>
        <pt x="198" y="295" on="1"/>
        <pt x="198" y="181" on="1"/>
        <pt x="198" y="143" on="0"/>
        <pt x="219" y="135" on="1"/>
        <pt x="234" y="129" on="0"/>
        <pt x="260" y="129" on="1"/>
        <pt x="539" y="129" on="1"/>
        <pt x="539" y="14" on="1"/>
        <pt x="489" y="7" on="0"/>
        <pt x="292" y="0" on="1"/>
        <pt x="227" y="-3" on="1"/>
        <pt x="219" y="-3" on="0"/>
        <pt x="198" y="-3" on="0"/>
        <pt x="164" y="0" on="0"/>
        <pt x="116" y="18" on="0"/>
        <pt x="98" y="33" on="1"/>
        <pt x="58" y="69" on="0"/>
      </contour>
    </TTGlyph>
    <TTGlyph name="Ecircumflex" xMin="58" yMin="-4" xMax="540" yMax="933">
      <contour>
        <pt x="163" y="797" on="1"/>
        <pt x="271" y="932" on="1"/>
        <pt x="375" y="932" on="1"/>
        <pt x="472" y="797" on="1"/>
        <pt x="379" y="797" on="1"/>
        <pt x="320" y="857" on="1"/>
        <pt x="257" y="797" on="1"/>
      </contour>
      <contour>
        <pt x="58" y="144" on="1"/>
        <pt x="58" y="580" on="1"/>
        <pt x="58" y="671" on="0"/>
        <pt x="112" y="704" on="1"/>
        <pt x="157" y="732" on="0"/>
        <pt x="209" y="732" on="1"/>
        <pt x="213" y="732" on="0"/>
        <pt x="475" y="725" on="0"/>
        <pt x="539" y="716" on="1"/>
        <pt x="539" y="600" on="1"/>
        <pt x="250" y="600" on="1"/>
        <pt x="213" y="600" on="0"/>
        <pt x="204" y="582" on="1"/>
        <pt x="198" y="568" on="0"/>
        <pt x="198" y="544" on="1"/>
        <pt x="198" y="430" on="1"/>
        <pt x="494" y="420" on="1"/>
        <pt x="494" y="304" on="1"/>
        <pt x="198" y="295" on="1"/>
        <pt x="198" y="181" on="1"/>
        <pt x="198" y="143" on="0"/>
        <pt x="219" y="135" on="1"/>
        <pt x="234" y="129" on="0"/>
        <pt x="260" y="129" on="1"/>
        <pt x="539" y="129" on="1"/>
        <pt x="539" y="14" on="1"/>
        <pt x="489" y="7" on="0"/>
        <pt x="292" y="0" on="1"/>
        <pt x="227" y="-3" on="1"/>
        <pt x="219" y="-3" on="0"/>
        <pt x="198" y="-3" on="0"/>
        <pt x="164" y="0" on="0"/>
        <pt x="116" y="18" on="0"/>
        <pt x="98" y="33" on="1"/>
        <pt x="58" y="69" on="0"/>
      </contour>
    </TTGlyph>
    <TTGlyph name="Edieresis" xMin="58" yMin="-4" xMax="540" yMax="913">
      <contour>
        <pt x="126" y="830" on="0"/>
        <pt x="126" y="878" on="0"/>
        <pt x="161" y="912" on="0"/>
        <pt x="210" y="912" on="0"/>
        <pt x="244" y="878" on="0"/>
        <pt x="244" y="830" on="0"/>
        <pt x="210" y="795" on="0"/>
        <pt x="161" y="795" on="0"/>
      </contour>
      <contour>
        <pt x="381" y="830" on="0"/>
        <pt x="381" y="878" on="0"/>
        <pt x="416" y="912" on="0"/>
        <pt x="465" y="912" on="0"/>
        <pt x="499" y="878" on="0"/>
        <pt x="499" y="830" on="0"/>
        <pt x="465" y="795" on="0"/>
        <pt x="416" y="795" on="0"/>
      </contour>
      <contour>
        <pt x="58" y="144" on="1"/>
        <pt x="58" y="580" on="1"/>
        <pt x="58" y="671" on="0"/>
        <pt x="112" y="704" on="1"/>
        <pt x="157" y="732" on="0"/>
        <pt x="209" y="732" on="1"/>
        <pt x="213" y="732" on="0"/>
        <pt x="475" y="725" on="0"/>
        <pt x="539" y="716" on="1"/>
        <pt x="539" y="600" on="1"/>
        <pt x="250" y="600" on="1"/>
        <pt x="213" y="600" on="0"/>
        <pt x="204" y="582" on="1"/>
        <pt x="198" y="568" on="0"/>
        <pt x="198" y="544" on="1"/>
        <pt x="198" y="430" on="1"/>
        <pt x="494" y="420" on="1"/>
        <pt x="494" y="304" on="1"/>
        <pt x="198" y="295" on="1"/>
        <pt x="198" y="181" on="1"/>
        <pt x="198" y="143" on="0"/>
        <pt x="219" y="135" on="1"/>
        <pt x="234" y="129" on="0"/>
        <pt x="260" y="129" on="1"/>
        <pt x="539" y="129" on="1"/>
        <pt x="539" y="14" on="1"/>
        <pt x="489" y="7" on="0"/>
        <pt x="292" y="0" on="1"/>
        <pt x="227" y="-3" on="1"/>
        <pt x="219" y="-3" on="0"/>
        <pt x="198" y="-3" on="0"/>
        <pt x="164" y="0" on="0"/>
        <pt x="116" y="18" on="0"/>
        <pt x="98" y="33" on="1"/>
        <pt x="58" y="69" on="0"/>
      </contour>
    </TTGlyph>
    <TTGlyph name="Edotaccent" xMin="58" yMin="-4" xMax="540" yMax="920">
      <contour>
        <pt x="265" y="819" on="1"/>
        <pt x="265" y="895" on="1"/>
        <pt x="265" y="920" on="0"/>
        <pt x="289" y="920" on="1"/>
        <pt x="361" y="920" on="1"/>
        <pt x="372" y="920" on="0"/>
        <pt x="384" y="906" on="0"/>
        <pt x="384" y="895" on="1"/>
        <pt x="384" y="819" on="1"/>
        <pt x="384" y="796" on="0"/>
        <pt x="361" y="796" on="1"/>
        <pt x="289" y="796" on="1"/>
        <pt x="279" y="796" on="0"/>
        <pt x="265" y="808" on="0"/>
      </contour>
      <contour>
        <pt x="58" y="144" on="1"/>
        <pt x="58" y="580" on="1"/>
        <pt x="58" y="671" on="0"/>
        <pt x="112" y="704" on="1"/>
        <pt x="157" y="732" on="0"/>
        <pt x="209" y="732" on="1"/>
        <pt x="213" y="732" on="0"/>
        <pt x="475" y="725" on="0"/>
        <pt x="539" y="716" on="1"/>
        <pt x="539" y="600" on="1"/>
        <pt x="250" y="600" on="1"/>
        <pt x="213" y="600" on="0"/>
        <pt x="204" y="582" on="1"/>
        <pt x="198" y="568" on="0"/>
        <pt x="198" y="544" on="1"/>
        <pt x="198" y="430" on="1"/>
        <pt x="494" y="420" on="1"/>
        <pt x="494" y="304" on="1"/>
        <pt x="198" y="295" on="1"/>
        <pt x="198" y="181" on="1"/>
        <pt x="198" y="143" on="0"/>
        <pt x="219" y="135" on="1"/>
        <pt x="234" y="129" on="0"/>
        <pt x="260" y="129" on="1"/>
        <pt x="539" y="129" on="1"/>
        <pt x="539" y="14" on="1"/>
        <pt x="489" y="7" on="0"/>
        <pt x="292" y="0" on="1"/>
        <pt x="227" y="-3" on="1"/>
        <pt x="219" y="-3" on="0"/>
        <pt x="198" y="-3" on="0"/>
        <pt x="164" y="0" on="0"/>
        <pt x="116" y="18" on="0"/>
        <pt x="98" y="33" on="1"/>
        <pt x="58" y="69" on="0"/>
      </contour>
    </TTGlyph>
    <TTGlyph name="Egrave" xMin="58" yMin="-4" xMax="540" yMax="934">
      <contour>
        <pt x="164" y="934" on="1"/>
        <pt x="287" y="934" on="1"/>
        <pt x="377" y="795" on="1"/>
        <pt x="286" y="795" on="1"/>
      </contour>
      <contour>
        <pt x="58" y="144" on="1"/>
        <pt x="58" y="580" on="1"/>
        <pt x="58" y="671" on="0"/>
        <pt x="112" y="704" on="1"/>
        <pt x="157" y="732" on="0"/>
        <pt x="209" y="732" on="1"/>
        <pt x="213" y="732" on="0"/>
        <pt x="475" y="725" on="0"/>
        <pt x="539" y="716" on="1"/>
        <pt x="539" y="600" on="1"/>
        <pt x="250" y="600" on="1"/>
        <pt x="213" y="600" on="0"/>
        <pt x="204" y="582" on="1"/>
        <pt x="198" y="568" on="0"/>
        <pt x="198" y="544" on="1"/>
        <pt x="198" y="430" on="1"/>
        <pt x="494" y="420" on="1"/>
        <pt x="494" y="304" on="1"/>
        <pt x="198" y="295" on="1"/>
        <pt x="198" y="181" on="1"/>
        <pt x="198" y="143" on="0"/>
        <pt x="219" y="135" on="1"/>
        <pt x="234" y="129" on="0"/>
        <pt x="260" y="129" on="1"/>
        <pt x="539" y="129" on="1"/>
        <pt x="539" y="14" on="1"/>
        <pt x="489" y="7" on="0"/>
        <pt x="292" y="0" on="1"/>
        <pt x="227" y="-3" on="1"/>
        <pt x="219" y="-3" on="0"/>
        <pt x="198" y="-3" on="0"/>
        <pt x="164" y="0" on="0"/>
        <pt x="116" y="18" on="0"/>
        <pt x="98" y="33" on="1"/>
        <pt x="58" y="69" on="0"/>
      </contour>
    </TTGlyph>
    <TTGlyph name="Emacron" xMin="58" yMin="-4" xMax="540" yMax="876">
      <contour>
        <pt x="166" y="796" on="1"/>
        <pt x="166" y="876" on="1"/>
        <pt x="458" y="876" on="1"/>
        <pt x="458" y="796" on="1"/>
      </contour>
      <contour>
        <pt x="58" y="144" on="1"/>
        <pt x="58" y="580" on="1"/>
        <pt x="58" y="671" on="0"/>
        <pt x="112" y="704" on="1"/>
        <pt x="157" y="732" on="0"/>
        <pt x="209" y="732" on="1"/>
        <pt x="213" y="732" on="0"/>
        <pt x="475" y="725" on="0"/>
        <pt x="539" y="716" on="1"/>
        <pt x="539" y="600" on="1"/>
        <pt x="250" y="600" on="1"/>
        <pt x="213" y="600" on="0"/>
        <pt x="204" y="582" on="1"/>
        <pt x="198" y="568" on="0"/>
        <pt x="198" y="544" on="1"/>
        <pt x="198" y="430" on="1"/>
        <pt x="494" y="420" on="1"/>
        <pt x="494" y="304" on="1"/>
        <pt x="198" y="295" on="1"/>
        <pt x="198" y="181" on="1"/>
        <pt x="198" y="143" on="0"/>
        <pt x="219" y="135" on="1"/>
        <pt x="234" y="129" on="0"/>
        <pt x="260" y="129" on="1"/>
        <pt x="539" y="129" on="1"/>
        <pt x="539" y="14" on="1"/>
        <pt x="489" y="7" on="0"/>
        <pt x="292" y="0" on="1"/>
        <pt x="227" y="-3" on="1"/>
        <pt x="219" y="-3" on="0"/>
        <pt x="198" y="-3" on="0"/>
        <pt x="164" y="0" on="0"/>
        <pt x="116" y="18" on="0"/>
        <pt x="98" y="33" on="1"/>
        <pt x="58" y="69" on="0"/>
      </contour>
    </TTGlyph>
    <TTGlyph name="Eng" xMin="60" yMin="-258" xMax="633" yMax="732">
      <contour>
        <pt x="61" y="0" on="1"/>
        <pt x="61" y="732" on="1"/>
        <pt x="203" y="732" on="1"/>
        <pt x="492" y="263" on="1"/>
        <pt x="492" y="732" on="1"/>
        <pt x="632" y="732" on="1"/>
        <pt x="632" y="-73" on="1"/>
        <pt x="632" y="-174" on="0"/>
        <pt x="523" y="-257" on="0"/>
        <pt x="452" y="-257" on="1"/>
        <pt x="440" y="-257" on="0"/>
        <pt x="405" y="-257" on="0"/>
        <pt x="380" y="-257" on="1"/>
        <pt x="380" y="-156" on="1"/>
        <pt x="384" y="-155" on="0"/>
        <pt x="415" y="-151" on="0"/>
        <pt x="426" y="-150" on="0"/>
        <pt x="452" y="-143" on="0"/>
        <pt x="462" y="-136" on="0"/>
        <pt x="479" y="-122" on="0"/>
        <pt x="483" y="-114" on="1"/>
        <pt x="492" y="-91" on="0"/>
        <pt x="492" y="-64" on="1"/>
        <pt x="492" y="0" on="1"/>
        <pt x="202" y="468" on="1"/>
        <pt x="201" y="0" on="1"/>
      </contour>
    </TTGlyph>
    <TTGlyph name="Eogonek" xMin="58" yMin="-176" xMax="548" yMax="733">
      <contour>
        <pt x="547" y="-172" on="1"/>
        <pt x="534" y="-175" on="0"/>
        <pt x="504" y="-175" on="0"/>
        <pt x="456" y="-160" on="0"/>
        <pt x="438" y="-138" on="1"/>
        <pt x="412" y="-107" on="0"/>
        <pt x="412" y="-81" on="1"/>
        <pt x="412" y="-22" on="0"/>
        <pt x="483" y="14" on="1"/>
        <pt x="539" y="14" on="1"/>
        <pt x="473" y="-35" on="0"/>
        <pt x="498" y="-75" on="1"/>
        <pt x="511" y="-97" on="0"/>
        <pt x="547" y="-96" on="1"/>
      </contour>
      <contour>
        <pt x="58" y="144" on="1"/>
        <pt x="58" y="580" on="1"/>
        <pt x="58" y="671" on="0"/>
        <pt x="112" y="704" on="1"/>
        <pt x="157" y="732" on="0"/>
        <pt x="209" y="732" on="1"/>
        <pt x="213" y="732" on="0"/>
        <pt x="475" y="725" on="0"/>
        <pt x="539" y="716" on="1"/>
        <pt x="539" y="600" on="1"/>
        <pt x="250" y="600" on="1"/>
        <pt x="213" y="600" on="0"/>
        <pt x="204" y="582" on="1"/>
        <pt x="198" y="568" on="0"/>
        <pt x="198" y="544" on="1"/>
        <pt x="198" y="430" on="1"/>
        <pt x="494" y="420" on="1"/>
        <pt x="494" y="304" on="1"/>
        <pt x="198" y="295" on="1"/>
        <pt x="198" y="181" on="1"/>
        <pt x="198" y="143" on="0"/>
        <pt x="219" y="135" on="1"/>
        <pt x="234" y="129" on="0"/>
        <pt x="260" y="129" on="1"/>
        <pt x="539" y="129" on="1"/>
        <pt x="539" y="14" on="1"/>
        <pt x="489" y="7" on="0"/>
        <pt x="292" y="0" on="1"/>
        <pt x="227" y="-3" on="1"/>
        <pt x="219" y="-3" on="0"/>
        <pt x="198" y="-3" on="0"/>
        <pt x="164" y="0" on="0"/>
        <pt x="116" y="18" on="0"/>
        <pt x="98" y="33" on="1"/>
        <pt x="58" y="69" on="0"/>
      </contour>
    </TTGlyph>
    <TTGlyph name="Eth" xMin="-5" yMin="0" xMax="626" yMax="732">
      <contour>
        <pt x="-4" y="340" on="1"/>
        <pt x="-4" y="406" on="1"/>
        <pt x="61" y="406" on="1"/>
        <pt x="61" y="732" on="1"/>
        <pt x="61" y="732" on="0"/>
        <pt x="372" y="732" on="1"/>
        <pt x="600" y="732" on="0"/>
        <pt x="623" y="441" on="1"/>
        <pt x="626" y="404" on="0"/>
        <pt x="626" y="281" on="0"/>
        <pt x="596" y="150" on="0"/>
        <pt x="566" y="101" on="1"/>
        <pt x="504" y="0" on="0"/>
        <pt x="372" y="0" on="1"/>
        <pt x="61" y="0" on="1"/>
        <pt x="61" y="340" on="1"/>
      </contour>
      <contour>
        <pt x="461" y="185" on="0"/>
        <pt x="484" y="288" on="0"/>
        <pt x="484" y="435" on="0"/>
        <pt x="467" y="532" on="0"/>
        <pt x="450" y="558" on="1"/>
        <pt x="420" y="606" on="0"/>
        <pt x="361" y="606" on="1"/>
        <pt x="201" y="606" on="1"/>
        <pt x="201" y="406" on="1"/>
        <pt x="312" y="406" on="1"/>
        <pt x="312" y="340" on="1"/>
        <pt x="201" y="340" on="1"/>
        <pt x="201" y="125" on="1"/>
        <pt x="361" y="125" on="1"/>
        <pt x="405" y="125" on="0"/>
      </contour>
    </TTGlyph>
    <TTGlyph name="Euro" xMin="15" yMin="-6" xMax="603" yMax="740">
      <contour>
        <pt x="207" y="717" on="0"/>
        <pt x="287" y="740" on="0"/>
        <pt x="384" y="740" on="0"/>
        <pt x="545" y="720" on="0"/>
        <pt x="599" y="704" on="1"/>
        <pt x="599" y="602" on="1"/>
        <pt x="452" y="616" on="0"/>
        <pt x="342" y="616" on="0"/>
        <pt x="299" y="610" on="0"/>
        <pt x="270" y="599" on="0"/>
        <pt x="250" y="578" on="0"/>
        <pt x="239" y="559" on="0"/>
        <pt x="236" y="542" on="1"/>
        <pt x="232" y="517" on="0"/>
        <pt x="232" y="476" on="1"/>
        <pt x="466" y="468" on="1"/>
        <pt x="466" y="400" on="1"/>
        <pt x="232" y="394" on="1"/>
        <pt x="232" y="326" on="1"/>
        <pt x="466" y="318" on="1"/>
        <pt x="466" y="250" on="1"/>
        <pt x="328" y="247" on="0"/>
        <pt x="265" y="244" on="1"/>
        <pt x="232" y="242" on="1"/>
        <pt x="232" y="143" on="0"/>
        <pt x="301" y="121" on="1"/>
        <pt x="331" y="112" on="0"/>
        <pt x="371" y="112" on="1"/>
        <pt x="451" y="112" on="0"/>
        <pt x="565" y="129" on="1"/>
        <pt x="603" y="134" on="1"/>
        <pt x="603" y="34" on="1"/>
        <pt x="508" y="-6" on="0"/>
        <pt x="337" y="-6" on="1"/>
        <pt x="229" y="-6" on="0"/>
        <pt x="164" y="50" on="1"/>
        <pt x="92" y="112" on="0"/>
        <pt x="92" y="242" on="1"/>
        <pt x="15" y="250" on="1"/>
        <pt x="15" y="318" on="1"/>
        <pt x="92" y="326" on="1"/>
        <pt x="92" y="394" on="1"/>
        <pt x="15" y="402" on="1"/>
        <pt x="15" y="466" on="1"/>
        <pt x="92" y="476" on="1"/>
        <pt x="92" y="562" on="0"/>
        <pt x="112" y="610" on="1"/>
        <pt x="120" y="632" on="0"/>
        <pt x="156" y="684" on="0"/>
      </contour>
    </TTGlyph>
    <TTGlyph name="Euro.smcp" xMin="12" yMin="-5" xMax="494" yMax="577">
      <contour>
        <pt x="384" y="196" on="1"/>
        <pt x="208" y="192" on="0"/>
        <pt x="210" y="190" on="1"/>
        <pt x="210" y="146" on="0"/>
        <pt x="259" y="116" on="0"/>
        <pt x="296" y="116" on="1"/>
        <pt x="368" y="116" on="0"/>
        <pt x="462" y="126" on="1"/>
        <pt x="494" y="129" on="1"/>
        <pt x="494" y="23" on="1"/>
        <pt x="421" y="-5" on="0"/>
        <pt x="273" y="-5" on="1"/>
        <pt x="69" y="-5" on="0"/>
        <pt x="69" y="190" on="1"/>
        <pt x="12" y="196" on="1"/>
        <pt x="12" y="260" on="1"/>
        <pt x="69" y="265" on="1"/>
        <pt x="69" y="302" on="1"/>
        <pt x="12" y="308" on="1"/>
        <pt x="12" y="368" on="1"/>
        <pt x="69" y="375" on="1"/>
        <pt x="69" y="438" on="0"/>
        <pt x="87" y="478" on="1"/>
        <pt x="131" y="577" on="0"/>
        <pt x="273" y="577" on="1"/>
        <pt x="306" y="577" on="0"/>
        <pt x="438" y="564" on="0"/>
        <pt x="491" y="554" on="1"/>
        <pt x="491" y="448" on="1"/>
        <pt x="365" y="459" on="0"/>
        <pt x="248" y="459" on="0"/>
        <pt x="210" y="417" on="0"/>
        <pt x="210" y="375" on="1"/>
        <pt x="384" y="369" on="1"/>
        <pt x="384" y="307" on="1"/>
        <pt x="210" y="302" on="1"/>
        <pt x="210" y="265" on="1"/>
        <pt x="384" y="260" on="1"/>
      </contour>
    </TTGlyph>
    <TTGlyph name="F" xMin="58" yMin="0" xMax="540" yMax="733">
      <contour>
        <pt x="58" y="0" on="1"/>
        <pt x="58" y="578" on="1"/>
        <pt x="58" y="697" on="0"/>
        <pt x="159" y="725" on="1"/>
        <pt x="184" y="732" on="0"/>
        <pt x="214" y="732" on="0"/>
        <pt x="475" y="725" on="0"/>
        <pt x="539" y="716" on="1"/>
        <pt x="539" y="600" on="1"/>
        <pt x="250" y="600" on="1"/>
        <pt x="213" y="600" on="0"/>
        <pt x="204" y="582" on="1"/>
        <pt x="198" y="568" on="0"/>
        <pt x="198" y="544" on="1"/>
        <pt x="198" y="430" on="1"/>
        <pt x="494" y="420" on="1"/>
        <pt x="494" y="304" on="1"/>
        <pt x="198" y="295" on="1"/>
        <pt x="198" y="0" on="1"/>
      </contour>
    </TTGlyph>
    <TTGlyph name="G" xMin="41" yMin="0" xMax="574" yMax="740">
      <contour>
        <pt x="51" y="198" on="0"/>
        <pt x="42" y="301" on="0"/>
        <pt x="42" y="438" on="0"/>
        <pt x="53" y="543" on="0"/>
        <pt x="84" y="640" on="0"/>
        <pt x="111" y="672" on="1"/>
        <pt x="168" y="740" on="0"/>
        <pt x="281" y="740" on="1"/>
        <pt x="366" y="740" on="0"/>
        <pt x="485" y="727" on="0"/>
        <pt x="562" y="708" on="1"/>
        <pt x="562" y="599" on="1"/>
        <pt x="561" y="599" on="0"/>
        <pt x="530" y="603" on="0"/>
        <pt x="479" y="608" on="0"/>
        <pt x="449" y="610" on="1"/>
        <pt x="377" y="616" on="0"/>
        <pt x="314" y="616" on="1"/>
        <pt x="234" y="616" on="0"/>
        <pt x="182" y="509" on="0"/>
        <pt x="182" y="223" on="0"/>
        <pt x="206" y="175" on="1"/>
        <pt x="231" y="126" on="0"/>
        <pt x="308" y="126" on="1"/>
        <pt x="338" y="126" on="0"/>
        <pt x="401" y="149" on="0"/>
        <pt x="417" y="160" on="1"/>
        <pt x="433" y="172" on="1"/>
        <pt x="433" y="303" on="1"/>
        <pt x="331" y="303" on="1"/>
        <pt x="331" y="392" on="1"/>
        <pt x="390" y="416" on="0"/>
        <pt x="505" y="416" on="1"/>
        <pt x="537" y="416" on="0"/>
        <pt x="573" y="414" on="1"/>
        <pt x="573" y="0" on="1"/>
        <pt x="473" y="0" on="1"/>
        <pt x="435" y="49" on="1"/>
        <pt x="400" y="16" on="0"/>
        <pt x="360" y="6" on="1"/>
        <pt x="251" y="-21" on="0"/>
        <pt x="176" y="12" on="1"/>
        <pt x="132" y="31" on="0"/>
        <pt x="81" y="95" on="0"/>
      </contour>
    </TTGlyph>
    <TTGlyph name="Gbreve" xMin="41" yMin="0" xMax="574" yMax="914">
      <contour>
        <pt x="212" y="914" on="1"/>
        <pt x="270" y="914" on="1"/>
        <pt x="270" y="889" on="0"/>
        <pt x="301" y="858" on="0"/>
        <pt x="354" y="858" on="0"/>
        <pt x="384" y="888" on="0"/>
        <pt x="384" y="914" on="1"/>
        <pt x="442" y="914" on="1"/>
        <pt x="442" y="879" on="0"/>
        <pt x="426" y="853" on="1"/>
        <pt x="394" y="800" on="0"/>
        <pt x="326" y="800" on="1"/>
        <pt x="277" y="800" on="0"/>
        <pt x="212" y="863" on="0"/>
      </contour>
      <contour>
        <pt x="51" y="198" on="0"/>
        <pt x="42" y="301" on="0"/>
        <pt x="42" y="438" on="0"/>
        <pt x="53" y="543" on="0"/>
        <pt x="84" y="640" on="0"/>
        <pt x="111" y="672" on="1"/>
        <pt x="168" y="740" on="0"/>
        <pt x="281" y="740" on="1"/>
        <pt x="366" y="740" on="0"/>
        <pt x="485" y="727" on="0"/>
        <pt x="562" y="708" on="1"/>
        <pt x="562" y="599" on="1"/>
        <pt x="561" y="599" on="0"/>
        <pt x="530" y="603" on="0"/>
        <pt x="479" y="608" on="0"/>
        <pt x="449" y="610" on="1"/>
        <pt x="377" y="616" on="0"/>
        <pt x="314" y="616" on="1"/>
        <pt x="234" y="616" on="0"/>
        <pt x="182" y="509" on="0"/>
        <pt x="182" y="223" on="0"/>
        <pt x="206" y="175" on="1"/>
        <pt x="231" y="126" on="0"/>
        <pt x="308" y="126" on="1"/>
        <pt x="338" y="126" on="0"/>
        <pt x="401" y="149" on="0"/>
        <pt x="417" y="160" on="1"/>
        <pt x="433" y="172" on="1"/>
        <pt x="433" y="303" on="1"/>
        <pt x="331" y="303" on="1"/>
        <pt x="331" y="392" on="1"/>
        <pt x="390" y="416" on="0"/>
        <pt x="505" y="416" on="1"/>
        <pt x="537" y="416" on="0"/>
        <pt x="573" y="414" on="1"/>
        <pt x="573" y="0" on="1"/>
        <pt x="473" y="0" on="1"/>
        <pt x="435" y="49" on="1"/>
        <pt x="400" y="16" on="0"/>
        <pt x="360" y="6" on="1"/>
        <pt x="251" y="-21" on="0"/>
        <pt x="176" y="12" on="1"/>
        <pt x="132" y="31" on="0"/>
        <pt x="81" y="95" on="0"/>
      </contour>
    </TTGlyph>
    <TTGlyph name="Gcircumflex" xMin="41" yMin="0" xMax="574" yMax="936">
      <contour>
        <pt x="180" y="800" on="1"/>
        <pt x="287" y="936" on="1"/>
        <pt x="391" y="936" on="1"/>
        <pt x="488" y="800" on="1"/>
        <pt x="395" y="800" on="1"/>
        <pt x="336" y="860" on="1"/>
        <pt x="274" y="800" on="1"/>
      </contour>
      <contour>
        <pt x="51" y="198" on="0"/>
        <pt x="42" y="301" on="0"/>
        <pt x="42" y="438" on="0"/>
        <pt x="53" y="543" on="0"/>
        <pt x="84" y="640" on="0"/>
        <pt x="111" y="672" on="1"/>
        <pt x="168" y="740" on="0"/>
        <pt x="281" y="740" on="1"/>
        <pt x="366" y="740" on="0"/>
        <pt x="485" y="727" on="0"/>
        <pt x="562" y="708" on="1"/>
        <pt x="562" y="599" on="1"/>
        <pt x="561" y="599" on="0"/>
        <pt x="530" y="603" on="0"/>
        <pt x="479" y="608" on="0"/>
        <pt x="449" y="610" on="1"/>
        <pt x="377" y="616" on="0"/>
        <pt x="314" y="616" on="1"/>
        <pt x="234" y="616" on="0"/>
        <pt x="182" y="509" on="0"/>
        <pt x="182" y="223" on="0"/>
        <pt x="206" y="175" on="1"/>
        <pt x="231" y="126" on="0"/>
        <pt x="308" y="126" on="1"/>
        <pt x="338" y="126" on="0"/>
        <pt x="401" y="149" on="0"/>
        <pt x="417" y="160" on="1"/>
        <pt x="433" y="172" on="1"/>
        <pt x="433" y="303" on="1"/>
        <pt x="331" y="303" on="1"/>
        <pt x="331" y="392" on="1"/>
        <pt x="390" y="416" on="0"/>
        <pt x="505" y="416" on="1"/>
        <pt x="537" y="416" on="0"/>
        <pt x="573" y="414" on="1"/>
        <pt x="573" y="0" on="1"/>
        <pt x="473" y="0" on="1"/>
        <pt x="435" y="49" on="1"/>
        <pt x="400" y="16" on="0"/>
        <pt x="360" y="6" on="1"/>
        <pt x="251" y="-21" on="0"/>
        <pt x="176" y="12" on="1"/>
        <pt x="132" y="31" on="0"/>
        <pt x="81" y="95" on="0"/>
      </contour>
    </TTGlyph>
    <TTGlyph name="Gcommaaccent" xMin="41" yMin="-286" xMax="574" yMax="740">
      <contour>
        <pt x="253" y="-179" on="1"/>
        <pt x="253" y="-101" on="1"/>
        <pt x="253" y="-77" on="0"/>
        <pt x="276" y="-77" on="1"/>
        <pt x="351" y="-77" on="1"/>
        <pt x="373" y="-77" on="0"/>
        <pt x="373" y="-101" on="1"/>
        <pt x="373" y="-212" on="1"/>
        <pt x="373" y="-240" on="0"/>
        <pt x="349" y="-275" on="0"/>
        <pt x="332" y="-280" on="1"/>
        <pt x="311" y="-286" on="0"/>
        <pt x="278" y="-286" on="0"/>
        <pt x="270" y="-284" on="1"/>
        <pt x="258" y="-281" on="1"/>
        <pt x="258" y="-237" on="1"/>
        <pt x="270" y="-238" on="0"/>
        <pt x="277" y="-234" on="1"/>
        <pt x="286" y="-228" on="0"/>
        <pt x="286" y="-214" on="1"/>
        <pt x="286" y="-202" on="1"/>
        <pt x="276" y="-202" on="1"/>
        <pt x="253" y="-202" on="0"/>
      </contour>
      <contour>
        <pt x="51" y="198" on="0"/>
        <pt x="42" y="301" on="0"/>
        <pt x="42" y="438" on="0"/>
        <pt x="53" y="543" on="0"/>
        <pt x="84" y="640" on="0"/>
        <pt x="111" y="672" on="1"/>
        <pt x="168" y="740" on="0"/>
        <pt x="281" y="740" on="1"/>
        <pt x="366" y="740" on="0"/>
        <pt x="485" y="727" on="0"/>
        <pt x="562" y="708" on="1"/>
        <pt x="562" y="599" on="1"/>
        <pt x="561" y="599" on="0"/>
        <pt x="530" y="603" on="0"/>
        <pt x="479" y="608" on="0"/>
        <pt x="449" y="610" on="1"/>
        <pt x="377" y="616" on="0"/>
        <pt x="314" y="616" on="1"/>
        <pt x="234" y="616" on="0"/>
        <pt x="182" y="509" on="0"/>
        <pt x="182" y="223" on="0"/>
        <pt x="206" y="175" on="1"/>
        <pt x="231" y="126" on="0"/>
        <pt x="308" y="126" on="1"/>
        <pt x="338" y="126" on="0"/>
        <pt x="401" y="149" on="0"/>
        <pt x="417" y="160" on="1"/>
        <pt x="433" y="172" on="1"/>
        <pt x="433" y="303" on="1"/>
        <pt x="331" y="303" on="1"/>
        <pt x="331" y="392" on="1"/>
        <pt x="390" y="416" on="0"/>
        <pt x="505" y="416" on="1"/>
        <pt x="537" y="416" on="0"/>
        <pt x="573" y="414" on="1"/>
        <pt x="573" y="0" on="1"/>
        <pt x="473" y="0" on="1"/>
        <pt x="435" y="49" on="1"/>
        <pt x="400" y="16" on="0"/>
        <pt x="360" y="6" on="1"/>
        <pt x="251" y="-21" on="0"/>
        <pt x="176" y="12" on="1"/>
        <pt x="132" y="31" on="0"/>
        <pt x="81" y="95" on="0"/>
      </contour>
    </TTGlyph>
    <TTGlyph name="Gdotaccent" xMin="41" yMin="0" xMax="574" yMax="924">
      <contour>
        <pt x="266" y="823" on="1"/>
        <pt x="266" y="899" on="1"/>
        <pt x="266" y="924" on="0"/>
        <pt x="290" y="924" on="1"/>
        <pt x="362" y="924" on="1"/>
        <pt x="373" y="924" on="0"/>
        <pt x="385" y="910" on="0"/>
        <pt x="385" y="899" on="1"/>
        <pt x="385" y="823" on="1"/>
        <pt x="385" y="800" on="0"/>
        <pt x="362" y="800" on="1"/>
        <pt x="290" y="800" on="1"/>
        <pt x="280" y="800" on="0"/>
        <pt x="266" y="813" on="0"/>
      </contour>
      <contour>
        <pt x="51" y="198" on="0"/>
        <pt x="42" y="301" on="0"/>
        <pt x="42" y="438" on="0"/>
        <pt x="53" y="543" on="0"/>
        <pt x="84" y="640" on="0"/>
        <pt x="111" y="672" on="1"/>
        <pt x="168" y="740" on="0"/>
        <pt x="281" y="740" on="1"/>
        <pt x="366" y="740" on="0"/>
        <pt x="485" y="727" on="0"/>
        <pt x="562" y="708" on="1"/>
        <pt x="562" y="599" on="1"/>
        <pt x="561" y="599" on="0"/>
        <pt x="530" y="603" on="0"/>
        <pt x="479" y="608" on="0"/>
        <pt x="449" y="610" on="1"/>
        <pt x="377" y="616" on="0"/>
        <pt x="314" y="616" on="1"/>
        <pt x="234" y="616" on="0"/>
        <pt x="182" y="509" on="0"/>
        <pt x="182" y="223" on="0"/>
        <pt x="206" y="175" on="1"/>
        <pt x="231" y="126" on="0"/>
        <pt x="308" y="126" on="1"/>
        <pt x="338" y="126" on="0"/>
        <pt x="401" y="149" on="0"/>
        <pt x="417" y="160" on="1"/>
        <pt x="433" y="172" on="1"/>
        <pt x="433" y="303" on="1"/>
        <pt x="331" y="303" on="1"/>
        <pt x="331" y="392" on="1"/>
        <pt x="390" y="416" on="0"/>
        <pt x="505" y="416" on="1"/>
        <pt x="537" y="416" on="0"/>
        <pt x="573" y="414" on="1"/>
        <pt x="573" y="0" on="1"/>
        <pt x="473" y="0" on="1"/>
        <pt x="435" y="49" on="1"/>
        <pt x="400" y="16" on="0"/>
        <pt x="360" y="6" on="1"/>
        <pt x="251" y="-21" on="0"/>
        <pt x="176" y="12" on="1"/>
        <pt x="132" y="31" on="0"/>
        <pt x="81" y="95" on="0"/>
      </contour>
    </TTGlyph>
    <TTGlyph name="H" xMin="60" yMin="0" xMax="592" yMax="732">
      <contour>
        <pt x="61" y="0" on="1"/>
        <pt x="61" y="732" on="1"/>
        <pt x="201" y="732" on="1"/>
        <pt x="201" y="418" on="1"/>
        <pt x="452" y="418" on="1"/>
        <pt x="452" y="732" on="1"/>
        <pt x="592" y="732" on="1"/>
        <pt x="592" y="0" on="1"/>
        <pt x="452" y="0" on="1"/>
        <pt x="452" y="290" on="1"/>
        <pt x="201" y="290" on="1"/>
        <pt x="201" y="0" on="1"/>
      </contour>
    </TTGlyph>
    <TTGlyph name="Hbar" xMin="14" yMin="0" xMax="672" yMax="732">
      <contour>
        <pt x="15" y="516" on="1"/>
        <pt x="15" y="581" on="1"/>
        <pt x="78" y="581" on="1"/>
        <pt x="78" y="732" on="1"/>
        <pt x="218" y="732" on="1"/>
        <pt x="218" y="581" on="1"/>
        <pt x="469" y="581" on="1"/>
        <pt x="469" y="732" on="1"/>
        <pt x="609" y="732" on="1"/>
        <pt x="609" y="581" on="1"/>
        <pt x="671" y="581" on="1"/>
        <pt x="671" y="516" on="1"/>
        <pt x="609" y="516" on="1"/>
        <pt x="609" y="0" on="1"/>
        <pt x="469" y="0" on="1"/>
        <pt x="469" y="290" on="1"/>
        <pt x="218" y="290" on="1"/>
        <pt x="218" y="0" on="1"/>
        <pt x="78" y="0" on="1"/>
        <pt x="78" y="516" on="1"/>
      </contour>
      <contour>
        <pt x="218" y="418" on="1"/>
        <pt x="469" y="418" on="1"/>
        <pt x="469" y="516" on="1"/>
        <pt x="218" y="516" on="1"/>
      </contour>
    </TTGlyph>
    <TTGlyph name="Hcircumflex" xMin="60" yMin="0" xMax="592" yMax="933">
      <contour>
        <pt x="172" y="797" on="1"/>
        <pt x="280" y="932" on="1"/>
        <pt x="384" y="932" on="1"/>
        <pt x="480" y="797" on="1"/>
        <pt x="388" y="797" on="1"/>
        <pt x="329" y="857" on="1"/>
        <pt x="266" y="797" on="1"/>
      </contour>
      <contour>
        <pt x="61" y="0" on="1"/>
        <pt x="61" y="732" on="1"/>
        <pt x="201" y="732" on="1"/>
        <pt x="201" y="418" on="1"/>
        <pt x="452" y="418" on="1"/>
        <pt x="452" y="732" on="1"/>
        <pt x="592" y="732" on="1"/>
        <pt x="592" y="0" on="1"/>
        <pt x="452" y="0" on="1"/>
        <pt x="452" y="290" on="1"/>
        <pt x="201" y="290" on="1"/>
        <pt x="201" y="0" on="1"/>
      </contour>
    </TTGlyph>
    <TTGlyph name="I" xMin="60" yMin="0" xMax="201" yMax="732">
      <contour>
        <pt x="61" y="0" on="1"/>
        <pt x="61" y="732" on="1"/>
        <pt x="201" y="732" on="1"/>
        <pt x="201" y="0" on="1"/>
      </contour>
    </TTGlyph>
    <TTGlyph name="Iacute" xMin="60" yMin="0" xMax="299" yMax="936">
      <contour>
        <pt x="85" y="797" on="1"/>
        <pt x="176" y="936" on="1"/>
        <pt x="298" y="936" on="1"/>
        <pt x="176" y="797" on="1"/>
      </contour>
      <contour>
        <pt x="61" y="0" on="1"/>
        <pt x="61" y="732" on="1"/>
        <pt x="201" y="732" on="1"/>
        <pt x="201" y="0" on="1"/>
      </contour>
    </TTGlyph>
    <TTGlyph name="Icircumflex" xMin="-24" yMin="0" xMax="285" yMax="933">
      <contour>
        <pt x="-24" y="797" on="1"/>
        <pt x="84" y="932" on="1"/>
        <pt x="188" y="932" on="1"/>
        <pt x="285" y="797" on="1"/>
        <pt x="192" y="797" on="1"/>
        <pt x="133" y="857" on="1"/>
        <pt x="70" y="797" on="1"/>
      </contour>
      <contour>
        <pt x="61" y="0" on="1"/>
        <pt x="61" y="732" on="1"/>
        <pt x="201" y="732" on="1"/>
        <pt x="201" y="0" on="1"/>
      </contour>
    </TTGlyph>
    <TTGlyph name="Idieresis" xMin="-56" yMin="0" xMax="317" yMax="915">
      <contour>
        <pt x="-56" y="832" on="0"/>
        <pt x="-56" y="880" on="0"/>
        <pt x="-21" y="914" on="0"/>
        <pt x="28" y="914" on="0"/>
        <pt x="62" y="881" on="0"/>
        <pt x="62" y="832" on="0"/>
        <pt x="28" y="797" on="0"/>
        <pt x="-21" y="797" on="0"/>
      </contour>
      <contour>
        <pt x="200" y="832" on="0"/>
        <pt x="200" y="880" on="0"/>
        <pt x="234" y="914" on="0"/>
        <pt x="283" y="914" on="0"/>
        <pt x="317" y="881" on="0"/>
        <pt x="317" y="832" on="0"/>
        <pt x="283" y="797" on="0"/>
        <pt x="234" y="797" on="0"/>
      </contour>
      <contour>
        <pt x="61" y="0" on="1"/>
        <pt x="61" y="732" on="1"/>
        <pt x="201" y="732" on="1"/>
        <pt x="201" y="0" on="1"/>
      </contour>
    </TTGlyph>
    <TTGlyph name="Idotaccent" xMin="60" yMin="0" xMax="201" yMax="921">
      <contour>
        <pt x="71" y="820" on="1"/>
        <pt x="71" y="896" on="1"/>
        <pt x="71" y="921" on="0"/>
        <pt x="95" y="921" on="1"/>
        <pt x="167" y="921" on="1"/>
        <pt x="178" y="921" on="0"/>
        <pt x="190" y="907" on="0"/>
        <pt x="190" y="896" on="1"/>
        <pt x="190" y="820" on="1"/>
        <pt x="190" y="797" on="0"/>
        <pt x="167" y="797" on="1"/>
        <pt x="95" y="797" on="1"/>
        <pt x="85" y="797" on="0"/>
        <pt x="71" y="810" on="0"/>
      </contour>
      <contour>
        <pt x="61" y="0" on="1"/>
        <pt x="61" y="732" on="1"/>
        <pt x="201" y="732" on="1"/>
        <pt x="201" y="0" on="1"/>
      </contour>
    </TTGlyph>
    <TTGlyph name="Idotaccent.smcp" xMin="42" yMin="0" xMax="183" yMax="759">
      <contour>
        <pt x="43" y="0" on="1"/>
        <pt x="43" y="570" on="1"/>
        <pt x="183" y="570" on="1"/>
        <pt x="183" y="0" on="1"/>
      </contour>
      <contour>
        <pt x="55" y="658" on="1"/>
        <pt x="55" y="734" on="1"/>
        <pt x="55" y="759" on="0"/>
        <pt x="79" y="759" on="1"/>
        <pt x="151" y="759" on="1"/>
        <pt x="162" y="759" on="0"/>
        <pt x="174" y="745" on="0"/>
        <pt x="174" y="734" on="1"/>
        <pt x="174" y="658" on="1"/>
        <pt x="174" y="635" on="0"/>
        <pt x="151" y="635" on="1"/>
        <pt x="79" y="635" on="1"/>
        <pt x="69" y="635" on="0"/>
        <pt x="55" y="647" on="0"/>
      </contour>
    </TTGlyph>
    <TTGlyph name="Igrave" xMin="-37" yMin="0" xMax="201" yMax="936">
      <contour>
        <pt x="-37" y="936" on="1"/>
        <pt x="86" y="936" on="1"/>
        <pt x="176" y="797" on="1"/>
        <pt x="85" y="797" on="1"/>
      </contour>
      <contour>
        <pt x="61" y="0" on="1"/>
        <pt x="61" y="732" on="1"/>
        <pt x="201" y="732" on="1"/>
        <pt x="201" y="0" on="1"/>
      </contour>
    </TTGlyph>
    <TTGlyph name="Imacron" xMin="-16" yMin="0" xMax="277" yMax="877">
      <contour>
        <pt x="-15" y="797" on="1"/>
        <pt x="-15" y="876" on="1"/>
        <pt x="277" y="876" on="1"/>
        <pt x="277" y="797" on="1"/>
      </contour>
      <contour>
        <pt x="61" y="0" on="1"/>
        <pt x="61" y="732" on="1"/>
        <pt x="201" y="732" on="1"/>
        <pt x="201" y="0" on="1"/>
      </contour>
    </TTGlyph>
    <TTGlyph name="Iogonek" xMin="38" yMin="-190" xMax="201" yMax="732">
      <contour>
        <pt x="174" y="-186" on="1"/>
        <pt x="160" y="-189" on="0"/>
        <pt x="130" y="-189" on="0"/>
        <pt x="82" y="-174" on="0"/>
        <pt x="64" y="-152" on="1"/>
        <pt x="38" y="-121" on="0"/>
        <pt x="38" y="-95" on="1"/>
        <pt x="38" y="-36" on="0"/>
        <pt x="110" y="0" on="1"/>
        <pt x="165" y="0" on="1"/>
        <pt x="99" y="-49" on="0"/>
        <pt x="124" y="-89" on="1"/>
        <pt x="138" y="-111" on="0"/>
        <pt x="174" y="-110" on="1"/>
      </contour>
      <contour>
        <pt x="61" y="0" on="1"/>
        <pt x="61" y="732" on="1"/>
        <pt x="201" y="732" on="1"/>
        <pt x="201" y="0" on="1"/>
      </contour>
    </TTGlyph>
    <TTGlyph name="Itilde" xMin="-41" yMin="0" xMax="303" yMax="925">
      <contour>
        <pt x="190" y="887" on="1"/>
        <pt x="228" y="887" on="0"/>
        <pt x="278" y="925" on="1"/>
        <pt x="302" y="865" on="1"/>
        <pt x="240" y="797" on="0"/>
        <pt x="191" y="797" on="1"/>
        <pt x="165" y="797" on="0"/>
        <pt x="96" y="832" on="0"/>
        <pt x="68" y="832" on="0"/>
        <pt x="49" y="829" on="0"/>
        <pt x="36" y="826" on="0"/>
        <pt x="18" y="817" on="0"/>
        <pt x="10" y="813" on="0"/>
        <pt x="-13" y="799" on="0"/>
        <pt x="-17" y="797" on="1"/>
        <pt x="-41" y="852" on="1"/>
        <pt x="23" y="922" on="0"/>
        <pt x="80" y="922" on="1"/>
        <pt x="104" y="921" on="0"/>
        <pt x="170" y="887" on="0"/>
        <pt x="188" y="887" on="0"/>
      </contour>
      <contour>
        <pt x="61" y="0" on="1"/>
        <pt x="61" y="732" on="1"/>
        <pt x="201" y="732" on="1"/>
        <pt x="201" y="0" on="1"/>
      </contour>
    </TTGlyph>
    <TTGlyph name="J" xMin="26" yMin="-6" xMax="312" yMax="732">
      <contour>
        <pt x="259" y="18" on="1"/>
        <pt x="221" y="-5" on="0"/>
        <pt x="70" y="-5" on="0"/>
        <pt x="27" y="23" on="1"/>
        <pt x="29" y="132" on="1"/>
        <pt x="63" y="129" on="0"/>
        <pt x="98" y="129" on="0"/>
        <pt x="106" y="130" on="1"/>
        <pt x="171" y="132" on="0"/>
        <pt x="172" y="226" on="1"/>
        <pt x="172" y="732" on="1"/>
        <pt x="312" y="732" on="1"/>
        <pt x="312" y="165" on="1"/>
        <pt x="312" y="134" on="0"/>
        <pt x="307" y="90" on="0"/>
        <pt x="282" y="33" on="0"/>
      </contour>
    </TTGlyph>
    <TTGlyph name="Jcircumflex" xMin="26" yMin="-6" xMax="396" yMax="933">
      <contour>
        <pt x="87" y="797" on="1"/>
        <pt x="195" y="932" on="1"/>
        <pt x="299" y="932" on="1"/>
        <pt x="396" y="797" on="1"/>
        <pt x="303" y="797" on="1"/>
        <pt x="244" y="857" on="1"/>
        <pt x="181" y="797" on="1"/>
      </contour>
      <contour>
        <pt x="259" y="18" on="1"/>
        <pt x="221" y="-5" on="0"/>
        <pt x="70" y="-5" on="0"/>
        <pt x="27" y="23" on="1"/>
        <pt x="29" y="132" on="1"/>
        <pt x="63" y="129" on="0"/>
        <pt x="98" y="129" on="0"/>
        <pt x="106" y="130" on="1"/>
        <pt x="171" y="132" on="0"/>
        <pt x="172" y="226" on="1"/>
        <pt x="172" y="732" on="1"/>
        <pt x="312" y="732" on="1"/>
        <pt x="312" y="165" on="1"/>
        <pt x="312" y="134" on="0"/>
        <pt x="307" y="90" on="0"/>
        <pt x="282" y="33" on="0"/>
      </contour>
    </TTGlyph>
    <TTGlyph name="K" xMin="60" yMin="0" xMax="603" yMax="732">
      <contour>
        <pt x="61" y="0" on="1"/>
        <pt x="61" y="732" on="1"/>
        <pt x="195" y="732" on="1"/>
        <pt x="195" y="426" on="1"/>
        <pt x="254" y="426" on="1"/>
        <pt x="440" y="732" on="1"/>
        <pt x="603" y="732" on="1"/>
        <pt x="379" y="365" on="1"/>
        <pt x="603" y="0" on="1"/>
        <pt x="440" y="0" on="1"/>
        <pt x="254" y="302" on="1"/>
        <pt x="196" y="302" on="1"/>
        <pt x="196" y="0" on="1"/>
      </contour>
    </TTGlyph>
    <TTGlyph name="Kcommaaccent" xMin="60" yMin="-281" xMax="603" yMax="732">
      <contour>
        <pt x="253" y="-174" on="1"/>
        <pt x="253" y="-96" on="1"/>
        <pt x="253" y="-72" on="0"/>
        <pt x="275" y="-72" on="1"/>
        <pt x="351" y="-72" on="1"/>
        <pt x="372" y="-72" on="0"/>
        <pt x="372" y="-96" on="1"/>
        <pt x="372" y="-207" on="1"/>
        <pt x="372" y="-235" on="0"/>
        <pt x="349" y="-270" on="0"/>
        <pt x="332" y="-275" on="1"/>
        <pt x="311" y="-281" on="0"/>
        <pt x="278" y="-281" on="0"/>
        <pt x="269" y="-279" on="1"/>
        <pt x="257" y="-276" on="1"/>
        <pt x="257" y="-232" on="1"/>
        <pt x="269" y="-233" on="0"/>
        <pt x="276" y="-229" on="1"/>
        <pt x="285" y="-223" on="0"/>
        <pt x="285" y="-210" on="1"/>
        <pt x="285" y="-197" on="1"/>
        <pt x="275" y="-197" on="1"/>
        <pt x="253" y="-197" on="0"/>
      </contour>
      <contour>
        <pt x="61" y="0" on="1"/>
        <pt x="61" y="732" on="1"/>
        <pt x="195" y="732" on="1"/>
        <pt x="195" y="426" on="1"/>
        <pt x="254" y="426" on="1"/>
        <pt x="440" y="732" on="1"/>
        <pt x="603" y="732" on="1"/>
        <pt x="379" y="365" on="1"/>
        <pt x="603" y="0" on="1"/>
        <pt x="440" y="0" on="1"/>
        <pt x="254" y="302" on="1"/>
        <pt x="196" y="302" on="1"/>
        <pt x="196" y="0" on="1"/>
      </contour>
    </TTGlyph>
    <TTGlyph name="L" xMin="60" yMin="0" xMax="514" yMax="732">
      <contour>
        <pt x="61" y="142" on="1"/>
        <pt x="61" y="732" on="1"/>
        <pt x="201" y="732" on="1"/>
        <pt x="201" y="181" on="1"/>
        <pt x="201" y="143" on="0"/>
        <pt x="222" y="135" on="1"/>
        <pt x="237" y="129" on="0"/>
        <pt x="263" y="129" on="1"/>
        <pt x="514" y="129" on="1"/>
        <pt x="514" y="0" on="1"/>
        <pt x="213" y="0" on="1"/>
        <pt x="61" y="0" on="0"/>
      </contour>
    </TTGlyph>
    <TTGlyph name="Lacute" xMin="60" yMin="0" xMax="514" yMax="936">
      <contour>
        <pt x="85" y="797" on="1"/>
        <pt x="176" y="936" on="1"/>
        <pt x="298" y="936" on="1"/>
        <pt x="176" y="797" on="1"/>
      </contour>
      <contour>
        <pt x="61" y="142" on="1"/>
        <pt x="61" y="732" on="1"/>
        <pt x="201" y="732" on="1"/>
        <pt x="201" y="181" on="1"/>
        <pt x="201" y="143" on="0"/>
        <pt x="222" y="135" on="1"/>
        <pt x="237" y="129" on="0"/>
        <pt x="263" y="129" on="1"/>
        <pt x="514" y="129" on="1"/>
        <pt x="514" y="0" on="1"/>
        <pt x="213" y="0" on="1"/>
        <pt x="61" y="0" on="0"/>
      </contour>
    </TTGlyph>
    <TTGlyph name="Lcaron" xMin="60" yMin="0" xMax="514" yMax="772">
      <contour>
        <pt x="61" y="142" on="1"/>
        <pt x="61" y="732" on="1"/>
        <pt x="201" y="732" on="1"/>
        <pt x="201" y="181" on="1"/>
        <pt x="201" y="143" on="0"/>
        <pt x="222" y="135" on="1"/>
        <pt x="237" y="129" on="0"/>
        <pt x="263" y="129" on="1"/>
        <pt x="514" y="129" on="1"/>
        <pt x="514" y="0" on="1"/>
        <pt x="213" y="0" on="1"/>
        <pt x="61" y="0" on="0"/>
      </contour>
      <contour>
        <pt x="263" y="772" on="1"/>
        <pt x="359" y="772" on="1"/>
        <pt x="359" y="705" on="1"/>
        <pt x="349" y="571" on="1"/>
        <pt x="274" y="571" on="1"/>
        <pt x="263" y="705" on="1"/>
      </contour>
    </TTGlyph>
    <TTGlyph name="Lcommaaccent" xMin="60" yMin="-278" xMax="514" yMax="732">
      <contour>
        <pt x="234" y="-172" on="1"/>
        <pt x="234" y="-93" on="1"/>
        <pt x="234" y="-69" on="0"/>
        <pt x="257" y="-69" on="1"/>
        <pt x="332" y="-69" on="1"/>
        <pt x="354" y="-69" on="0"/>
        <pt x="354" y="-93" on="1"/>
        <pt x="354" y="-204" on="1"/>
        <pt x="354" y="-232" on="0"/>
        <pt x="330" y="-267" on="0"/>
        <pt x="313" y="-272" on="1"/>
        <pt x="292" y="-278" on="0"/>
        <pt x="259" y="-278" on="0"/>
        <pt x="250" y="-276" on="1"/>
        <pt x="239" y="-273" on="1"/>
        <pt x="239" y="-230" on="1"/>
        <pt x="251" y="-230" on="0"/>
        <pt x="258" y="-226" on="1"/>
        <pt x="266" y="-220" on="0"/>
        <pt x="266" y="-207" on="1"/>
        <pt x="266" y="-194" on="1"/>
        <pt x="257" y="-194" on="1"/>
        <pt x="234" y="-194" on="0"/>
      </contour>
      <contour>
        <pt x="61" y="142" on="1"/>
        <pt x="61" y="732" on="1"/>
        <pt x="201" y="732" on="1"/>
        <pt x="201" y="181" on="1"/>
        <pt x="201" y="143" on="0"/>
        <pt x="222" y="135" on="1"/>
        <pt x="237" y="129" on="0"/>
        <pt x="263" y="129" on="1"/>
        <pt x="514" y="129" on="1"/>
        <pt x="514" y="0" on="1"/>
        <pt x="213" y="0" on="1"/>
        <pt x="61" y="0" on="0"/>
      </contour>
    </TTGlyph>
    <TTGlyph name="Lslash" xMin="14" yMin="0" xMax="546" yMax="732">
      <contour>
        <pt x="92" y="732" on="1"/>
        <pt x="232" y="732" on="1"/>
        <pt x="232" y="470" on="1"/>
        <pt x="345" y="518" on="1"/>
        <pt x="344" y="447" on="1"/>
        <pt x="232" y="398" on="1"/>
        <pt x="232" y="181" on="1"/>
        <pt x="232" y="143" on="0"/>
        <pt x="253" y="135" on="1"/>
        <pt x="269" y="129" on="0"/>
        <pt x="294" y="129" on="1"/>
        <pt x="545" y="129" on="1"/>
        <pt x="545" y="0" on="1"/>
        <pt x="245" y="0" on="1"/>
        <pt x="92" y="0" on="0"/>
        <pt x="92" y="142" on="1"/>
        <pt x="92" y="338" on="1"/>
        <pt x="14" y="305" on="1"/>
        <pt x="14" y="377" on="1"/>
        <pt x="92" y="410" on="1"/>
      </contour>
    </TTGlyph>
    <TTGlyph name="M" xMin="41" yMin="0" xMax="807" yMax="732">
      <contour>
        <pt x="42" y="0" on="1"/>
        <pt x="106" y="732" on="1"/>
        <pt x="301" y="732" on="1"/>
        <pt x="423" y="232" on="1"/>
        <pt x="544" y="732" on="1"/>
        <pt x="738" y="732" on="1"/>
        <pt x="806" y="0" on="1"/>
        <pt x="668" y="0" on="1"/>
        <pt x="620" y="489" on="1"/>
        <pt x="502" y="0" on="1"/>
        <pt x="346" y="0" on="1"/>
        <pt x="223" y="489" on="1"/>
        <pt x="180" y="0" on="1"/>
      </contour>
    </TTGlyph>
    <TTGlyph name="M.salt" xMin="41" yMin="0" xMax="818" yMax="737">
      <contour>
        <pt x="77" y="658" on="0"/>
        <pt x="118" y="710" on="0"/>
        <pt x="179" y="735" on="0"/>
        <pt x="232" y="735" on="1"/>
        <pt x="250" y="735" on="0"/>
        <pt x="310" y="713" on="0"/>
        <pt x="353" y="660" on="0"/>
        <pt x="356" y="624" on="1"/>
        <pt x="412" y="308" on="1"/>
        <pt x="414" y="294" on="0"/>
        <pt x="439" y="296" on="0"/>
        <pt x="440" y="308" on="1"/>
        <pt x="490" y="627" on="1"/>
        <pt x="493" y="663" on="0"/>
        <pt x="515" y="688" on="1"/>
        <pt x="556" y="736" on="0"/>
        <pt x="634" y="736" on="1"/>
        <pt x="713" y="736" on="0"/>
        <pt x="754" y="688" on="1"/>
        <pt x="775" y="663" on="0"/>
        <pt x="776" y="630" on="1"/>
        <pt x="817" y="0" on="1"/>
        <pt x="676" y="0" on="1"/>
        <pt x="643" y="565" on="1"/>
        <pt x="643" y="577" on="0"/>
        <pt x="618" y="577" on="0"/>
        <pt x="617" y="564" on="1"/>
        <pt x="565" y="258" on="1"/>
        <pt x="560" y="224" on="0"/>
        <pt x="504" y="177" on="0"/>
        <pt x="447" y="168" on="0"/>
        <pt x="409" y="168" on="0"/>
        <pt x="353" y="176" on="0"/>
        <pt x="297" y="224" on="0"/>
        <pt x="292" y="260" on="1"/>
        <pt x="233" y="570" on="1"/>
        <pt x="232" y="584" on="0"/>
        <pt x="219" y="579" on="1"/>
        <pt x="209" y="574" on="0"/>
        <pt x="207" y="563" on="1"/>
        <pt x="181" y="0" on="1"/>
        <pt x="42" y="0" on="1"/>
        <pt x="76" y="623" on="1"/>
      </contour>
    </TTGlyph>
    <TTGlyph name="N" xMin="60" yMin="0" xMax="634" yMax="732">
      <contour>
        <pt x="61" y="0" on="1"/>
        <pt x="61" y="732" on="1"/>
        <pt x="203" y="732" on="1"/>
        <pt x="493" y="259" on="1"/>
        <pt x="493" y="732" on="1"/>
        <pt x="633" y="732" on="1"/>
        <pt x="633" y="0" on="1"/>
        <pt x="493" y="0" on="1"/>
        <pt x="202" y="468" on="1"/>
        <pt x="202" y="0" on="1"/>
      </contour>
    </TTGlyph>
    <TTGlyph name="N.salt" xMin="60" yMin="-6" xMax="670" yMax="740">
      <contour>
        <pt x="61" y="0" on="1"/>
        <pt x="61" y="606" on="1"/>
        <pt x="61" y="647" on="0"/>
        <pt x="81" y="678" on="1"/>
        <pt x="122" y="739" on="0"/>
        <pt x="210" y="739" on="1"/>
        <pt x="282" y="739" on="0"/>
        <pt x="327" y="694" on="1"/>
        <pt x="352" y="668" on="0"/>
        <pt x="359" y="632" on="1"/>
        <pt x="506" y="137" on="1"/>
        <pt x="509" y="124" on="0"/>
        <pt x="530" y="129" on="0"/>
        <pt x="530" y="140" on="1"/>
        <pt x="530" y="732" on="1"/>
        <pt x="670" y="732" on="1"/>
        <pt x="670" y="126" on="1"/>
        <pt x="670" y="89" on="0"/>
        <pt x="650" y="59" on="1"/>
        <pt x="606" y="-5" on="0"/>
        <pt x="516" y="-5" on="1"/>
        <pt x="449" y="-5" on="0"/>
        <pt x="407" y="39" on="1"/>
        <pt x="382" y="66" on="0"/>
        <pt x="375" y="106" on="1"/>
        <pt x="227" y="606" on="1"/>
        <pt x="225" y="614" on="0"/>
        <pt x="212" y="617" on="0"/>
        <pt x="202" y="607" on="0"/>
        <pt x="202" y="599" on="1"/>
        <pt x="202" y="0" on="1"/>
      </contour>
    </TTGlyph>
    <TTGlyph name="Nacute" xMin="60" yMin="0" xMax="634" yMax="936">
      <contour>
        <pt x="306" y="797" on="1"/>
        <pt x="396" y="936" on="1"/>
        <pt x="519" y="936" on="1"/>
        <pt x="397" y="797" on="1"/>
      </contour>
      <contour>
        <pt x="61" y="0" on="1"/>
        <pt x="61" y="732" on="1"/>
        <pt x="203" y="732" on="1"/>
        <pt x="493" y="259" on="1"/>
        <pt x="493" y="732" on="1"/>
        <pt x="633" y="732" on="1"/>
        <pt x="633" y="0" on="1"/>
        <pt x="493" y="0" on="1"/>
        <pt x="202" y="468" on="1"/>
        <pt x="202" y="0" on="1"/>
      </contour>
    </TTGlyph>
    <TTGlyph name="Nacute.salt" xMin="60" yMin="-6" xMax="670" yMax="938">
      <contour>
        <pt x="317" y="799" on="1"/>
        <pt x="407" y="938" on="1"/>
        <pt x="530" y="938" on="1"/>
        <pt x="408" y="799" on="1"/>
      </contour>
      <contour>
        <pt x="61" y="0" on="1"/>
        <pt x="61" y="606" on="1"/>
        <pt x="61" y="647" on="0"/>
        <pt x="81" y="678" on="1"/>
        <pt x="122" y="739" on="0"/>
        <pt x="210" y="739" on="1"/>
        <pt x="282" y="739" on="0"/>
        <pt x="327" y="694" on="1"/>
        <pt x="352" y="668" on="0"/>
        <pt x="359" y="632" on="1"/>
        <pt x="506" y="137" on="1"/>
        <pt x="509" y="124" on="0"/>
        <pt x="530" y="129" on="0"/>
        <pt x="530" y="140" on="1"/>
        <pt x="530" y="732" on="1"/>
        <pt x="670" y="732" on="1"/>
        <pt x="670" y="126" on="1"/>
        <pt x="670" y="89" on="0"/>
        <pt x="650" y="59" on="1"/>
        <pt x="606" y="-5" on="0"/>
        <pt x="516" y="-5" on="1"/>
        <pt x="449" y="-5" on="0"/>
        <pt x="407" y="39" on="1"/>
        <pt x="382" y="66" on="0"/>
        <pt x="375" y="106" on="1"/>
        <pt x="227" y="606" on="1"/>
        <pt x="223" y="621" on="0"/>
        <pt x="209" y="614" on="1"/>
        <pt x="202" y="610" on="0"/>
        <pt x="202" y="599" on="1"/>
        <pt x="202" y="0" on="1"/>
      </contour>
    </TTGlyph>
    <TTGlyph name="Ncaron" xMin="60" yMin="0" xMax="634" yMax="933">
      <contour>
        <pt x="197" y="932" on="1"/>
        <pt x="291" y="932" on="1"/>
        <pt x="354" y="872" on="1"/>
        <pt x="412" y="932" on="1"/>
        <pt x="506" y="932" on="1"/>
        <pt x="404" y="797" on="1"/>
        <pt x="300" y="797" on="1"/>
      </contour>
      <contour>
        <pt x="61" y="0" on="1"/>
        <pt x="61" y="732" on="1"/>
        <pt x="203" y="732" on="1"/>
        <pt x="493" y="259" on="1"/>
        <pt x="493" y="732" on="1"/>
        <pt x="633" y="732" on="1"/>
        <pt x="633" y="0" on="1"/>
        <pt x="493" y="0" on="1"/>
        <pt x="202" y="468" on="1"/>
        <pt x="202" y="0" on="1"/>
      </contour>
    </TTGlyph>
    <TTGlyph name="Ncaron.salt" xMin="60" yMin="-6" xMax="670" yMax="935">
      <contour>
        <pt x="224" y="935" on="1"/>
        <pt x="317" y="935" on="1"/>
        <pt x="380" y="875" on="1"/>
        <pt x="439" y="935" on="1"/>
        <pt x="532" y="935" on="1"/>
        <pt x="430" y="799" on="1"/>
        <pt x="326" y="799" on="1"/>
      </contour>
      <contour>
        <pt x="61" y="0" on="1"/>
        <pt x="61" y="606" on="1"/>
        <pt x="61" y="647" on="0"/>
        <pt x="81" y="678" on="1"/>
        <pt x="122" y="739" on="0"/>
        <pt x="210" y="739" on="1"/>
        <pt x="282" y="739" on="0"/>
        <pt x="327" y="694" on="1"/>
        <pt x="352" y="668" on="0"/>
        <pt x="359" y="632" on="1"/>
        <pt x="506" y="137" on="1"/>
        <pt x="509" y="124" on="0"/>
        <pt x="530" y="129" on="0"/>
        <pt x="530" y="140" on="1"/>
        <pt x="530" y="732" on="1"/>
        <pt x="670" y="732" on="1"/>
        <pt x="670" y="126" on="1"/>
        <pt x="670" y="89" on="0"/>
        <pt x="650" y="59" on="1"/>
        <pt x="606" y="-5" on="0"/>
        <pt x="516" y="-5" on="1"/>
        <pt x="449" y="-5" on="0"/>
        <pt x="407" y="39" on="1"/>
        <pt x="382" y="66" on="0"/>
        <pt x="375" y="106" on="1"/>
        <pt x="227" y="606" on="1"/>
        <pt x="223" y="621" on="0"/>
        <pt x="209" y="614" on="1"/>
        <pt x="202" y="610" on="0"/>
        <pt x="202" y="599" on="1"/>
        <pt x="202" y="0" on="1"/>
      </contour>
    </TTGlyph>
    <TTGlyph name="Ncommaaccent" xMin="60" yMin="-281" xMax="634" yMax="732">
      <contour>
        <pt x="283" y="-174" on="1"/>
        <pt x="283" y="-96" on="1"/>
        <pt x="283" y="-72" on="0"/>
        <pt x="306" y="-72" on="1"/>
        <pt x="382" y="-72" on="1"/>
        <pt x="403" y="-72" on="0"/>
        <pt x="403" y="-96" on="1"/>
        <pt x="403" y="-207" on="1"/>
        <pt x="403" y="-235" on="0"/>
        <pt x="379" y="-270" on="0"/>
        <pt x="362" y="-275" on="1"/>
        <pt x="342" y="-281" on="0"/>
        <pt x="309" y="-281" on="0"/>
        <pt x="300" y="-279" on="1"/>
        <pt x="288" y="-276" on="1"/>
        <pt x="288" y="-232" on="1"/>
        <pt x="300" y="-233" on="0"/>
        <pt x="307" y="-229" on="1"/>
        <pt x="316" y="-223" on="0"/>
        <pt x="316" y="-210" on="1"/>
        <pt x="316" y="-197" on="1"/>
        <pt x="306" y="-197" on="1"/>
        <pt x="283" y="-197" on="0"/>
      </contour>
      <contour>
        <pt x="61" y="0" on="1"/>
        <pt x="61" y="732" on="1"/>
        <pt x="203" y="732" on="1"/>
        <pt x="493" y="259" on="1"/>
        <pt x="493" y="732" on="1"/>
        <pt x="633" y="732" on="1"/>
        <pt x="633" y="0" on="1"/>
        <pt x="493" y="0" on="1"/>
        <pt x="202" y="468" on="1"/>
        <pt x="202" y="0" on="1"/>
      </contour>
    </TTGlyph>
    <TTGlyph name="Ncommaaccent.salt" xMin="60" yMin="-287" xMax="670" yMax="740">
      <contour>
        <pt x="296" y="-180" on="1"/>
        <pt x="296" y="-102" on="1"/>
        <pt x="296" y="-78" on="0"/>
        <pt x="318" y="-78" on="1"/>
        <pt x="394" y="-78" on="1"/>
        <pt x="416" y="-78" on="0"/>
        <pt x="416" y="-102" on="1"/>
        <pt x="416" y="-213" on="1"/>
        <pt x="416" y="-241" on="0"/>
        <pt x="392" y="-276" on="0"/>
        <pt x="375" y="-280" on="1"/>
        <pt x="354" y="-286" on="0"/>
        <pt x="321" y="-286" on="0"/>
        <pt x="312" y="-285" on="1"/>
        <pt x="300" y="-282" on="1"/>
        <pt x="300" y="-238" on="1"/>
        <pt x="313" y="-239" on="0"/>
        <pt x="319" y="-235" on="1"/>
        <pt x="328" y="-229" on="0"/>
        <pt x="328" y="-215" on="1"/>
        <pt x="328" y="-203" on="1"/>
        <pt x="318" y="-203" on="1"/>
        <pt x="296" y="-203" on="0"/>
      </contour>
      <contour>
        <pt x="61" y="0" on="1"/>
        <pt x="61" y="606" on="1"/>
        <pt x="61" y="647" on="0"/>
        <pt x="81" y="678" on="1"/>
        <pt x="122" y="739" on="0"/>
        <pt x="210" y="739" on="1"/>
        <pt x="282" y="739" on="0"/>
        <pt x="327" y="694" on="1"/>
        <pt x="352" y="668" on="0"/>
        <pt x="359" y="632" on="1"/>
        <pt x="506" y="137" on="1"/>
        <pt x="509" y="124" on="0"/>
        <pt x="530" y="129" on="0"/>
        <pt x="530" y="140" on="1"/>
        <pt x="530" y="732" on="1"/>
        <pt x="670" y="732" on="1"/>
        <pt x="670" y="126" on="1"/>
        <pt x="670" y="89" on="0"/>
        <pt x="650" y="59" on="1"/>
        <pt x="606" y="-5" on="0"/>
        <pt x="516" y="-5" on="1"/>
        <pt x="449" y="-5" on="0"/>
        <pt x="407" y="39" on="1"/>
        <pt x="382" y="66" on="0"/>
        <pt x="375" y="106" on="1"/>
        <pt x="227" y="606" on="1"/>
        <pt x="223" y="621" on="0"/>
        <pt x="209" y="614" on="1"/>
        <pt x="202" y="610" on="0"/>
        <pt x="202" y="599" on="1"/>
        <pt x="202" y="0" on="1"/>
      </contour>
    </TTGlyph>
    <TTGlyph name="Ntilde" xMin="60" yMin="0" xMax="634" yMax="925">
      <contour>
        <pt x="406" y="887" on="1"/>
        <pt x="445" y="887" on="0"/>
        <pt x="495" y="925" on="1"/>
        <pt x="519" y="865" on="1"/>
        <pt x="456" y="797" on="0"/>
        <pt x="407" y="797" on="1"/>
        <pt x="386" y="797" on="0"/>
        <pt x="344" y="816" on="0"/>
        <pt x="309" y="832" on="0"/>
        <pt x="294" y="832" on="0"/>
        <pt x="283" y="832" on="0"/>
        <pt x="265" y="829" on="0"/>
        <pt x="253" y="826" on="0"/>
        <pt x="234" y="817" on="0"/>
        <pt x="226" y="813" on="0"/>
        <pt x="203" y="799" on="0"/>
        <pt x="200" y="797" on="1"/>
        <pt x="175" y="852" on="1"/>
        <pt x="239" y="922" on="0"/>
        <pt x="296" y="922" on="1"/>
        <pt x="321" y="921" on="0"/>
        <pt x="386" y="887" on="0"/>
        <pt x="404" y="887" on="0"/>
      </contour>
      <contour>
        <pt x="61" y="0" on="1"/>
        <pt x="61" y="732" on="1"/>
        <pt x="203" y="732" on="1"/>
        <pt x="493" y="259" on="1"/>
        <pt x="493" y="732" on="1"/>
        <pt x="633" y="732" on="1"/>
        <pt x="633" y="0" on="1"/>
        <pt x="493" y="0" on="1"/>
        <pt x="202" y="468" on="1"/>
        <pt x="202" y="0" on="1"/>
      </contour>
    </TTGlyph>
    <TTGlyph name="Ntilde.salt" xMin="60" yMin="-6" xMax="670" yMax="928">
      <contour>
        <pt x="434" y="889" on="1"/>
        <pt x="473" y="889" on="0"/>
        <pt x="523" y="927" on="1"/>
        <pt x="547" y="868" on="1"/>
        <pt x="485" y="800" on="0"/>
        <pt x="435" y="800" on="1"/>
        <pt x="414" y="800" on="0"/>
        <pt x="373" y="818" on="0"/>
        <pt x="338" y="834" on="0"/>
        <pt x="322" y="834" on="0"/>
        <pt x="312" y="834" on="0"/>
        <pt x="293" y="831" on="0"/>
        <pt x="281" y="828" on="0"/>
        <pt x="262" y="819" on="0"/>
        <pt x="255" y="815" on="0"/>
        <pt x="232" y="801" on="0"/>
        <pt x="228" y="799" on="1"/>
        <pt x="204" y="854" on="1"/>
        <pt x="267" y="924" on="0"/>
        <pt x="324" y="924" on="1"/>
        <pt x="349" y="923" on="0"/>
        <pt x="415" y="889" on="0"/>
        <pt x="433" y="889" on="0"/>
      </contour>
      <contour>
        <pt x="61" y="0" on="1"/>
        <pt x="61" y="606" on="1"/>
        <pt x="61" y="647" on="0"/>
        <pt x="81" y="678" on="1"/>
        <pt x="122" y="739" on="0"/>
        <pt x="210" y="739" on="1"/>
        <pt x="282" y="739" on="0"/>
        <pt x="327" y="694" on="1"/>
        <pt x="352" y="668" on="0"/>
        <pt x="359" y="632" on="1"/>
        <pt x="506" y="137" on="1"/>
        <pt x="509" y="124" on="0"/>
        <pt x="530" y="129" on="0"/>
        <pt x="530" y="140" on="1"/>
        <pt x="530" y="732" on="1"/>
        <pt x="670" y="732" on="1"/>
        <pt x="670" y="126" on="1"/>
        <pt x="670" y="89" on="0"/>
        <pt x="650" y="59" on="1"/>
        <pt x="606" y="-5" on="0"/>
        <pt x="516" y="-5" on="1"/>
        <pt x="449" y="-5" on="0"/>
        <pt x="407" y="39" on="1"/>
        <pt x="382" y="66" on="0"/>
        <pt x="375" y="106" on="1"/>
        <pt x="227" y="606" on="1"/>
        <pt x="223" y="621" on="0"/>
        <pt x="209" y="614" on="1"/>
        <pt x="202" y="610" on="0"/>
        <pt x="202" y="599" on="1"/>
        <pt x="202" y="0" on="1"/>
      </contour>
    </TTGlyph>
    <TTGlyph name="O" xMin="49" yMin="-3" xMax="638" yMax="737">
      <contour>
        <pt x="58" y="216" on="0"/>
        <pt x="50" y="306" on="0"/>
        <pt x="50" y="433" on="0"/>
        <pt x="65" y="546" on="0"/>
        <pt x="91" y="625" on="0"/>
        <pt x="135" y="681" on="0"/>
        <pt x="180" y="713" on="0"/>
        <pt x="213" y="722" on="1"/>
        <pt x="265" y="737" on="0"/>
        <pt x="380" y="737" on="0"/>
        <pt x="433" y="733" on="0"/>
        <pt x="492" y="720" on="0"/>
        <pt x="534" y="696" on="0"/>
        <pt x="577" y="659" on="0"/>
        <pt x="605" y="602" on="0"/>
        <pt x="616" y="565" on="1"/>
        <pt x="638" y="491" on="0"/>
        <pt x="638" y="293" on="0"/>
        <pt x="623" y="186" on="0"/>
        <pt x="599" y="109" on="0"/>
        <pt x="558" y="54" on="0"/>
        <pt x="513" y="21" on="0"/>
        <pt x="481" y="12" on="1"/>
        <pt x="407" y="-10" on="0"/>
        <pt x="286" y="-2" on="1"/>
        <pt x="224" y="1" on="0"/>
        <pt x="168" y="25" on="0"/>
        <pt x="127" y="52" on="0"/>
        <pt x="99" y="91" on="0"/>
        <pt x="73" y="146" on="0"/>
      </contour>
      <contour>
        <pt x="196" y="485" on="0"/>
        <pt x="190" y="411" on="0"/>
        <pt x="190" y="299" on="0"/>
        <pt x="198" y="220" on="0"/>
        <pt x="217" y="164" on="0"/>
        <pt x="236" y="150" on="1"/>
        <pt x="270" y="125" on="0"/>
        <pt x="344" y="125" on="1"/>
        <pt x="414" y="125" on="0"/>
        <pt x="449" y="151" on="1"/>
        <pt x="498" y="188" on="0"/>
        <pt x="498" y="361" on="1"/>
        <pt x="498" y="478" on="0"/>
        <pt x="473" y="554" on="0"/>
        <pt x="452" y="586" on="0"/>
        <pt x="433" y="595" on="1"/>
        <pt x="402" y="608" on="0"/>
        <pt x="318" y="608" on="0"/>
        <pt x="285" y="605" on="0"/>
        <pt x="248" y="595" on="0"/>
        <pt x="227" y="574" on="0"/>
        <pt x="206" y="538" on="0"/>
      </contour>
    </TTGlyph>
    <TTGlyph name="OE" xMin="49" yMin="-4" xMax="968" yMax="738">
      <contour>
        <pt x="196" y="485" on="0"/>
        <pt x="190" y="411" on="0"/>
        <pt x="190" y="299" on="0"/>
        <pt x="198" y="220" on="0"/>
        <pt x="217" y="164" on="0"/>
        <pt x="236" y="150" on="1"/>
        <pt x="270" y="125" on="0"/>
        <pt x="405" y="125" on="0"/>
        <pt x="468" y="161" on="0"/>
        <pt x="497" y="262" on="0"/>
        <pt x="497" y="418" on="0"/>
        <pt x="490" y="499" on="0"/>
        <pt x="473" y="554" on="0"/>
        <pt x="452" y="586" on="0"/>
        <pt x="432" y="595" on="1"/>
        <pt x="402" y="608" on="0"/>
        <pt x="317" y="608" on="0"/>
        <pt x="284" y="605" on="0"/>
        <pt x="248" y="595" on="0"/>
        <pt x="227" y="574" on="0"/>
        <pt x="206" y="538" on="0"/>
      </contour>
      <contour>
        <pt x="58" y="216" on="0"/>
        <pt x="50" y="306" on="0"/>
        <pt x="50" y="433" on="0"/>
        <pt x="65" y="546" on="0"/>
        <pt x="91" y="625" on="0"/>
        <pt x="134" y="681" on="0"/>
        <pt x="180" y="713" on="0"/>
        <pt x="212" y="722" on="1"/>
        <pt x="264" y="737" on="0"/>
        <pt x="388" y="737" on="0"/>
        <pt x="419" y="734" on="1"/>
        <pt x="494" y="726" on="0"/>
        <pt x="538" y="687" on="1"/>
        <pt x="573" y="732" on="0"/>
        <pt x="644" y="732" on="1"/>
        <pt x="650" y="732" on="0"/>
        <pt x="903" y="725" on="0"/>
        <pt x="968" y="716" on="1"/>
        <pt x="968" y="600" on="1"/>
        <pt x="689" y="600" on="1"/>
        <pt x="652" y="600" on="0"/>
        <pt x="643" y="582" on="1"/>
        <pt x="637" y="568" on="0"/>
        <pt x="637" y="544" on="1"/>
        <pt x="637" y="430" on="1"/>
        <pt x="922" y="420" on="1"/>
        <pt x="922" y="304" on="1"/>
        <pt x="637" y="295" on="1"/>
        <pt x="637" y="181" on="1"/>
        <pt x="637" y="143" on="0"/>
        <pt x="658" y="135" on="1"/>
        <pt x="674" y="129" on="0"/>
        <pt x="699" y="129" on="1"/>
        <pt x="968" y="129" on="1"/>
        <pt x="968" y="14" on="1"/>
        <pt x="917" y="7" on="0"/>
        <pt x="729" y="0" on="1"/>
        <pt x="666" y="-3" on="1"/>
        <pt x="657" y="-3" on="0"/>
        <pt x="649" y="-3" on="1"/>
        <pt x="569" y="-3" on="0"/>
        <pt x="534" y="42" on="1"/>
        <pt x="500" y="16" on="0"/>
        <pt x="409" y="-4" on="0"/>
        <pt x="311" y="-4" on="0"/>
        <pt x="261" y="-1" on="0"/>
        <pt x="207" y="8" on="0"/>
        <pt x="167" y="25" on="0"/>
        <pt x="127" y="52" on="0"/>
        <pt x="99" y="91" on="0"/>
        <pt x="73" y="146" on="0"/>
      </contour>
    </TTGlyph>
    <TTGlyph name="Oacute" xMin="49" yMin="-3" xMax="638" yMax="936">
      <contour>
        <pt x="299" y="797" on="1"/>
        <pt x="389" y="936" on="1"/>
        <pt x="512" y="936" on="1"/>
        <pt x="390" y="797" on="1"/>
      </contour>
      <contour>
        <pt x="58" y="216" on="0"/>
        <pt x="50" y="306" on="0"/>
        <pt x="50" y="433" on="0"/>
        <pt x="65" y="546" on="0"/>
        <pt x="91" y="625" on="0"/>
        <pt x="135" y="681" on="0"/>
        <pt x="180" y="713" on="0"/>
        <pt x="213" y="722" on="1"/>
        <pt x="265" y="737" on="0"/>
        <pt x="380" y="737" on="0"/>
        <pt x="433" y="733" on="0"/>
        <pt x="492" y="720" on="0"/>
        <pt x="534" y="696" on="0"/>
        <pt x="577" y="659" on="0"/>
        <pt x="605" y="602" on="0"/>
        <pt x="616" y="565" on="1"/>
        <pt x="638" y="491" on="0"/>
        <pt x="638" y="293" on="0"/>
        <pt x="623" y="186" on="0"/>
        <pt x="599" y="109" on="0"/>
        <pt x="558" y="54" on="0"/>
        <pt x="513" y="21" on="0"/>
        <pt x="481" y="12" on="1"/>
        <pt x="407" y="-10" on="0"/>
        <pt x="286" y="-2" on="1"/>
        <pt x="224" y="1" on="0"/>
        <pt x="168" y="25" on="0"/>
        <pt x="127" y="52" on="0"/>
        <pt x="99" y="91" on="0"/>
        <pt x="73" y="146" on="0"/>
      </contour>
      <contour>
        <pt x="196" y="485" on="0"/>
        <pt x="190" y="411" on="0"/>
        <pt x="190" y="299" on="0"/>
        <pt x="198" y="220" on="0"/>
        <pt x="217" y="164" on="0"/>
        <pt x="236" y="150" on="1"/>
        <pt x="270" y="125" on="0"/>
        <pt x="344" y="125" on="1"/>
        <pt x="414" y="125" on="0"/>
        <pt x="449" y="151" on="1"/>
        <pt x="498" y="188" on="0"/>
        <pt x="498" y="361" on="1"/>
        <pt x="498" y="478" on="0"/>
        <pt x="473" y="554" on="0"/>
        <pt x="452" y="586" on="0"/>
        <pt x="433" y="595" on="1"/>
        <pt x="402" y="608" on="0"/>
        <pt x="318" y="608" on="0"/>
        <pt x="285" y="605" on="0"/>
        <pt x="248" y="595" on="0"/>
        <pt x="227" y="574" on="0"/>
        <pt x="206" y="538" on="0"/>
      </contour>
    </TTGlyph>
    <TTGlyph name="Ocircumflex" xMin="49" yMin="-3" xMax="638" yMax="933">
      <contour>
        <pt x="190" y="797" on="1"/>
        <pt x="297" y="932" on="1"/>
        <pt x="401" y="932" on="1"/>
        <pt x="498" y="797" on="1"/>
        <pt x="405" y="797" on="1"/>
        <pt x="346" y="857" on="1"/>
        <pt x="284" y="797" on="1"/>
      </contour>
      <contour>
        <pt x="58" y="216" on="0"/>
        <pt x="50" y="306" on="0"/>
        <pt x="50" y="433" on="0"/>
        <pt x="65" y="546" on="0"/>
        <pt x="91" y="625" on="0"/>
        <pt x="135" y="681" on="0"/>
        <pt x="180" y="713" on="0"/>
        <pt x="213" y="722" on="1"/>
        <pt x="265" y="737" on="0"/>
        <pt x="380" y="737" on="0"/>
        <pt x="433" y="733" on="0"/>
        <pt x="492" y="720" on="0"/>
        <pt x="534" y="696" on="0"/>
        <pt x="577" y="659" on="0"/>
        <pt x="605" y="602" on="0"/>
        <pt x="616" y="565" on="1"/>
        <pt x="638" y="491" on="0"/>
        <pt x="638" y="293" on="0"/>
        <pt x="623" y="186" on="0"/>
        <pt x="599" y="109" on="0"/>
        <pt x="558" y="54" on="0"/>
        <pt x="513" y="21" on="0"/>
        <pt x="481" y="12" on="1"/>
        <pt x="407" y="-10" on="0"/>
        <pt x="286" y="-2" on="1"/>
        <pt x="224" y="1" on="0"/>
        <pt x="168" y="25" on="0"/>
        <pt x="127" y="52" on="0"/>
        <pt x="99" y="91" on="0"/>
        <pt x="73" y="146" on="0"/>
      </contour>
      <contour>
        <pt x="196" y="485" on="0"/>
        <pt x="190" y="411" on="0"/>
        <pt x="190" y="299" on="0"/>
        <pt x="198" y="220" on="0"/>
        <pt x="217" y="164" on="0"/>
        <pt x="236" y="150" on="1"/>
        <pt x="270" y="125" on="0"/>
        <pt x="344" y="125" on="1"/>
        <pt x="414" y="125" on="0"/>
        <pt x="449" y="151" on="1"/>
        <pt x="498" y="188" on="0"/>
        <pt x="498" y="361" on="1"/>
        <pt x="498" y="478" on="0"/>
        <pt x="473" y="554" on="0"/>
        <pt x="452" y="586" on="0"/>
        <pt x="433" y="595" on="1"/>
        <pt x="402" y="608" on="0"/>
        <pt x="318" y="608" on="0"/>
        <pt x="285" y="605" on="0"/>
        <pt x="248" y="595" on="0"/>
        <pt x="227" y="574" on="0"/>
        <pt x="206" y="538" on="0"/>
      </contour>
    </TTGlyph>
    <TTGlyph name="Odieresis" xMin="49" yMin="-3" xMax="638" yMax="915">
      <contour>
        <pt x="158" y="840" on="0"/>
        <pt x="158" y="872" on="0"/>
        <pt x="166" y="886" on="1"/>
        <pt x="183" y="915" on="0"/>
        <pt x="241" y="914" on="0"/>
        <pt x="275" y="881" on="0"/>
        <pt x="275" y="832" on="0"/>
        <pt x="241" y="797" on="0"/>
        <pt x="201" y="797" on="0"/>
        <pt x="174" y="813" on="0"/>
      </contour>
      <contour>
        <pt x="448" y="797" on="0"/>
        <pt x="413" y="832" on="0"/>
        <pt x="413" y="872" on="0"/>
        <pt x="421" y="886" on="1"/>
        <pt x="438" y="914" on="0"/>
        <pt x="496" y="914" on="0"/>
        <pt x="530" y="881" on="0"/>
        <pt x="530" y="832" on="0"/>
        <pt x="496" y="797" on="0"/>
      </contour>
      <contour>
        <pt x="58" y="216" on="0"/>
        <pt x="50" y="306" on="0"/>
        <pt x="50" y="433" on="0"/>
        <pt x="65" y="546" on="0"/>
        <pt x="91" y="625" on="0"/>
        <pt x="135" y="681" on="0"/>
        <pt x="180" y="713" on="0"/>
        <pt x="213" y="722" on="1"/>
        <pt x="265" y="737" on="0"/>
        <pt x="380" y="737" on="0"/>
        <pt x="433" y="733" on="0"/>
        <pt x="492" y="720" on="0"/>
        <pt x="534" y="696" on="0"/>
        <pt x="577" y="659" on="0"/>
        <pt x="605" y="602" on="0"/>
        <pt x="616" y="565" on="1"/>
        <pt x="638" y="491" on="0"/>
        <pt x="638" y="293" on="0"/>
        <pt x="623" y="186" on="0"/>
        <pt x="599" y="109" on="0"/>
        <pt x="558" y="54" on="0"/>
        <pt x="513" y="21" on="0"/>
        <pt x="481" y="12" on="1"/>
        <pt x="407" y="-10" on="0"/>
        <pt x="286" y="-2" on="1"/>
        <pt x="224" y="1" on="0"/>
        <pt x="168" y="25" on="0"/>
        <pt x="127" y="52" on="0"/>
        <pt x="99" y="91" on="0"/>
        <pt x="73" y="146" on="0"/>
      </contour>
      <contour>
        <pt x="196" y="485" on="0"/>
        <pt x="190" y="411" on="0"/>
        <pt x="190" y="299" on="0"/>
        <pt x="198" y="220" on="0"/>
        <pt x="217" y="164" on="0"/>
        <pt x="236" y="150" on="1"/>
        <pt x="270" y="125" on="0"/>
        <pt x="344" y="125" on="1"/>
        <pt x="414" y="125" on="0"/>
        <pt x="449" y="151" on="1"/>
        <pt x="498" y="188" on="0"/>
        <pt x="498" y="361" on="1"/>
        <pt x="498" y="478" on="0"/>
        <pt x="473" y="554" on="0"/>
        <pt x="452" y="586" on="0"/>
        <pt x="433" y="595" on="1"/>
        <pt x="402" y="608" on="0"/>
        <pt x="318" y="608" on="0"/>
        <pt x="285" y="605" on="0"/>
        <pt x="248" y="595" on="0"/>
        <pt x="227" y="574" on="0"/>
        <pt x="206" y="538" on="0"/>
      </contour>
    </TTGlyph>
    <TTGlyph name="Ograve" xMin="49" yMin="-3" xMax="638" yMax="936">
      <contour>
        <pt x="177" y="936" on="1"/>
        <pt x="299" y="936" on="1"/>
        <pt x="390" y="797" on="1"/>
        <pt x="299" y="797" on="1"/>
      </contour>
      <contour>
        <pt x="58" y="216" on="0"/>
        <pt x="50" y="306" on="0"/>
        <pt x="50" y="433" on="0"/>
        <pt x="65" y="546" on="0"/>
        <pt x="91" y="625" on="0"/>
        <pt x="135" y="681" on="0"/>
        <pt x="180" y="713" on="0"/>
        <pt x="213" y="722" on="1"/>
        <pt x="265" y="737" on="0"/>
        <pt x="380" y="737" on="0"/>
        <pt x="433" y="733" on="0"/>
        <pt x="492" y="720" on="0"/>
        <pt x="534" y="696" on="0"/>
        <pt x="577" y="659" on="0"/>
        <pt x="605" y="602" on="0"/>
        <pt x="616" y="565" on="1"/>
        <pt x="638" y="491" on="0"/>
        <pt x="638" y="293" on="0"/>
        <pt x="623" y="186" on="0"/>
        <pt x="599" y="109" on="0"/>
        <pt x="558" y="54" on="0"/>
        <pt x="513" y="21" on="0"/>
        <pt x="481" y="12" on="1"/>
        <pt x="407" y="-10" on="0"/>
        <pt x="286" y="-2" on="1"/>
        <pt x="224" y="1" on="0"/>
        <pt x="168" y="25" on="0"/>
        <pt x="127" y="52" on="0"/>
        <pt x="99" y="91" on="0"/>
        <pt x="73" y="146" on="0"/>
      </contour>
      <contour>
        <pt x="196" y="485" on="0"/>
        <pt x="190" y="411" on="0"/>
        <pt x="190" y="299" on="0"/>
        <pt x="198" y="220" on="0"/>
        <pt x="217" y="164" on="0"/>
        <pt x="236" y="150" on="1"/>
        <pt x="270" y="125" on="0"/>
        <pt x="344" y="125" on="1"/>
        <pt x="414" y="125" on="0"/>
        <pt x="449" y="151" on="1"/>
        <pt x="498" y="188" on="0"/>
        <pt x="498" y="361" on="1"/>
        <pt x="498" y="478" on="0"/>
        <pt x="473" y="554" on="0"/>
        <pt x="452" y="586" on="0"/>
        <pt x="433" y="595" on="1"/>
        <pt x="402" y="608" on="0"/>
        <pt x="318" y="608" on="0"/>
        <pt x="285" y="605" on="0"/>
        <pt x="248" y="595" on="0"/>
        <pt x="227" y="574" on="0"/>
        <pt x="206" y="538" on="0"/>
      </contour>
    </TTGlyph>
    <TTGlyph name="Ohungarumlaut" xMin="49" yMin="-3" xMax="638" yMax="936">
      <contour>
        <pt x="221" y="797" on="1"/>
        <pt x="311" y="936" on="1"/>
        <pt x="434" y="936" on="1"/>
        <pt x="312" y="797" on="1"/>
      </contour>
      <contour>
        <pt x="376" y="797" on="1"/>
        <pt x="467" y="936" on="1"/>
        <pt x="590" y="936" on="1"/>
        <pt x="468" y="797" on="1"/>
      </contour>
      <contour>
        <pt x="58" y="216" on="0"/>
        <pt x="50" y="306" on="0"/>
        <pt x="50" y="433" on="0"/>
        <pt x="65" y="546" on="0"/>
        <pt x="91" y="625" on="0"/>
        <pt x="135" y="681" on="0"/>
        <pt x="180" y="713" on="0"/>
        <pt x="213" y="722" on="1"/>
        <pt x="265" y="737" on="0"/>
        <pt x="380" y="737" on="0"/>
        <pt x="433" y="733" on="0"/>
        <pt x="492" y="720" on="0"/>
        <pt x="534" y="696" on="0"/>
        <pt x="577" y="659" on="0"/>
        <pt x="605" y="602" on="0"/>
        <pt x="616" y="565" on="1"/>
        <pt x="638" y="491" on="0"/>
        <pt x="638" y="293" on="0"/>
        <pt x="623" y="186" on="0"/>
        <pt x="599" y="109" on="0"/>
        <pt x="558" y="54" on="0"/>
        <pt x="513" y="21" on="0"/>
        <pt x="481" y="12" on="1"/>
        <pt x="407" y="-10" on="0"/>
        <pt x="286" y="-2" on="1"/>
        <pt x="224" y="1" on="0"/>
        <pt x="168" y="25" on="0"/>
        <pt x="127" y="52" on="0"/>
        <pt x="99" y="91" on="0"/>
        <pt x="73" y="146" on="0"/>
      </contour>
      <contour>
        <pt x="196" y="485" on="0"/>
        <pt x="190" y="411" on="0"/>
        <pt x="190" y="299" on="0"/>
        <pt x="198" y="220" on="0"/>
        <pt x="217" y="164" on="0"/>
        <pt x="236" y="150" on="1"/>
        <pt x="270" y="125" on="0"/>
        <pt x="344" y="125" on="1"/>
        <pt x="414" y="125" on="0"/>
        <pt x="449" y="151" on="1"/>
        <pt x="498" y="188" on="0"/>
        <pt x="498" y="361" on="1"/>
        <pt x="498" y="478" on="0"/>
        <pt x="473" y="554" on="0"/>
        <pt x="452" y="586" on="0"/>
        <pt x="433" y="595" on="1"/>
        <pt x="402" y="608" on="0"/>
        <pt x="318" y="608" on="0"/>
        <pt x="285" y="605" on="0"/>
        <pt x="248" y="595" on="0"/>
        <pt x="227" y="574" on="0"/>
        <pt x="206" y="538" on="0"/>
      </contour>
    </TTGlyph>
    <TTGlyph name="Omacron" xMin="49" yMin="-3" xMax="638" yMax="877">
      <contour>
        <pt x="198" y="797" on="1"/>
        <pt x="198" y="876" on="1"/>
        <pt x="490" y="876" on="1"/>
        <pt x="490" y="797" on="1"/>
      </contour>
      <contour>
        <pt x="58" y="216" on="0"/>
        <pt x="50" y="306" on="0"/>
        <pt x="50" y="433" on="0"/>
        <pt x="65" y="546" on="0"/>
        <pt x="91" y="625" on="0"/>
        <pt x="135" y="681" on="0"/>
        <pt x="180" y="713" on="0"/>
        <pt x="213" y="722" on="1"/>
        <pt x="265" y="737" on="0"/>
        <pt x="380" y="737" on="0"/>
        <pt x="433" y="733" on="0"/>
        <pt x="492" y="720" on="0"/>
        <pt x="534" y="696" on="0"/>
        <pt x="577" y="659" on="0"/>
        <pt x="605" y="602" on="0"/>
        <pt x="616" y="565" on="1"/>
        <pt x="638" y="491" on="0"/>
        <pt x="638" y="293" on="0"/>
        <pt x="623" y="186" on="0"/>
        <pt x="599" y="109" on="0"/>
        <pt x="558" y="54" on="0"/>
        <pt x="513" y="21" on="0"/>
        <pt x="481" y="12" on="1"/>
        <pt x="407" y="-10" on="0"/>
        <pt x="286" y="-2" on="1"/>
        <pt x="224" y="1" on="0"/>
        <pt x="168" y="25" on="0"/>
        <pt x="127" y="52" on="0"/>
        <pt x="99" y="91" on="0"/>
        <pt x="73" y="146" on="0"/>
      </contour>
      <contour>
        <pt x="196" y="485" on="0"/>
        <pt x="190" y="411" on="0"/>
        <pt x="190" y="299" on="0"/>
        <pt x="198" y="220" on="0"/>
        <pt x="217" y="164" on="0"/>
        <pt x="236" y="150" on="1"/>
        <pt x="270" y="125" on="0"/>
        <pt x="344" y="125" on="1"/>
        <pt x="414" y="125" on="0"/>
        <pt x="449" y="151" on="1"/>
        <pt x="498" y="188" on="0"/>
        <pt x="498" y="361" on="1"/>
        <pt x="498" y="478" on="0"/>
        <pt x="473" y="554" on="0"/>
        <pt x="452" y="586" on="0"/>
        <pt x="433" y="595" on="1"/>
        <pt x="402" y="608" on="0"/>
        <pt x="318" y="608" on="0"/>
        <pt x="285" y="605" on="0"/>
        <pt x="248" y="595" on="0"/>
        <pt x="227" y="574" on="0"/>
        <pt x="206" y="538" on="0"/>
      </contour>
    </TTGlyph>
    <TTGlyph name="Omega" xMin="49" yMin="0" xMax="715" yMax="740">
      <contour>
        <pt x="91" y="581" on="1"/>
        <pt x="115" y="628" on="0"/>
        <pt x="188" y="696" on="0"/>
        <pt x="307" y="739" on="0"/>
        <pt x="434" y="739" on="0"/>
        <pt x="523" y="719" on="0"/>
        <pt x="589" y="684" on="0"/>
        <pt x="641" y="633" on="0"/>
        <pt x="676" y="573" on="0"/>
        <pt x="688" y="538" on="1"/>
        <pt x="710" y="471" on="0"/>
        <pt x="710" y="297" on="0"/>
        <pt x="666" y="177" on="0"/>
        <pt x="609" y="127" on="1"/>
        <pt x="715" y="117" on="1"/>
        <pt x="715" y="0" on="1"/>
        <pt x="465" y="0" on="1"/>
        <pt x="465" y="128" on="1"/>
        <pt x="530" y="178" on="0"/>
        <pt x="570" y="292" on="0"/>
        <pt x="570" y="385" on="1"/>
        <pt x="570" y="568" on="0"/>
        <pt x="442" y="603" on="1"/>
        <pt x="415" y="610" on="0"/>
        <pt x="336" y="610" on="0"/>
        <pt x="265" y="582" on="0"/>
        <pt x="224" y="538" on="0"/>
        <pt x="211" y="506" on="1"/>
        <pt x="189" y="453" on="0"/>
        <pt x="189" y="343" on="0"/>
        <pt x="192" y="297" on="0"/>
        <pt x="204" y="243" on="0"/>
        <pt x="216" y="222" on="1"/>
        <pt x="242" y="175" on="0"/>
        <pt x="297" y="128" on="1"/>
        <pt x="297" y="0" on="1"/>
        <pt x="55" y="0" on="1"/>
        <pt x="55" y="118" on="1"/>
        <pt x="166" y="128" on="1"/>
        <pt x="96" y="173" on="0"/>
        <pt x="49" y="298" on="0"/>
        <pt x="49" y="499" on="0"/>
      </contour>
    </TTGlyph>
    <TTGlyph name="Oslash" xMin="52" yMin="-4" xMax="643" yMax="738">
      <contour>
        <pt x="117" y="653" on="1"/>
        <pt x="139" y="681" on="0"/>
        <pt x="184" y="713" on="0"/>
        <pt x="216" y="722" on="1"/>
        <pt x="269" y="737" on="0"/>
        <pt x="349" y="737" on="1"/>
        <pt x="474" y="737" on="0"/>
        <pt x="531" y="701" on="1"/>
        <pt x="553" y="732" on="1"/>
        <pt x="628" y="732" on="1"/>
        <pt x="577" y="659" on="1"/>
        <pt x="643" y="572" on="0"/>
        <pt x="643" y="361" on="1"/>
        <pt x="643" y="161" on="0"/>
        <pt x="583" y="82" on="1"/>
        <pt x="544" y="29" on="0"/>
        <pt x="485" y="12" on="1"/>
        <pt x="431" y="-4" on="0"/>
        <pt x="281" y="-4" on="0"/>
        <pt x="188" y="13" on="0"/>
        <pt x="153" y="37" on="1"/>
        <pt x="127" y="0" on="1"/>
        <pt x="53" y="0" on="1"/>
        <pt x="110" y="83" on="1"/>
        <pt x="55" y="166" on="0"/>
        <pt x="55" y="572" on="0"/>
      </contour>
      <contour>
        <pt x="201" y="485" on="0"/>
        <pt x="195" y="411" on="0"/>
        <pt x="195" y="267" on="0"/>
        <pt x="209" y="225" on="1"/>
        <pt x="452" y="587" on="1"/>
        <pt x="425" y="608" on="0"/>
        <pt x="349" y="608" on="1"/>
        <pt x="266" y="608" on="0"/>
        <pt x="242" y="584" on="1"/>
        <pt x="214" y="556" on="0"/>
      </contour>
      <contour>
        <pt x="349" y="125" on="1"/>
        <pt x="395" y="125" on="0"/>
        <pt x="450" y="143" on="0"/>
        <pt x="488" y="196" on="0"/>
        <pt x="503" y="286" on="0"/>
        <pt x="503" y="476" on="0"/>
        <pt x="484" y="526" on="1"/>
        <pt x="236" y="156" on="1"/>
        <pt x="267" y="125" on="0"/>
      </contour>
    </TTGlyph>
    <TTGlyph name="Otilde" xMin="49" yMin="-3" xMax="638" yMax="925">
      <contour>
        <pt x="403" y="887" on="1"/>
        <pt x="442" y="887" on="0"/>
        <pt x="492" y="925" on="1"/>
        <pt x="516" y="865" on="1"/>
        <pt x="454" y="797" on="0"/>
        <pt x="404" y="797" on="1"/>
        <pt x="378" y="797" on="0"/>
        <pt x="309" y="832" on="0"/>
        <pt x="281" y="832" on="0"/>
        <pt x="262" y="829" on="0"/>
        <pt x="250" y="826" on="0"/>
        <pt x="231" y="817" on="0"/>
        <pt x="223" y="813" on="0"/>
        <pt x="200" y="799" on="0"/>
        <pt x="197" y="797" on="1"/>
        <pt x="172" y="852" on="1"/>
        <pt x="236" y="922" on="0"/>
        <pt x="293" y="922" on="1"/>
        <pt x="318" y="921" on="0"/>
        <pt x="384" y="887" on="0"/>
        <pt x="401" y="887" on="0"/>
      </contour>
      <contour>
        <pt x="58" y="216" on="0"/>
        <pt x="50" y="306" on="0"/>
        <pt x="50" y="433" on="0"/>
        <pt x="65" y="546" on="0"/>
        <pt x="91" y="625" on="0"/>
        <pt x="135" y="681" on="0"/>
        <pt x="180" y="713" on="0"/>
        <pt x="213" y="722" on="1"/>
        <pt x="265" y="737" on="0"/>
        <pt x="380" y="737" on="0"/>
        <pt x="433" y="733" on="0"/>
        <pt x="492" y="720" on="0"/>
        <pt x="534" y="696" on="0"/>
        <pt x="577" y="659" on="0"/>
        <pt x="605" y="602" on="0"/>
        <pt x="616" y="565" on="1"/>
        <pt x="638" y="491" on="0"/>
        <pt x="638" y="293" on="0"/>
        <pt x="623" y="186" on="0"/>
        <pt x="599" y="109" on="0"/>
        <pt x="558" y="54" on="0"/>
        <pt x="513" y="21" on="0"/>
        <pt x="481" y="12" on="1"/>
        <pt x="407" y="-10" on="0"/>
        <pt x="286" y="-2" on="1"/>
        <pt x="224" y="1" on="0"/>
        <pt x="168" y="25" on="0"/>
        <pt x="127" y="52" on="0"/>
        <pt x="99" y="91" on="0"/>
        <pt x="73" y="146" on="0"/>
      </contour>
      <contour>
        <pt x="196" y="485" on="0"/>
        <pt x="190" y="411" on="0"/>
        <pt x="190" y="299" on="0"/>
        <pt x="198" y="220" on="0"/>
        <pt x="217" y="164" on="0"/>
        <pt x="236" y="150" on="1"/>
        <pt x="270" y="125" on="0"/>
        <pt x="344" y="125" on="1"/>
        <pt x="414" y="125" on="0"/>
        <pt x="449" y="151" on="1"/>
        <pt x="498" y="188" on="0"/>
        <pt x="498" y="361" on="1"/>
        <pt x="498" y="478" on="0"/>
        <pt x="473" y="554" on="0"/>
        <pt x="452" y="586" on="0"/>
        <pt x="433" y="595" on="1"/>
        <pt x="402" y="608" on="0"/>
        <pt x="318" y="608" on="0"/>
        <pt x="285" y="605" on="0"/>
        <pt x="248" y="595" on="0"/>
        <pt x="227" y="574" on="0"/>
        <pt x="206" y="538" on="0"/>
      </contour>
    </TTGlyph>
    <TTGlyph name="P" xMin="51" yMin="0" xMax="570" yMax="732">
      <contour>
        <pt x="51" y="0" on="1"/>
        <pt x="51" y="732" on="1"/>
        <pt x="366" y="732" on="1"/>
        <pt x="475" y="732" on="0"/>
        <pt x="524" y="671" on="1"/>
        <pt x="569" y="616" on="0"/>
        <pt x="569" y="506" on="1"/>
        <pt x="569" y="442" on="0"/>
        <pt x="542" y="350" on="0"/>
        <pt x="503" y="301" on="0"/>
        <pt x="473" y="288" on="1"/>
        <pt x="434" y="270" on="0"/>
        <pt x="386" y="270" on="1"/>
        <pt x="351" y="270" on="0"/>
        <pt x="195" y="288" on="0"/>
        <pt x="191" y="290" on="1"/>
        <pt x="191" y="0" on="1"/>
      </contour>
      <contour>
        <pt x="355" y="608" on="1"/>
        <pt x="191" y="608" on="1"/>
        <pt x="191" y="394" on="1"/>
        <pt x="355" y="394" on="1"/>
        <pt x="379" y="394" on="0"/>
        <pt x="394" y="403" on="1"/>
        <pt x="428" y="423" on="0"/>
        <pt x="428" y="505" on="1"/>
        <pt x="427" y="608" on="0"/>
      </contour>
    </TTGlyph>
    <TTGlyph name="Q" xMin="49" yMin="-181" xMax="638" yMax="737">
      <contour>
        <pt x="50" y="299" on="0"/>
        <pt x="50" y="417" on="0"/>
        <pt x="59" y="511" on="0"/>
        <pt x="75" y="583" on="0"/>
        <pt x="101" y="639" on="0"/>
        <pt x="130" y="679" on="0"/>
        <pt x="172" y="707" on="0"/>
        <pt x="211" y="724" on="0"/>
        <pt x="238" y="729" on="1"/>
        <pt x="282" y="737" on="0"/>
        <pt x="379" y="737" on="0"/>
        <pt x="432" y="733" on="0"/>
        <pt x="491" y="720" on="0"/>
        <pt x="534" y="696" on="0"/>
        <pt x="576" y="659" on="0"/>
        <pt x="604" y="602" on="0"/>
        <pt x="616" y="565" on="1"/>
        <pt x="638" y="491" on="0"/>
        <pt x="638" y="361" on="1"/>
        <pt x="638" y="194" on="0"/>
        <pt x="592" y="104" on="1"/>
        <pt x="568" y="57" on="0"/>
        <pt x="516" y="27" on="1"/>
        <pt x="463" y="-3" on="0"/>
        <pt x="343" y="-4" on="1"/>
        <pt x="221" y="-4" on="0"/>
        <pt x="171" y="24" on="1"/>
        <pt x="117" y="53" on="0"/>
        <pt x="95" y="99" on="1"/>
        <pt x="63" y="163" on="0"/>
      </contour>
      <contour>
        <pt x="196" y="485" on="0"/>
        <pt x="190" y="411" on="0"/>
        <pt x="190" y="299" on="0"/>
        <pt x="198" y="220" on="0"/>
        <pt x="217" y="164" on="0"/>
        <pt x="235" y="150" on="1"/>
        <pt x="270" y="125" on="0"/>
        <pt x="405" y="125" on="0"/>
        <pt x="468" y="161" on="0"/>
        <pt x="498" y="262" on="0"/>
        <pt x="498" y="418" on="0"/>
        <pt x="491" y="499" on="0"/>
        <pt x="473" y="554" on="0"/>
        <pt x="452" y="586" on="0"/>
        <pt x="432" y="595" on="1"/>
        <pt x="402" y="608" on="0"/>
        <pt x="317" y="608" on="0"/>
        <pt x="284" y="605" on="0"/>
        <pt x="247" y="595" on="0"/>
        <pt x="227" y="574" on="0"/>
        <pt x="206" y="538" on="0"/>
      </contour>
      <contour>
        <pt x="542" y="-174" on="1"/>
        <pt x="506" y="-180" on="0"/>
        <pt x="445" y="-180" on="0"/>
        <pt x="384" y="-161" on="0"/>
        <pt x="335" y="-128" on="0"/>
        <pt x="302" y="-70" on="0"/>
        <pt x="300" y="-33" on="1"/>
        <pt x="379" y="-33" on="1"/>
        <pt x="403" y="-73" on="0"/>
        <pt x="464" y="-73" on="1"/>
        <pt x="497" y="-73" on="0"/>
        <pt x="542" y="-61" on="1"/>
      </contour>
    </TTGlyph>
    <TTGlyph name="R" xMin="51" yMin="0" xMax="593" yMax="732">
      <contour>
        <pt x="371" y="732" on="1"/>
        <pt x="467" y="732" on="0"/>
        <pt x="514" y="683" on="1"/>
        <pt x="571" y="625" on="0"/>
        <pt x="571" y="504" on="1"/>
        <pt x="571" y="363" on="0"/>
        <pt x="512" y="317" on="1"/>
        <pt x="493" y="302" on="0"/>
        <pt x="473" y="294" on="0"/>
        <pt x="454" y="288" on="1"/>
        <pt x="593" y="0" on="1"/>
        <pt x="435" y="0" on="1"/>
        <pt x="314" y="277" on="1"/>
        <pt x="191" y="291" on="1"/>
        <pt x="191" y="0" on="1"/>
        <pt x="51" y="0" on="1"/>
        <pt x="51" y="732" on="1"/>
      </contour>
      <contour>
        <pt x="192" y="401" on="1"/>
        <pt x="358" y="401" on="1"/>
        <pt x="397" y="401" on="0"/>
        <pt x="430" y="441" on="0"/>
        <pt x="430" y="563" on="0"/>
        <pt x="394" y="608" on="0"/>
        <pt x="358" y="608" on="1"/>
        <pt x="192" y="608" on="1"/>
      </contour>
    </TTGlyph>
    <TTGlyph name="Racute" xMin="51" yMin="0" xMax="593" yMax="934">
      <contour>
        <pt x="259" y="795" on="1"/>
        <pt x="349" y="933" on="1"/>
        <pt x="472" y="933" on="1"/>
        <pt x="350" y="795" on="1"/>
      </contour>
      <contour>
        <pt x="51" y="0" on="1"/>
        <pt x="51" y="732" on="1"/>
        <pt x="371" y="732" on="1"/>
        <pt x="517" y="732" on="0"/>
        <pt x="556" y="613" on="1"/>
        <pt x="571" y="567" on="0"/>
        <pt x="571" y="466" on="0"/>
        <pt x="561" y="405" on="0"/>
        <pt x="549" y="364" on="0"/>
        <pt x="526" y="330" on="0"/>
        <pt x="509" y="313" on="0"/>
        <pt x="495" y="305" on="1"/>
        <pt x="478" y="296" on="0"/>
        <pt x="454" y="288" on="1"/>
        <pt x="593" y="0" on="1"/>
        <pt x="435" y="0" on="1"/>
        <pt x="314" y="277" on="1"/>
        <pt x="191" y="291" on="1"/>
        <pt x="191" y="0" on="1"/>
      </contour>
      <contour>
        <pt x="192" y="401" on="1"/>
        <pt x="358" y="401" on="1"/>
        <pt x="397" y="401" on="0"/>
        <pt x="430" y="441" on="0"/>
        <pt x="430" y="563" on="0"/>
        <pt x="394" y="608" on="0"/>
        <pt x="358" y="608" on="1"/>
        <pt x="192" y="608" on="1"/>
      </contour>
    </TTGlyph>
    <TTGlyph name="Rcaron" xMin="51" yMin="0" xMax="593" yMax="933">
      <contour>
        <pt x="151" y="932" on="1"/>
        <pt x="244" y="932" on="1"/>
        <pt x="307" y="872" on="1"/>
        <pt x="366" y="932" on="1"/>
        <pt x="459" y="932" on="1"/>
        <pt x="358" y="797" on="1"/>
        <pt x="254" y="797" on="1"/>
      </contour>
      <contour>
        <pt x="51" y="0" on="1"/>
        <pt x="51" y="732" on="1"/>
        <pt x="371" y="732" on="1"/>
        <pt x="517" y="732" on="0"/>
        <pt x="556" y="613" on="1"/>
        <pt x="571" y="567" on="0"/>
        <pt x="571" y="466" on="0"/>
        <pt x="561" y="405" on="0"/>
        <pt x="549" y="364" on="0"/>
        <pt x="526" y="330" on="0"/>
        <pt x="509" y="313" on="0"/>
        <pt x="495" y="305" on="1"/>
        <pt x="478" y="296" on="0"/>
        <pt x="454" y="288" on="1"/>
        <pt x="593" y="0" on="1"/>
        <pt x="435" y="0" on="1"/>
        <pt x="314" y="277" on="1"/>
        <pt x="191" y="291" on="1"/>
        <pt x="191" y="0" on="1"/>
      </contour>
      <contour>
        <pt x="192" y="401" on="1"/>
        <pt x="358" y="401" on="1"/>
        <pt x="397" y="401" on="0"/>
        <pt x="430" y="441" on="0"/>
        <pt x="430" y="563" on="0"/>
        <pt x="394" y="608" on="0"/>
        <pt x="358" y="608" on="1"/>
        <pt x="192" y="608" on="1"/>
      </contour>
    </TTGlyph>
    <TTGlyph name="Rcommaaccent" xMin="51" yMin="-277" xMax="593" yMax="732">
      <contour>
        <pt x="239" y="-171" on="1"/>
        <pt x="239" y="-92" on="1"/>
        <pt x="239" y="-68" on="0"/>
        <pt x="261" y="-68" on="1"/>
        <pt x="337" y="-68" on="1"/>
        <pt x="359" y="-68" on="0"/>
        <pt x="359" y="-92" on="1"/>
        <pt x="359" y="-203" on="1"/>
        <pt x="359" y="-231" on="0"/>
        <pt x="335" y="-266" on="0"/>
        <pt x="318" y="-271" on="1"/>
        <pt x="297" y="-277" on="0"/>
        <pt x="264" y="-277" on="0"/>
        <pt x="255" y="-275" on="1"/>
        <pt x="243" y="-272" on="1"/>
        <pt x="243" y="-229" on="1"/>
        <pt x="256" y="-229" on="0"/>
        <pt x="263" y="-225" on="1"/>
        <pt x="271" y="-219" on="0"/>
        <pt x="271" y="-206" on="1"/>
        <pt x="271" y="-193" on="1"/>
        <pt x="261" y="-193" on="1"/>
        <pt x="239" y="-193" on="0"/>
      </contour>
      <contour>
        <pt x="51" y="0" on="1"/>
        <pt x="51" y="732" on="1"/>
        <pt x="371" y="732" on="1"/>
        <pt x="517" y="732" on="0"/>
        <pt x="556" y="613" on="1"/>
        <pt x="571" y="567" on="0"/>
        <pt x="571" y="466" on="0"/>
        <pt x="561" y="405" on="0"/>
        <pt x="549" y="364" on="0"/>
        <pt x="526" y="330" on="0"/>
        <pt x="509" y="313" on="0"/>
        <pt x="495" y="305" on="1"/>
        <pt x="478" y="296" on="0"/>
        <pt x="454" y="288" on="1"/>
        <pt x="593" y="0" on="1"/>
        <pt x="435" y="0" on="1"/>
        <pt x="314" y="277" on="1"/>
        <pt x="191" y="291" on="1"/>
        <pt x="191" y="0" on="1"/>
      </contour>
      <contour>
        <pt x="192" y="401" on="1"/>
        <pt x="358" y="401" on="1"/>
        <pt x="397" y="401" on="0"/>
        <pt x="430" y="441" on="0"/>
        <pt x="430" y="563" on="0"/>
        <pt x="394" y="608" on="0"/>
        <pt x="358" y="608" on="1"/>
        <pt x="192" y="608" on="1"/>
      </contour>
    </TTGlyph>
    <TTGlyph name="S" xMin="49" yMin="-8" xMax="558" yMax="739">
      <contour>
        <pt x="50" y="486" on="1"/>
        <pt x="50" y="549" on="1"/>
        <pt x="50" y="654" on="0"/>
        <pt x="107" y="698" on="1"/>
        <pt x="159" y="737" on="0"/>
        <pt x="248" y="738" on="1"/>
        <pt x="260" y="738" on="0"/>
        <pt x="337" y="738" on="0"/>
        <pt x="486" y="722" on="0"/>
        <pt x="531" y="709" on="1"/>
        <pt x="531" y="599" on="1"/>
        <pt x="417" y="609" on="0"/>
        <pt x="282" y="609" on="0"/>
        <pt x="277" y="609" on="1"/>
        <pt x="232" y="609" on="0"/>
        <pt x="190" y="585" on="0"/>
        <pt x="190" y="538" on="1"/>
        <pt x="190" y="502" on="1"/>
        <pt x="190" y="460" on="0"/>
        <pt x="224" y="432" on="0"/>
        <pt x="268" y="432" on="1"/>
        <pt x="384" y="432" on="1"/>
        <pt x="498" y="432" on="0"/>
        <pt x="537" y="341" on="1"/>
        <pt x="557" y="295" on="0"/>
        <pt x="557" y="238" on="1"/>
        <pt x="557" y="189" on="1"/>
        <pt x="557" y="55" on="0"/>
        <pt x="468" y="14" on="1"/>
        <pt x="422" y="-8" on="0"/>
        <pt x="355" y="-8" on="1"/>
        <pt x="174" y="-8" on="0"/>
        <pt x="72" y="22" on="1"/>
        <pt x="72" y="132" on="1"/>
        <pt x="182" y="121" on="0"/>
        <pt x="346" y="121" on="0"/>
        <pt x="373" y="125" on="0"/>
        <pt x="387" y="131" on="1"/>
        <pt x="417" y="144" on="0"/>
        <pt x="417" y="184" on="1"/>
        <pt x="417" y="223" on="1"/>
        <pt x="417" y="275" on="0"/>
        <pt x="384" y="287" on="1"/>
        <pt x="371" y="292" on="0"/>
        <pt x="351" y="292" on="1"/>
        <pt x="239" y="292" on="1"/>
        <pt x="50" y="292" on="0"/>
      </contour>
    </TTGlyph>
    <TTGlyph name="Sacute" xMin="49" yMin="-8" xMax="558" yMax="937">
      <contour>
        <pt x="261" y="798" on="1"/>
        <pt x="352" y="937" on="1"/>
        <pt x="474" y="937" on="1"/>
        <pt x="352" y="798" on="1"/>
      </contour>
      <contour>
        <pt x="50" y="486" on="1"/>
        <pt x="50" y="549" on="1"/>
        <pt x="50" y="654" on="0"/>
        <pt x="107" y="698" on="1"/>
        <pt x="159" y="737" on="0"/>
        <pt x="248" y="738" on="1"/>
        <pt x="260" y="738" on="0"/>
        <pt x="337" y="738" on="0"/>
        <pt x="486" y="722" on="0"/>
        <pt x="531" y="709" on="1"/>
        <pt x="531" y="599" on="1"/>
        <pt x="417" y="609" on="0"/>
        <pt x="282" y="609" on="0"/>
        <pt x="277" y="609" on="1"/>
        <pt x="232" y="609" on="0"/>
        <pt x="190" y="585" on="0"/>
        <pt x="190" y="538" on="1"/>
        <pt x="190" y="502" on="1"/>
        <pt x="190" y="460" on="0"/>
        <pt x="224" y="432" on="0"/>
        <pt x="268" y="432" on="1"/>
        <pt x="384" y="432" on="1"/>
        <pt x="498" y="432" on="0"/>
        <pt x="537" y="341" on="1"/>
        <pt x="557" y="295" on="0"/>
        <pt x="557" y="238" on="1"/>
        <pt x="557" y="189" on="1"/>
        <pt x="557" y="55" on="0"/>
        <pt x="468" y="14" on="1"/>
        <pt x="422" y="-8" on="0"/>
        <pt x="355" y="-8" on="1"/>
        <pt x="174" y="-8" on="0"/>
        <pt x="72" y="22" on="1"/>
        <pt x="72" y="132" on="1"/>
        <pt x="182" y="121" on="0"/>
        <pt x="342" y="121" on="0"/>
        <pt x="364" y="123" on="0"/>
        <pt x="389" y="131" on="0"/>
        <pt x="398" y="138" on="1"/>
        <pt x="417" y="153" on="0"/>
        <pt x="417" y="184" on="1"/>
        <pt x="417" y="223" on="1"/>
        <pt x="417" y="258" on="0"/>
        <pt x="389" y="292" on="0"/>
        <pt x="351" y="292" on="1"/>
        <pt x="239" y="292" on="1"/>
        <pt x="50" y="292" on="0"/>
      </contour>
    </TTGlyph>
    <TTGlyph name="Scaron" xMin="49" yMin="-8" xMax="558" yMax="934">
      <contour>
        <pt x="155" y="934" on="1"/>
        <pt x="249" y="934" on="1"/>
        <pt x="312" y="874" on="1"/>
        <pt x="370" y="934" on="1"/>
        <pt x="464" y="934" on="1"/>
        <pt x="362" y="798" on="1"/>
        <pt x="258" y="798" on="1"/>
      </contour>
      <contour>
        <pt x="50" y="486" on="1"/>
        <pt x="50" y="549" on="1"/>
        <pt x="50" y="654" on="0"/>
        <pt x="107" y="698" on="1"/>
        <pt x="159" y="737" on="0"/>
        <pt x="248" y="738" on="1"/>
        <pt x="260" y="738" on="0"/>
        <pt x="337" y="738" on="0"/>
        <pt x="486" y="722" on="0"/>
        <pt x="531" y="709" on="1"/>
        <pt x="531" y="599" on="1"/>
        <pt x="417" y="609" on="0"/>
        <pt x="282" y="609" on="0"/>
        <pt x="277" y="609" on="1"/>
        <pt x="232" y="609" on="0"/>
        <pt x="190" y="585" on="0"/>
        <pt x="190" y="538" on="1"/>
        <pt x="190" y="502" on="1"/>
        <pt x="190" y="460" on="0"/>
        <pt x="224" y="432" on="0"/>
        <pt x="268" y="432" on="1"/>
        <pt x="384" y="432" on="1"/>
        <pt x="498" y="432" on="0"/>
        <pt x="537" y="341" on="1"/>
        <pt x="557" y="295" on="0"/>
        <pt x="557" y="238" on="1"/>
        <pt x="557" y="189" on="1"/>
        <pt x="557" y="55" on="0"/>
        <pt x="468" y="14" on="1"/>
        <pt x="422" y="-8" on="0"/>
        <pt x="355" y="-8" on="1"/>
        <pt x="174" y="-8" on="0"/>
        <pt x="72" y="22" on="1"/>
        <pt x="72" y="132" on="1"/>
        <pt x="182" y="121" on="0"/>
        <pt x="342" y="121" on="0"/>
        <pt x="364" y="123" on="0"/>
        <pt x="389" y="131" on="0"/>
        <pt x="398" y="138" on="1"/>
        <pt x="417" y="153" on="0"/>
        <pt x="417" y="184" on="1"/>
        <pt x="417" y="223" on="1"/>
        <pt x="417" y="258" on="0"/>
        <pt x="389" y="292" on="0"/>
        <pt x="351" y="292" on="1"/>
        <pt x="239" y="292" on="1"/>
        <pt x="50" y="292" on="0"/>
      </contour>
    </TTGlyph>
    <TTGlyph name="Scedilla" xMin="49" yMin="-186" xMax="558" yMax="739">
      <contour>
        <pt x="270" y="-44" on="1"/>
        <pt x="364" y="-44" on="1"/>
        <pt x="364" y="-122" on="0"/>
        <pt x="316" y="-185" on="0"/>
        <pt x="252" y="-185" on="1"/>
        <pt x="196" y="-185" on="1"/>
        <pt x="196" y="-125" on="1"/>
        <pt x="240" y="-110" on="1"/>
        <pt x="260" y="-102" on="0"/>
        <pt x="270" y="-75" on="0"/>
      </contour>
      <contour>
        <pt x="50" y="486" on="1"/>
        <pt x="50" y="549" on="1"/>
        <pt x="50" y="654" on="0"/>
        <pt x="107" y="698" on="1"/>
        <pt x="159" y="737" on="0"/>
        <pt x="248" y="738" on="1"/>
        <pt x="260" y="738" on="0"/>
        <pt x="337" y="738" on="0"/>
        <pt x="486" y="722" on="0"/>
        <pt x="531" y="709" on="1"/>
        <pt x="531" y="599" on="1"/>
        <pt x="417" y="609" on="0"/>
        <pt x="282" y="609" on="0"/>
        <pt x="277" y="609" on="1"/>
        <pt x="232" y="609" on="0"/>
        <pt x="190" y="585" on="0"/>
        <pt x="190" y="538" on="1"/>
        <pt x="190" y="502" on="1"/>
        <pt x="190" y="460" on="0"/>
        <pt x="224" y="432" on="0"/>
        <pt x="268" y="432" on="1"/>
        <pt x="384" y="432" on="1"/>
        <pt x="498" y="432" on="0"/>
        <pt x="537" y="341" on="1"/>
        <pt x="557" y="295" on="0"/>
        <pt x="557" y="238" on="1"/>
        <pt x="557" y="189" on="1"/>
        <pt x="557" y="55" on="0"/>
        <pt x="468" y="14" on="1"/>
        <pt x="422" y="-8" on="0"/>
        <pt x="355" y="-8" on="1"/>
        <pt x="174" y="-8" on="0"/>
        <pt x="72" y="22" on="1"/>
        <pt x="72" y="132" on="1"/>
        <pt x="182" y="121" on="0"/>
        <pt x="342" y="121" on="0"/>
        <pt x="364" y="123" on="0"/>
        <pt x="389" y="131" on="0"/>
        <pt x="398" y="138" on="1"/>
        <pt x="417" y="153" on="0"/>
        <pt x="417" y="184" on="1"/>
        <pt x="417" y="223" on="1"/>
        <pt x="417" y="258" on="0"/>
        <pt x="389" y="292" on="0"/>
        <pt x="351" y="292" on="1"/>
        <pt x="239" y="292" on="1"/>
        <pt x="50" y="292" on="0"/>
      </contour>
    </TTGlyph>
    <TTGlyph name="Scircumflex" xMin="49" yMin="-8" xMax="558" yMax="934">
      <contour>
        <pt x="155" y="798" on="1"/>
        <pt x="263" y="934" on="1"/>
        <pt x="367" y="934" on="1"/>
        <pt x="464" y="798" on="1"/>
        <pt x="371" y="798" on="1"/>
        <pt x="312" y="858" on="1"/>
        <pt x="249" y="798" on="1"/>
      </contour>
      <contour>
        <pt x="50" y="486" on="1"/>
        <pt x="50" y="549" on="1"/>
        <pt x="50" y="654" on="0"/>
        <pt x="107" y="698" on="1"/>
        <pt x="159" y="737" on="0"/>
        <pt x="248" y="738" on="1"/>
        <pt x="260" y="738" on="0"/>
        <pt x="337" y="738" on="0"/>
        <pt x="486" y="722" on="0"/>
        <pt x="531" y="709" on="1"/>
        <pt x="531" y="599" on="1"/>
        <pt x="417" y="609" on="0"/>
        <pt x="282" y="609" on="0"/>
        <pt x="277" y="609" on="1"/>
        <pt x="232" y="609" on="0"/>
        <pt x="190" y="585" on="0"/>
        <pt x="190" y="538" on="1"/>
        <pt x="190" y="502" on="1"/>
        <pt x="190" y="460" on="0"/>
        <pt x="224" y="432" on="0"/>
        <pt x="268" y="432" on="1"/>
        <pt x="384" y="432" on="1"/>
        <pt x="498" y="432" on="0"/>
        <pt x="537" y="341" on="1"/>
        <pt x="557" y="295" on="0"/>
        <pt x="557" y="238" on="1"/>
        <pt x="557" y="189" on="1"/>
        <pt x="557" y="55" on="0"/>
        <pt x="468" y="14" on="1"/>
        <pt x="422" y="-8" on="0"/>
        <pt x="355" y="-8" on="1"/>
        <pt x="174" y="-8" on="0"/>
        <pt x="72" y="22" on="1"/>
        <pt x="72" y="132" on="1"/>
        <pt x="182" y="121" on="0"/>
        <pt x="342" y="121" on="0"/>
        <pt x="364" y="123" on="0"/>
        <pt x="389" y="131" on="0"/>
        <pt x="398" y="138" on="1"/>
        <pt x="417" y="153" on="0"/>
        <pt x="417" y="184" on="1"/>
        <pt x="417" y="223" on="1"/>
        <pt x="417" y="258" on="0"/>
        <pt x="389" y="292" on="0"/>
        <pt x="351" y="292" on="1"/>
        <pt x="239" y="292" on="1"/>
        <pt x="50" y="292" on="0"/>
      </contour>
    </TTGlyph>
    <TTGlyph name="T" xMin="31" yMin="0" xMax="573" yMax="732">
      <contour>
        <pt x="31" y="603" on="1"/>
        <pt x="31" y="732" on="1"/>
        <pt x="572" y="732" on="1"/>
        <pt x="572" y="603" on="1"/>
        <pt x="369" y="603" on="1"/>
        <pt x="369" y="0" on="1"/>
        <pt x="229" y="0" on="1"/>
        <pt x="229" y="603" on="1"/>
      </contour>
    </TTGlyph>
    <TTGlyph name="Tbar" xMin="21" yMin="0" xMax="563" yMax="732">
      <contour>
        <pt x="22" y="603" on="1"/>
        <pt x="22" y="732" on="1"/>
        <pt x="563" y="732" on="1"/>
        <pt x="563" y="603" on="1"/>
        <pt x="359" y="603" on="1"/>
        <pt x="359" y="433" on="1"/>
        <pt x="457" y="433" on="1"/>
        <pt x="457" y="368" on="1"/>
        <pt x="359" y="368" on="1"/>
        <pt x="359" y="0" on="1"/>
        <pt x="219" y="0" on="1"/>
        <pt x="219" y="368" on="1"/>
        <pt x="121" y="368" on="1"/>
        <pt x="121" y="433" on="1"/>
        <pt x="219" y="433" on="1"/>
        <pt x="219" y="603" on="1"/>
      </contour>
    </TTGlyph>
    <TTGlyph name="Tcaron" xMin="31" yMin="0" xMax="573" yMax="933">
      <contour>
        <pt x="143" y="932" on="1"/>
        <pt x="236" y="932" on="1"/>
        <pt x="299" y="872" on="1"/>
        <pt x="358" y="932" on="1"/>
        <pt x="452" y="932" on="1"/>
        <pt x="350" y="797" on="1"/>
        <pt x="246" y="797" on="1"/>
      </contour>
      <contour>
        <pt x="31" y="603" on="1"/>
        <pt x="31" y="732" on="1"/>
        <pt x="572" y="732" on="1"/>
        <pt x="572" y="603" on="1"/>
        <pt x="369" y="603" on="1"/>
        <pt x="369" y="0" on="1"/>
        <pt x="229" y="0" on="1"/>
        <pt x="229" y="603" on="1"/>
      </contour>
    </TTGlyph>
    <TTGlyph name="Tcommaaccent" xMin="31" yMin="-184" xMax="573" yMax="732">
      <contour>
        <pt x="169" y="-42" on="1"/>
        <pt x="263" y="-42" on="1"/>
        <pt x="263" y="-120" on="0"/>
        <pt x="215" y="-184" on="0"/>
        <pt x="151" y="-184" on="1"/>
        <pt x="95" y="-184" on="1"/>
        <pt x="95" y="-124" on="1"/>
        <pt x="139" y="-109" on="1"/>
        <pt x="158" y="-100" on="0"/>
        <pt x="169" y="-74" on="0"/>
      </contour>
      <contour>
        <pt x="31" y="603" on="1"/>
        <pt x="31" y="732" on="1"/>
        <pt x="572" y="732" on="1"/>
        <pt x="572" y="603" on="1"/>
        <pt x="369" y="603" on="1"/>
        <pt x="369" y="0" on="1"/>
        <pt x="229" y="0" on="1"/>
        <pt x="229" y="603" on="1"/>
      </contour>
    </TTGlyph>
    <TTGlyph name="Thorn" xMin="45" yMin="0" xMax="510" yMax="729">
      <contour>
        <pt x="311" y="148" on="0"/>
        <pt x="257" y="148" on="0"/>
        <pt x="186" y="168" on="1"/>
        <pt x="186" y="0" on="1"/>
        <pt x="46" y="0" on="1"/>
        <pt x="46" y="729" on="1"/>
        <pt x="186" y="729" on="1"/>
        <pt x="186" y="588" on="1"/>
        <pt x="333" y="588" on="1"/>
        <pt x="509" y="587" on="0"/>
        <pt x="509" y="375" on="1"/>
        <pt x="509" y="215" on="0"/>
        <pt x="427" y="171" on="1"/>
        <pt x="388" y="150" on="0"/>
      </contour>
      <contour>
        <pt x="289" y="273" on="1"/>
        <pt x="290" y="272" on="0"/>
        <pt x="311" y="272" on="0"/>
        <pt x="337" y="279" on="0"/>
        <pt x="348" y="289" on="1"/>
        <pt x="368" y="309" on="0"/>
        <pt x="368" y="374" on="1"/>
        <pt x="367" y="443" on="0"/>
        <pt x="333" y="457" on="1"/>
        <pt x="316" y="464" on="0"/>
        <pt x="289" y="464" on="1"/>
        <pt x="186" y="464" on="1"/>
        <pt x="186" y="272" on="1"/>
      </contour>
    </TTGlyph>
    <TTGlyph name="U" xMin="60" yMin="-6" xMax="620" yMax="732">
      <contour>
        <pt x="343" y="-5" on="1"/>
        <pt x="329" y="-5" on="1"/>
        <pt x="209" y="-5" on="0"/>
        <pt x="169" y="20" on="1"/>
        <pt x="151" y="32" on="0"/>
        <pt x="103" y="79" on="0"/>
        <pt x="91" y="113" on="1"/>
        <pt x="61" y="197" on="0"/>
        <pt x="61" y="320" on="1"/>
        <pt x="61" y="732" on="1"/>
        <pt x="201" y="732" on="1"/>
        <pt x="201" y="320" on="1"/>
        <pt x="201" y="224" on="0"/>
        <pt x="220" y="179" on="1"/>
        <pt x="237" y="139" on="0"/>
        <pt x="287" y="128" on="1"/>
        <pt x="309" y="124" on="0"/>
        <pt x="392" y="124" on="0"/>
        <pt x="420" y="139" on="1"/>
        <pt x="479" y="171" on="0"/>
        <pt x="479" y="320" on="1"/>
        <pt x="479" y="732" on="1"/>
        <pt x="620" y="732" on="1"/>
        <pt x="620" y="320" on="1"/>
        <pt x="620" y="163" on="0"/>
        <pt x="574" y="92" on="1"/>
        <pt x="559" y="67" on="0"/>
        <pt x="530" y="36" on="0"/>
        <pt x="485" y="13" on="0"/>
        <pt x="453" y="2" on="0"/>
        <pt x="426" y="-1" on="1"/>
        <pt x="392" y="-5" on="0"/>
      </contour>
    </TTGlyph>
    <TTGlyph name="Uacute" xMin="60" yMin="-6" xMax="620" yMax="936">
      <contour>
        <pt x="295" y="797" on="1"/>
        <pt x="385" y="936" on="1"/>
        <pt x="508" y="936" on="1"/>
        <pt x="386" y="797" on="1"/>
      </contour>
      <contour>
        <pt x="343" y="-5" on="1"/>
        <pt x="329" y="-5" on="1"/>
        <pt x="209" y="-5" on="0"/>
        <pt x="169" y="20" on="1"/>
        <pt x="151" y="32" on="0"/>
        <pt x="103" y="79" on="0"/>
        <pt x="91" y="113" on="1"/>
        <pt x="61" y="197" on="0"/>
        <pt x="61" y="320" on="1"/>
        <pt x="61" y="732" on="1"/>
        <pt x="201" y="732" on="1"/>
        <pt x="201" y="320" on="1"/>
        <pt x="201" y="224" on="0"/>
        <pt x="220" y="179" on="1"/>
        <pt x="237" y="139" on="0"/>
        <pt x="287" y="128" on="1"/>
        <pt x="309" y="124" on="0"/>
        <pt x="392" y="124" on="0"/>
        <pt x="420" y="139" on="1"/>
        <pt x="479" y="171" on="0"/>
        <pt x="479" y="320" on="1"/>
        <pt x="479" y="732" on="1"/>
        <pt x="620" y="732" on="1"/>
        <pt x="620" y="320" on="1"/>
        <pt x="620" y="163" on="0"/>
        <pt x="574" y="92" on="1"/>
        <pt x="559" y="67" on="0"/>
        <pt x="530" y="36" on="0"/>
        <pt x="485" y="13" on="0"/>
        <pt x="453" y="2" on="0"/>
        <pt x="426" y="-1" on="1"/>
        <pt x="392" y="-5" on="0"/>
      </contour>
    </TTGlyph>
    <TTGlyph name="Ubreve" xMin="60" yMin="-6" xMax="620" yMax="911">
      <contour>
        <pt x="225" y="911" on="1"/>
        <pt x="283" y="911" on="1"/>
        <pt x="283" y="886" on="0"/>
        <pt x="315" y="855" on="0"/>
        <pt x="367" y="855" on="0"/>
        <pt x="397" y="885" on="0"/>
        <pt x="397" y="911" on="1"/>
        <pt x="455" y="911" on="1"/>
        <pt x="455" y="859" on="0"/>
        <pt x="389" y="797" on="0"/>
        <pt x="291" y="797" on="0"/>
        <pt x="225" y="860" on="0"/>
      </contour>
      <contour>
        <pt x="343" y="-5" on="1"/>
        <pt x="329" y="-5" on="1"/>
        <pt x="209" y="-5" on="0"/>
        <pt x="169" y="20" on="1"/>
        <pt x="151" y="32" on="0"/>
        <pt x="103" y="79" on="0"/>
        <pt x="91" y="113" on="1"/>
        <pt x="61" y="197" on="0"/>
        <pt x="61" y="320" on="1"/>
        <pt x="61" y="732" on="1"/>
        <pt x="201" y="732" on="1"/>
        <pt x="201" y="320" on="1"/>
        <pt x="201" y="224" on="0"/>
        <pt x="220" y="179" on="1"/>
        <pt x="237" y="139" on="0"/>
        <pt x="287" y="128" on="1"/>
        <pt x="309" y="124" on="0"/>
        <pt x="392" y="124" on="0"/>
        <pt x="420" y="139" on="1"/>
        <pt x="479" y="171" on="0"/>
        <pt x="479" y="320" on="1"/>
        <pt x="479" y="732" on="1"/>
        <pt x="620" y="732" on="1"/>
        <pt x="620" y="320" on="1"/>
        <pt x="620" y="163" on="0"/>
        <pt x="574" y="92" on="1"/>
        <pt x="559" y="67" on="0"/>
        <pt x="530" y="36" on="0"/>
        <pt x="485" y="13" on="0"/>
        <pt x="453" y="2" on="0"/>
        <pt x="426" y="-1" on="1"/>
        <pt x="392" y="-5" on="0"/>
      </contour>
    </TTGlyph>
    <TTGlyph name="Ucircumflex" xMin="60" yMin="-6" xMax="620" yMax="933">
      <contour>
        <pt x="186" y="797" on="1"/>
        <pt x="294" y="932" on="1"/>
        <pt x="398" y="932" on="1"/>
        <pt x="494" y="797" on="1"/>
        <pt x="402" y="797" on="1"/>
        <pt x="343" y="857" on="1"/>
        <pt x="280" y="797" on="1"/>
      </contour>
      <contour>
        <pt x="343" y="-5" on="1"/>
        <pt x="329" y="-5" on="1"/>
        <pt x="209" y="-5" on="0"/>
        <pt x="169" y="20" on="1"/>
        <pt x="151" y="32" on="0"/>
        <pt x="103" y="79" on="0"/>
        <pt x="91" y="113" on="1"/>
        <pt x="61" y="197" on="0"/>
        <pt x="61" y="320" on="1"/>
        <pt x="61" y="732" on="1"/>
        <pt x="201" y="732" on="1"/>
        <pt x="201" y="320" on="1"/>
        <pt x="201" y="224" on="0"/>
        <pt x="220" y="179" on="1"/>
        <pt x="237" y="139" on="0"/>
        <pt x="287" y="128" on="1"/>
        <pt x="309" y="124" on="0"/>
        <pt x="392" y="124" on="0"/>
        <pt x="420" y="139" on="1"/>
        <pt x="479" y="171" on="0"/>
        <pt x="479" y="320" on="1"/>
        <pt x="479" y="732" on="1"/>
        <pt x="620" y="732" on="1"/>
        <pt x="620" y="320" on="1"/>
        <pt x="620" y="163" on="0"/>
        <pt x="574" y="92" on="1"/>
        <pt x="559" y="67" on="0"/>
        <pt x="530" y="36" on="0"/>
        <pt x="485" y="13" on="0"/>
        <pt x="453" y="2" on="0"/>
        <pt x="426" y="-1" on="1"/>
        <pt x="392" y="-5" on="0"/>
      </contour>
    </TTGlyph>
    <TTGlyph name="Udieresis" xMin="60" yMin="-6" xMax="620" yMax="915">
      <contour>
        <pt x="189" y="797" on="0"/>
        <pt x="154" y="832" on="0"/>
        <pt x="154" y="872" on="0"/>
        <pt x="162" y="886" on="1"/>
        <pt x="179" y="914" on="0"/>
        <pt x="238" y="914" on="0"/>
        <pt x="272" y="881" on="0"/>
        <pt x="272" y="832" on="0"/>
        <pt x="237" y="797" on="0"/>
      </contour>
      <contour>
        <pt x="409" y="832" on="0"/>
        <pt x="409" y="880" on="0"/>
        <pt x="444" y="914" on="0"/>
        <pt x="493" y="914" on="0"/>
        <pt x="526" y="881" on="0"/>
        <pt x="526" y="832" on="0"/>
        <pt x="492" y="797" on="0"/>
        <pt x="444" y="797" on="0"/>
      </contour>
      <contour>
        <pt x="343" y="-5" on="1"/>
        <pt x="329" y="-5" on="1"/>
        <pt x="209" y="-5" on="0"/>
        <pt x="169" y="20" on="1"/>
        <pt x="151" y="32" on="0"/>
        <pt x="103" y="79" on="0"/>
        <pt x="91" y="113" on="1"/>
        <pt x="61" y="197" on="0"/>
        <pt x="61" y="320" on="1"/>
        <pt x="61" y="732" on="1"/>
        <pt x="201" y="732" on="1"/>
        <pt x="201" y="320" on="1"/>
        <pt x="201" y="224" on="0"/>
        <pt x="220" y="179" on="1"/>
        <pt x="237" y="139" on="0"/>
        <pt x="287" y="128" on="1"/>
        <pt x="309" y="124" on="0"/>
        <pt x="392" y="124" on="0"/>
        <pt x="420" y="139" on="1"/>
        <pt x="479" y="171" on="0"/>
        <pt x="479" y="320" on="1"/>
        <pt x="479" y="732" on="1"/>
        <pt x="620" y="732" on="1"/>
        <pt x="620" y="320" on="1"/>
        <pt x="620" y="163" on="0"/>
        <pt x="574" y="92" on="1"/>
        <pt x="559" y="67" on="0"/>
        <pt x="530" y="36" on="0"/>
        <pt x="485" y="13" on="0"/>
        <pt x="453" y="2" on="0"/>
        <pt x="426" y="-1" on="1"/>
        <pt x="392" y="-5" on="0"/>
      </contour>
    </TTGlyph>
    <TTGlyph name="Ugrave" xMin="60" yMin="-6" xMax="620" yMax="936">
      <contour>
        <pt x="173" y="936" on="1"/>
        <pt x="295" y="936" on="1"/>
        <pt x="386" y="797" on="1"/>
        <pt x="295" y="797" on="1"/>
      </contour>
      <contour>
        <pt x="343" y="-5" on="1"/>
        <pt x="329" y="-5" on="1"/>
        <pt x="209" y="-5" on="0"/>
        <pt x="169" y="20" on="1"/>
        <pt x="151" y="32" on="0"/>
        <pt x="103" y="79" on="0"/>
        <pt x="91" y="113" on="1"/>
        <pt x="61" y="197" on="0"/>
        <pt x="61" y="320" on="1"/>
        <pt x="61" y="732" on="1"/>
        <pt x="201" y="732" on="1"/>
        <pt x="201" y="320" on="1"/>
        <pt x="201" y="224" on="0"/>
        <pt x="220" y="179" on="1"/>
        <pt x="237" y="139" on="0"/>
        <pt x="287" y="128" on="1"/>
        <pt x="309" y="124" on="0"/>
        <pt x="392" y="124" on="0"/>
        <pt x="420" y="139" on="1"/>
        <pt x="479" y="171" on="0"/>
        <pt x="479" y="320" on="1"/>
        <pt x="479" y="732" on="1"/>
        <pt x="620" y="732" on="1"/>
        <pt x="620" y="320" on="1"/>
        <pt x="620" y="163" on="0"/>
        <pt x="574" y="92" on="1"/>
        <pt x="559" y="67" on="0"/>
        <pt x="530" y="36" on="0"/>
        <pt x="485" y="13" on="0"/>
        <pt x="453" y="2" on="0"/>
        <pt x="426" y="-1" on="1"/>
        <pt x="392" y="-5" on="0"/>
      </contour>
    </TTGlyph>
    <TTGlyph name="Uhungarumlaut" xMin="60" yMin="-6" xMax="620" yMax="936">
      <contour>
        <pt x="217" y="797" on="1"/>
        <pt x="307" y="936" on="1"/>
        <pt x="430" y="936" on="1"/>
        <pt x="308" y="797" on="1"/>
      </contour>
      <contour>
        <pt x="373" y="797" on="1"/>
        <pt x="463" y="936" on="1"/>
        <pt x="586" y="936" on="1"/>
        <pt x="464" y="797" on="1"/>
      </contour>
      <contour>
        <pt x="343" y="-5" on="1"/>
        <pt x="329" y="-5" on="1"/>
        <pt x="209" y="-5" on="0"/>
        <pt x="169" y="20" on="1"/>
        <pt x="151" y="32" on="0"/>
        <pt x="103" y="79" on="0"/>
        <pt x="91" y="113" on="1"/>
        <pt x="61" y="197" on="0"/>
        <pt x="61" y="320" on="1"/>
        <pt x="61" y="732" on="1"/>
        <pt x="201" y="732" on="1"/>
        <pt x="201" y="320" on="1"/>
        <pt x="201" y="224" on="0"/>
        <pt x="220" y="179" on="1"/>
        <pt x="237" y="139" on="0"/>
        <pt x="287" y="128" on="1"/>
        <pt x="309" y="124" on="0"/>
        <pt x="392" y="124" on="0"/>
        <pt x="420" y="139" on="1"/>
        <pt x="479" y="171" on="0"/>
        <pt x="479" y="320" on="1"/>
        <pt x="479" y="732" on="1"/>
        <pt x="620" y="732" on="1"/>
        <pt x="620" y="320" on="1"/>
        <pt x="620" y="163" on="0"/>
        <pt x="574" y="92" on="1"/>
        <pt x="559" y="67" on="0"/>
        <pt x="530" y="36" on="0"/>
        <pt x="485" y="13" on="0"/>
        <pt x="453" y="2" on="0"/>
        <pt x="426" y="-1" on="1"/>
        <pt x="392" y="-5" on="0"/>
      </contour>
    </TTGlyph>
    <TTGlyph name="Umacron" xMin="60" yMin="-6" xMax="620" yMax="877">
      <contour>
        <pt x="194" y="797" on="1"/>
        <pt x="194" y="876" on="1"/>
        <pt x="486" y="876" on="1"/>
        <pt x="486" y="797" on="1"/>
      </contour>
      <contour>
        <pt x="343" y="-5" on="1"/>
        <pt x="329" y="-5" on="1"/>
        <pt x="209" y="-5" on="0"/>
        <pt x="169" y="20" on="1"/>
        <pt x="151" y="32" on="0"/>
        <pt x="103" y="79" on="0"/>
        <pt x="91" y="113" on="1"/>
        <pt x="61" y="197" on="0"/>
        <pt x="61" y="320" on="1"/>
        <pt x="61" y="732" on="1"/>
        <pt x="201" y="732" on="1"/>
        <pt x="201" y="320" on="1"/>
        <pt x="201" y="224" on="0"/>
        <pt x="220" y="179" on="1"/>
        <pt x="237" y="139" on="0"/>
        <pt x="287" y="128" on="1"/>
        <pt x="309" y="124" on="0"/>
        <pt x="392" y="124" on="0"/>
        <pt x="420" y="139" on="1"/>
        <pt x="479" y="171" on="0"/>
        <pt x="479" y="320" on="1"/>
        <pt x="479" y="732" on="1"/>
        <pt x="620" y="732" on="1"/>
        <pt x="620" y="320" on="1"/>
        <pt x="620" y="163" on="0"/>
        <pt x="574" y="92" on="1"/>
        <pt x="559" y="67" on="0"/>
        <pt x="530" y="36" on="0"/>
        <pt x="485" y="13" on="0"/>
        <pt x="453" y="2" on="0"/>
        <pt x="426" y="-1" on="1"/>
        <pt x="392" y="-5" on="0"/>
      </contour>
    </TTGlyph>
    <TTGlyph name="Uogonek" xMin="60" yMin="-192" xMax="620" yMax="732">
      <contour>
        <pt x="378" y="-188" on="1"/>
        <pt x="365" y="-192" on="0"/>
        <pt x="334" y="-192" on="0"/>
        <pt x="286" y="-176" on="0"/>
        <pt x="269" y="-154" on="1"/>
        <pt x="243" y="-123" on="0"/>
        <pt x="243" y="-97" on="1"/>
        <pt x="243" y="-38" on="0"/>
        <pt x="314" y="-2" on="1"/>
        <pt x="369" y="-2" on="1"/>
        <pt x="303" y="-51" on="0"/>
        <pt x="328" y="-91" on="1"/>
        <pt x="342" y="-113" on="0"/>
        <pt x="378" y="-112" on="1"/>
      </contour>
      <contour>
        <pt x="343" y="-5" on="1"/>
        <pt x="329" y="-5" on="1"/>
        <pt x="209" y="-5" on="0"/>
        <pt x="169" y="20" on="1"/>
        <pt x="151" y="32" on="0"/>
        <pt x="103" y="79" on="0"/>
        <pt x="91" y="113" on="1"/>
        <pt x="61" y="197" on="0"/>
        <pt x="61" y="320" on="1"/>
        <pt x="61" y="732" on="1"/>
        <pt x="201" y="732" on="1"/>
        <pt x="201" y="320" on="1"/>
        <pt x="201" y="224" on="0"/>
        <pt x="220" y="179" on="1"/>
        <pt x="237" y="139" on="0"/>
        <pt x="287" y="128" on="1"/>
        <pt x="309" y="124" on="0"/>
        <pt x="392" y="124" on="0"/>
        <pt x="420" y="139" on="1"/>
        <pt x="479" y="171" on="0"/>
        <pt x="479" y="320" on="1"/>
        <pt x="479" y="732" on="1"/>
        <pt x="620" y="732" on="1"/>
        <pt x="620" y="320" on="1"/>
        <pt x="620" y="163" on="0"/>
        <pt x="574" y="92" on="1"/>
        <pt x="559" y="67" on="0"/>
        <pt x="530" y="36" on="0"/>
        <pt x="485" y="13" on="0"/>
        <pt x="453" y="2" on="0"/>
        <pt x="426" y="-1" on="1"/>
        <pt x="392" y="-5" on="0"/>
      </contour>
    </TTGlyph>
    <TTGlyph name="Uring" xMin="60" yMin="-6" xMax="620" yMax="1002">
      <contour>
        <pt x="239" y="871" on="0"/>
        <pt x="239" y="927" on="0"/>
        <pt x="266" y="974" on="0"/>
        <pt x="313" y="1002" on="0"/>
        <pt x="383" y="1002" on="0"/>
        <pt x="442" y="942" on="0"/>
        <pt x="442" y="856" on="0"/>
        <pt x="383" y="797" on="0"/>
        <pt x="313" y="797" on="0"/>
        <pt x="266" y="824" on="0"/>
      </contour>
      <contour>
        <pt x="323" y="942" on="0"/>
        <pt x="297" y="917" on="0"/>
        <pt x="297" y="890" on="0"/>
        <pt x="304" y="874" on="0"/>
        <pt x="310" y="869" on="1"/>
        <pt x="323" y="857" on="0"/>
        <pt x="359" y="857" on="0"/>
        <pt x="383" y="881" on="0"/>
        <pt x="383" y="917" on="0"/>
        <pt x="359" y="942" on="0"/>
      </contour>
      <contour>
        <pt x="343" y="-5" on="1"/>
        <pt x="329" y="-5" on="1"/>
        <pt x="209" y="-5" on="0"/>
        <pt x="169" y="20" on="1"/>
        <pt x="151" y="32" on="0"/>
        <pt x="103" y="79" on="0"/>
        <pt x="91" y="113" on="1"/>
        <pt x="61" y="197" on="0"/>
        <pt x="61" y="320" on="1"/>
        <pt x="61" y="732" on="1"/>
        <pt x="201" y="732" on="1"/>
        <pt x="201" y="320" on="1"/>
        <pt x="201" y="224" on="0"/>
        <pt x="220" y="179" on="1"/>
        <pt x="237" y="139" on="0"/>
        <pt x="287" y="128" on="1"/>
        <pt x="309" y="124" on="0"/>
        <pt x="392" y="124" on="0"/>
        <pt x="420" y="139" on="1"/>
        <pt x="479" y="171" on="0"/>
        <pt x="479" y="320" on="1"/>
        <pt x="479" y="732" on="1"/>
        <pt x="620" y="732" on="1"/>
        <pt x="620" y="320" on="1"/>
        <pt x="620" y="163" on="0"/>
        <pt x="574" y="92" on="1"/>
        <pt x="559" y="67" on="0"/>
        <pt x="530" y="36" on="0"/>
        <pt x="485" y="13" on="0"/>
        <pt x="453" y="2" on="0"/>
        <pt x="426" y="-1" on="1"/>
        <pt x="392" y="-5" on="0"/>
      </contour>
    </TTGlyph>
    <TTGlyph name="Utilde" xMin="60" yMin="-6" xMax="620" yMax="923">
      <contour>
        <pt x="399" y="884" on="1"/>
        <pt x="438" y="884" on="0"/>
        <pt x="488" y="923" on="1"/>
        <pt x="512" y="863" on="1"/>
        <pt x="449" y="795" on="0"/>
        <pt x="400" y="795" on="1"/>
        <pt x="374" y="795" on="0"/>
        <pt x="305" y="830" on="0"/>
        <pt x="277" y="830" on="0"/>
        <pt x="258" y="827" on="0"/>
        <pt x="246" y="824" on="0"/>
        <pt x="227" y="815" on="0"/>
        <pt x="219" y="811" on="0"/>
        <pt x="196" y="797" on="0"/>
        <pt x="193" y="795" on="1"/>
        <pt x="168" y="850" on="1"/>
        <pt x="232" y="920" on="0"/>
        <pt x="289" y="920" on="1"/>
        <pt x="314" y="919" on="0"/>
        <pt x="380" y="885" on="0"/>
        <pt x="397" y="884" on="0"/>
      </contour>
      <contour>
        <pt x="343" y="-5" on="1"/>
        <pt x="329" y="-5" on="1"/>
        <pt x="209" y="-5" on="0"/>
        <pt x="169" y="20" on="1"/>
        <pt x="151" y="32" on="0"/>
        <pt x="103" y="79" on="0"/>
        <pt x="91" y="113" on="1"/>
        <pt x="61" y="197" on="0"/>
        <pt x="61" y="320" on="1"/>
        <pt x="61" y="732" on="1"/>
        <pt x="201" y="732" on="1"/>
        <pt x="201" y="320" on="1"/>
        <pt x="201" y="224" on="0"/>
        <pt x="220" y="179" on="1"/>
        <pt x="237" y="139" on="0"/>
        <pt x="287" y="128" on="1"/>
        <pt x="309" y="124" on="0"/>
        <pt x="392" y="124" on="0"/>
        <pt x="420" y="139" on="1"/>
        <pt x="479" y="171" on="0"/>
        <pt x="479" y="320" on="1"/>
        <pt x="479" y="732" on="1"/>
        <pt x="620" y="732" on="1"/>
        <pt x="620" y="320" on="1"/>
        <pt x="620" y="163" on="0"/>
        <pt x="574" y="92" on="1"/>
        <pt x="559" y="67" on="0"/>
        <pt x="530" y="36" on="0"/>
        <pt x="485" y="13" on="0"/>
        <pt x="453" y="2" on="0"/>
        <pt x="426" y="-1" on="1"/>
        <pt x="392" y="-5" on="0"/>
      </contour>
    </TTGlyph>
    <TTGlyph name="V" xMin="34" yMin="0" xMax="667" yMax="732">
      <contour>
        <pt x="34" y="732" on="1"/>
        <pt x="183" y="732" on="1"/>
        <pt x="346" y="184" on="1"/>
        <pt x="518" y="732" on="1"/>
        <pt x="667" y="732" on="1"/>
        <pt x="426" y="0" on="1"/>
        <pt x="264" y="0" on="1"/>
      </contour>
    </TTGlyph>
    <TTGlyph name="W" xMin="34" yMin="0" xMax="975" yMax="732">
      <contour>
        <pt x="34" y="732" on="1"/>
        <pt x="183" y="732" on="1"/>
        <pt x="345" y="189" on="1"/>
        <pt x="477" y="732" on="1"/>
        <pt x="627" y="732" on="1"/>
        <pt x="576" y="543" on="1"/>
        <pt x="692" y="186" on="1"/>
        <pt x="826" y="732" on="1"/>
        <pt x="974" y="732" on="1"/>
        <pt x="773" y="0" on="1"/>
        <pt x="611" y="0" on="1"/>
        <pt x="512" y="300" on="1"/>
        <pt x="426" y="0" on="1"/>
        <pt x="264" y="0" on="1"/>
      </contour>
    </TTGlyph>
    <TTGlyph name="Wacute" xMin="34" yMin="0" xMax="975" yMax="934">
      <contour>
        <pt x="463" y="795" on="1"/>
        <pt x="554" y="933" on="1"/>
        <pt x="676" y="933" on="1"/>
        <pt x="554" y="795" on="1"/>
      </contour>
      <contour>
        <pt x="34" y="732" on="1"/>
        <pt x="183" y="732" on="1"/>
        <pt x="345" y="189" on="1"/>
        <pt x="477" y="732" on="1"/>
        <pt x="627" y="732" on="1"/>
        <pt x="576" y="543" on="1"/>
        <pt x="692" y="186" on="1"/>
        <pt x="826" y="732" on="1"/>
        <pt x="974" y="732" on="1"/>
        <pt x="773" y="0" on="1"/>
        <pt x="611" y="0" on="1"/>
        <pt x="512" y="300" on="1"/>
        <pt x="426" y="0" on="1"/>
        <pt x="264" y="0" on="1"/>
      </contour>
    </TTGlyph>
    <TTGlyph name="Wcircumflex" xMin="34" yMin="0" xMax="975" yMax="931">
      <contour>
        <pt x="359" y="795" on="1"/>
        <pt x="466" y="930" on="1"/>
        <pt x="570" y="930" on="1"/>
        <pt x="667" y="795" on="1"/>
        <pt x="574" y="795" on="1"/>
        <pt x="515" y="855" on="1"/>
        <pt x="453" y="795" on="1"/>
      </contour>
      <contour>
        <pt x="34" y="732" on="1"/>
        <pt x="183" y="732" on="1"/>
        <pt x="345" y="189" on="1"/>
        <pt x="477" y="732" on="1"/>
        <pt x="627" y="732" on="1"/>
        <pt x="576" y="543" on="1"/>
        <pt x="692" y="186" on="1"/>
        <pt x="826" y="732" on="1"/>
        <pt x="974" y="732" on="1"/>
        <pt x="773" y="0" on="1"/>
        <pt x="611" y="0" on="1"/>
        <pt x="512" y="300" on="1"/>
        <pt x="426" y="0" on="1"/>
        <pt x="264" y="0" on="1"/>
      </contour>
    </TTGlyph>
    <TTGlyph name="Wdieresis" xMin="34" yMin="0" xMax="975" yMax="913">
      <contour>
        <pt x="354" y="795" on="0"/>
        <pt x="319" y="830" on="0"/>
        <pt x="319" y="870" on="0"/>
        <pt x="327" y="883" on="1"/>
        <pt x="344" y="912" on="0"/>
        <pt x="402" y="912" on="0"/>
        <pt x="436" y="878" on="0"/>
        <pt x="436" y="830" on="0"/>
        <pt x="402" y="795" on="0"/>
      </contour>
      <contour>
        <pt x="574" y="830" on="0"/>
        <pt x="574" y="878" on="0"/>
        <pt x="608" y="912" on="0"/>
        <pt x="657" y="912" on="0"/>
        <pt x="691" y="878" on="0"/>
        <pt x="691" y="830" on="0"/>
        <pt x="657" y="795" on="0"/>
        <pt x="609" y="795" on="0"/>
      </contour>
      <contour>
        <pt x="34" y="732" on="1"/>
        <pt x="183" y="732" on="1"/>
        <pt x="345" y="189" on="1"/>
        <pt x="477" y="732" on="1"/>
        <pt x="627" y="732" on="1"/>
        <pt x="576" y="543" on="1"/>
        <pt x="692" y="186" on="1"/>
        <pt x="826" y="732" on="1"/>
        <pt x="974" y="732" on="1"/>
        <pt x="773" y="0" on="1"/>
        <pt x="611" y="0" on="1"/>
        <pt x="512" y="300" on="1"/>
        <pt x="426" y="0" on="1"/>
        <pt x="264" y="0" on="1"/>
      </contour>
    </TTGlyph>
    <TTGlyph name="Wgrave" xMin="34" yMin="0" xMax="975" yMax="934">
      <contour>
        <pt x="341" y="933" on="1"/>
        <pt x="463" y="933" on="1"/>
        <pt x="554" y="795" on="1"/>
        <pt x="463" y="795" on="1"/>
      </contour>
      <contour>
        <pt x="34" y="732" on="1"/>
        <pt x="183" y="732" on="1"/>
        <pt x="345" y="189" on="1"/>
        <pt x="477" y="732" on="1"/>
        <pt x="627" y="732" on="1"/>
        <pt x="576" y="543" on="1"/>
        <pt x="692" y="186" on="1"/>
        <pt x="826" y="732" on="1"/>
        <pt x="974" y="732" on="1"/>
        <pt x="773" y="0" on="1"/>
        <pt x="611" y="0" on="1"/>
        <pt x="512" y="300" on="1"/>
        <pt x="426" y="0" on="1"/>
        <pt x="264" y="0" on="1"/>
      </contour>
    </TTGlyph>
    <TTGlyph name="X" xMin="34" yMin="0" xMax="623" yMax="732">
      <contour>
        <pt x="34" y="732" on="1"/>
        <pt x="189" y="732" on="1"/>
        <pt x="327" y="482" on="1"/>
        <pt x="468" y="732" on="1"/>
        <pt x="623" y="732" on="1"/>
        <pt x="403" y="367" on="1"/>
        <pt x="618" y="0" on="1"/>
        <pt x="463" y="0" on="1"/>
        <pt x="327" y="246" on="1"/>
        <pt x="192" y="0" on="1"/>
        <pt x="37" y="0" on="1"/>
        <pt x="252" y="367" on="1"/>
      </contour>
    </TTGlyph>
    <TTGlyph name="X.salt" xMin="15" yMin="0" xMax="642" yMax="732">
      <contour>
        <pt x="166" y="305" on="1"/>
        <pt x="181" y="336" on="0"/>
        <pt x="184" y="366" on="0"/>
        <pt x="184" y="376" on="1"/>
        <pt x="184" y="400" on="0"/>
        <pt x="156" y="457" on="1"/>
        <pt x="15" y="732" on="1"/>
        <pt x="163" y="732" on="1"/>
        <pt x="296" y="487" on="1"/>
        <pt x="316" y="455" on="0"/>
        <pt x="316" y="343" on="1"/>
        <pt x="316" y="289" on="0"/>
        <pt x="305" y="271" on="1"/>
        <pt x="168" y="0" on="1"/>
        <pt x="15" y="0" on="1"/>
      </contour>
      <contour>
        <pt x="351" y="271" on="1"/>
        <pt x="341" y="289" on="0"/>
        <pt x="341" y="324" on="1"/>
        <pt x="341" y="456" on="0"/>
        <pt x="360" y="487" on="1"/>
        <pt x="494" y="732" on="1"/>
        <pt x="641" y="732" on="1"/>
        <pt x="501" y="457" on="1"/>
        <pt x="472" y="400" on="0"/>
        <pt x="472" y="372" on="1"/>
        <pt x="472" y="343" on="0"/>
        <pt x="491" y="305" on="1"/>
        <pt x="641" y="0" on="1"/>
        <pt x="488" y="0" on="1"/>
      </contour>
    </TTGlyph>
    <TTGlyph name="Y" xMin="34" yMin="0" xMax="638" yMax="732">
      <contour>
        <pt x="397" y="0" on="1"/>
        <pt x="257" y="0" on="1"/>
        <pt x="257" y="227" on="1"/>
        <pt x="34" y="732" on="1"/>
        <pt x="186" y="732" on="1"/>
        <pt x="329" y="381" on="1"/>
        <pt x="486" y="732" on="1"/>
        <pt x="638" y="732" on="1"/>
        <pt x="397" y="227" on="1"/>
      </contour>
    </TTGlyph>
    <TTGlyph name="Yacute" xMin="34" yMin="0" xMax="638" yMax="936">
      <contour>
        <pt x="290" y="797" on="1"/>
        <pt x="381" y="936" on="1"/>
        <pt x="504" y="936" on="1"/>
        <pt x="382" y="797" on="1"/>
      </contour>
      <contour>
        <pt x="397" y="0" on="1"/>
        <pt x="257" y="0" on="1"/>
        <pt x="257" y="227" on="1"/>
        <pt x="34" y="732" on="1"/>
        <pt x="186" y="732" on="1"/>
        <pt x="329" y="381" on="1"/>
        <pt x="486" y="732" on="1"/>
        <pt x="638" y="732" on="1"/>
        <pt x="397" y="227" on="1"/>
      </contour>
    </TTGlyph>
    <TTGlyph name="Ycircumflex" xMin="34" yMin="0" xMax="638" yMax="931">
      <contour>
        <pt x="177" y="795" on="1"/>
        <pt x="285" y="930" on="1"/>
        <pt x="389" y="930" on="1"/>
        <pt x="486" y="795" on="1"/>
        <pt x="393" y="795" on="1"/>
        <pt x="334" y="855" on="1"/>
        <pt x="271" y="795" on="1"/>
      </contour>
      <contour>
        <pt x="397" y="0" on="1"/>
        <pt x="257" y="0" on="1"/>
        <pt x="257" y="227" on="1"/>
        <pt x="34" y="732" on="1"/>
        <pt x="186" y="732" on="1"/>
        <pt x="329" y="381" on="1"/>
        <pt x="486" y="732" on="1"/>
        <pt x="638" y="732" on="1"/>
        <pt x="397" y="227" on="1"/>
      </contour>
    </TTGlyph>
    <TTGlyph name="Ydieresis" xMin="34" yMin="0" xMax="638" yMax="915">
      <contour>
        <pt x="185" y="797" on="0"/>
        <pt x="150" y="832" on="0"/>
        <pt x="150" y="872" on="0"/>
        <pt x="158" y="886" on="1"/>
        <pt x="175" y="914" on="0"/>
        <pt x="233" y="914" on="0"/>
        <pt x="267" y="881" on="0"/>
        <pt x="267" y="832" on="0"/>
        <pt x="233" y="797" on="0"/>
      </contour>
      <contour>
        <pt x="405" y="832" on="0"/>
        <pt x="405" y="880" on="0"/>
        <pt x="440" y="914" on="0"/>
        <pt x="488" y="914" on="0"/>
        <pt x="522" y="881" on="0"/>
        <pt x="522" y="832" on="0"/>
        <pt x="488" y="797" on="0"/>
        <pt x="440" y="797" on="0"/>
      </contour>
      <contour>
        <pt x="397" y="0" on="1"/>
        <pt x="257" y="0" on="1"/>
        <pt x="257" y="227" on="1"/>
        <pt x="34" y="732" on="1"/>
        <pt x="186" y="732" on="1"/>
        <pt x="329" y="381" on="1"/>
        <pt x="486" y="732" on="1"/>
        <pt x="638" y="732" on="1"/>
        <pt x="397" y="227" on="1"/>
      </contour>
    </TTGlyph>
    <TTGlyph name="Ygrave" xMin="34" yMin="0" xMax="638" yMax="936">
      <contour>
        <pt x="168" y="936" on="1"/>
        <pt x="291" y="936" on="1"/>
        <pt x="382" y="797" on="1"/>
        <pt x="290" y="797" on="1"/>
      </contour>
      <contour>
        <pt x="397" y="0" on="1"/>
        <pt x="257" y="0" on="1"/>
        <pt x="257" y="227" on="1"/>
        <pt x="34" y="732" on="1"/>
        <pt x="186" y="732" on="1"/>
        <pt x="329" y="381" on="1"/>
        <pt x="486" y="732" on="1"/>
        <pt x="638" y="732" on="1"/>
        <pt x="397" y="227" on="1"/>
      </contour>
    </TTGlyph>
    <TTGlyph name="Z" xMin="26" yMin="0" xMax="531" yMax="732">
      <contour>
        <pt x="27" y="0" on="1"/>
        <pt x="27" y="129" on="1"/>
        <pt x="362" y="603" on="1"/>
        <pt x="27" y="603" on="1"/>
        <pt x="27" y="732" on="1"/>
        <pt x="531" y="732" on="1"/>
        <pt x="531" y="603" on="1"/>
        <pt x="212" y="129" on="1"/>
        <pt x="531" y="129" on="1"/>
        <pt x="531" y="0" on="1"/>
      </contour>
    </TTGlyph>
    <TTGlyph name="Zacute" xMin="26" yMin="0" xMax="531" yMax="936">
      <contour>
        <pt x="233" y="797" on="1"/>
        <pt x="324" y="936" on="1"/>
        <pt x="446" y="936" on="1"/>
        <pt x="324" y="797" on="1"/>
      </contour>
      <contour>
        <pt x="27" y="0" on="1"/>
        <pt x="27" y="129" on="1"/>
        <pt x="362" y="603" on="1"/>
        <pt x="27" y="603" on="1"/>
        <pt x="27" y="732" on="1"/>
        <pt x="531" y="732" on="1"/>
        <pt x="531" y="603" on="1"/>
        <pt x="212" y="129" on="1"/>
        <pt x="531" y="129" on="1"/>
        <pt x="531" y="0" on="1"/>
      </contour>
    </TTGlyph>
    <TTGlyph name="Zcaron" xMin="26" yMin="0" xMax="531" yMax="933">
      <contour>
        <pt x="124" y="932" on="1"/>
        <pt x="218" y="932" on="1"/>
        <pt x="281" y="872" on="1"/>
        <pt x="339" y="932" on="1"/>
        <pt x="433" y="932" on="1"/>
        <pt x="331" y="797" on="1"/>
        <pt x="227" y="797" on="1"/>
      </contour>
      <contour>
        <pt x="27" y="0" on="1"/>
        <pt x="27" y="129" on="1"/>
        <pt x="362" y="603" on="1"/>
        <pt x="27" y="603" on="1"/>
        <pt x="27" y="732" on="1"/>
        <pt x="531" y="732" on="1"/>
        <pt x="531" y="603" on="1"/>
        <pt x="212" y="129" on="1"/>
        <pt x="531" y="129" on="1"/>
        <pt x="531" y="0" on="1"/>
      </contour>
    </TTGlyph>
    <TTGlyph name="Zdotaccent" xMin="26" yMin="0" xMax="531" yMax="921">
      <contour>
        <pt x="219" y="820" on="1"/>
        <pt x="219" y="896" on="1"/>
        <pt x="219" y="921" on="0"/>
        <pt x="243" y="921" on="1"/>
        <pt x="315" y="921" on="1"/>
        <pt x="326" y="921" on="0"/>
        <pt x="338" y="907" on="0"/>
        <pt x="338" y="896" on="1"/>
        <pt x="338" y="820" on="1"/>
        <pt x="338" y="797" on="0"/>
        <pt x="315" y="797" on="1"/>
        <pt x="243" y="797" on="1"/>
        <pt x="233" y="797" on="0"/>
        <pt x="219" y="810" on="0"/>
      </contour>
      <contour>
        <pt x="27" y="0" on="1"/>
        <pt x="27" y="129" on="1"/>
        <pt x="362" y="603" on="1"/>
        <pt x="27" y="603" on="1"/>
        <pt x="27" y="732" on="1"/>
        <pt x="531" y="732" on="1"/>
        <pt x="531" y="603" on="1"/>
        <pt x="212" y="129" on="1"/>
        <pt x="531" y="129" on="1"/>
        <pt x="531" y="0" on="1"/>
      </contour>
    </TTGlyph>
    <TTGlyph name="a" xMin="30" yMin="-7" xMax="482" yMax="542">
      <contour>
        <pt x="48" y="505" on="1"/>
        <pt x="139" y="541" on="0"/>
        <pt x="291" y="541" on="1"/>
        <pt x="383" y="541" on="0"/>
        <pt x="482" y="464" on="0"/>
        <pt x="482" y="370" on="1"/>
        <pt x="482" y="0" on="1"/>
        <pt x="371" y="0" on="1"/>
        <pt x="342" y="58" on="1"/>
        <pt x="338" y="51" on="0"/>
        <pt x="295" y="22" on="0"/>
        <pt x="219" y="-6" on="0"/>
        <pt x="184" y="-6" on="1"/>
        <pt x="110" y="-6" on="0"/>
        <pt x="30" y="79" on="0"/>
        <pt x="30" y="135" on="1"/>
        <pt x="30" y="185" on="1"/>
        <pt x="30" y="249" on="0"/>
        <pt x="106" y="331" on="0"/>
        <pt x="264" y="330" on="0"/>
        <pt x="342" y="330" on="0"/>
        <pt x="342" y="331" on="1"/>
        <pt x="342" y="347" on="0"/>
        <pt x="342" y="364" on="0"/>
        <pt x="342" y="365" on="1"/>
        <pt x="342" y="405" on="0"/>
        <pt x="308" y="430" on="0"/>
        <pt x="206" y="430" on="0"/>
        <pt x="48" y="419" on="1"/>
      </contour>
      <contour>
        <pt x="170" y="155" on="1"/>
        <pt x="170" y="125" on="0"/>
        <pt x="196" y="106" on="0"/>
        <pt x="246" y="106" on="0"/>
        <pt x="307" y="127" on="0"/>
        <pt x="324" y="137" on="1"/>
        <pt x="342" y="148" on="1"/>
        <pt x="342" y="245" on="1"/>
        <pt x="213" y="235" on="1"/>
        <pt x="170" y="231" on="0"/>
        <pt x="170" y="181" on="1"/>
      </contour>
    </TTGlyph>
    <TTGlyph name="a.salt" xMin="37" yMin="0" xMax="496" yMax="538">
      <contour>
        <pt x="197" y="323" on="1"/>
        <pt x="356" y="323" on="1"/>
        <pt x="356" y="359" on="0"/>
        <pt x="352" y="379" on="1"/>
        <pt x="344" y="418" on="0"/>
        <pt x="303" y="425" on="1"/>
        <pt x="286" y="428" on="0"/>
        <pt x="253" y="428" on="0"/>
        <pt x="179" y="428" on="0"/>
        <pt x="49" y="416" on="1"/>
        <pt x="49" y="502" on="1"/>
        <pt x="119" y="523" on="0"/>
        <pt x="222" y="537" on="0"/>
        <pt x="305" y="537" on="0"/>
        <pt x="309" y="537" on="1"/>
        <pt x="399" y="537" on="0"/>
        <pt x="443" y="493" on="1"/>
        <pt x="482" y="454" on="0"/>
        <pt x="492" y="361" on="1"/>
        <pt x="496" y="320" on="0"/>
        <pt x="496" y="262" on="1"/>
        <pt x="496" y="167" on="1"/>
        <pt x="496" y="53" on="0"/>
        <pt x="428" y="18" on="1"/>
        <pt x="394" y="0" on="0"/>
        <pt x="341" y="0" on="1"/>
        <pt x="197" y="0" on="1"/>
        <pt x="38" y="0" on="0"/>
        <pt x="38" y="142" on="1"/>
        <pt x="38" y="184" on="1"/>
        <pt x="38" y="246" on="0"/>
        <pt x="66" y="282" on="1"/>
        <pt x="98" y="323" on="0"/>
      </contour>
      <contour>
        <pt x="178" y="153" on="1"/>
        <pt x="178" y="128" on="0"/>
        <pt x="196" y="107" on="0"/>
        <pt x="225" y="107" on="1"/>
        <pt x="301" y="107" on="1"/>
        <pt x="333" y="107" on="0"/>
        <pt x="356" y="132" on="0"/>
        <pt x="356" y="163" on="1"/>
        <pt x="356" y="237" on="1"/>
        <pt x="224" y="228" on="1"/>
        <pt x="198" y="226" on="0"/>
        <pt x="178" y="206" on="0"/>
        <pt x="178" y="184" on="1"/>
      </contour>
    </TTGlyph>
    <TTGlyph name="a.smcp" xMin="26" yMin="0" xMax="581" yMax="570">
      <contour>
        <pt x="27" y="0" on="1"/>
        <pt x="227" y="570" on="1"/>
        <pt x="394" y="570" on="1"/>
        <pt x="581" y="0" on="1"/>
        <pt x="434" y="0" on="1"/>
        <pt x="395" y="116" on="1"/>
        <pt x="216" y="116" on="1"/>
        <pt x="174" y="0" on="1"/>
      </contour>
      <contour>
        <pt x="250" y="229" on="1"/>
        <pt x="364" y="229" on="1"/>
        <pt x="310" y="398" on="1"/>
      </contour>
    </TTGlyph>
    <TTGlyph name="a.superior" xMin="23" yMin="373" xMax="344" yMax="739">
      <contour>
        <pt x="35" y="712" on="1"/>
        <pt x="102" y="738" on="0"/>
        <pt x="202" y="738" on="1"/>
        <pt x="246" y="738" on="0"/>
        <pt x="306" y="719" on="0"/>
        <pt x="343" y="667" on="0"/>
        <pt x="343" y="625" on="1"/>
        <pt x="343" y="378" on="1"/>
        <pt x="262" y="378" on="1"/>
        <pt x="236" y="423" on="1"/>
        <pt x="230" y="411" on="0"/>
        <pt x="166" y="374" on="0"/>
        <pt x="133" y="374" on="1"/>
        <pt x="81" y="374" on="0"/>
        <pt x="23" y="429" on="0"/>
        <pt x="23" y="466" on="1"/>
        <pt x="23" y="501" on="1"/>
        <pt x="23" y="543" on="0"/>
        <pt x="77" y="596" on="0"/>
        <pt x="170" y="596" on="0"/>
        <pt x="235" y="596" on="0"/>
        <pt x="235" y="597" on="1"/>
        <pt x="236" y="612" on="0"/>
        <pt x="235" y="630" on="0"/>
        <pt x="222" y="648" on="0"/>
        <pt x="202" y="653" on="0"/>
        <pt x="157" y="653" on="0"/>
        <pt x="35" y="645" on="1"/>
      </contour>
      <contour>
        <pt x="125" y="485" on="1"/>
        <pt x="125" y="455" on="0"/>
        <pt x="160" y="455" on="1"/>
        <pt x="179" y="455" on="0"/>
        <pt x="217" y="468" on="0"/>
        <pt x="226" y="475" on="1"/>
        <pt x="235" y="481" on="1"/>
        <pt x="235" y="540" on="1"/>
        <pt x="155" y="532" on="1"/>
        <pt x="125" y="530" on="0"/>
        <pt x="125" y="499" on="1"/>
      </contour>
    </TTGlyph>
    <TTGlyph name="aacute" xMin="30" yMin="-7" xMax="482" yMax="740">
      <contour>
        <pt x="220" y="601" on="1"/>
        <pt x="310" y="740" on="1"/>
        <pt x="433" y="740" on="1"/>
        <pt x="311" y="601" on="1"/>
      </contour>
      <contour>
        <pt x="48" y="506" on="1"/>
        <pt x="139" y="541" on="0"/>
        <pt x="291" y="541" on="1"/>
        <pt x="383" y="541" on="0"/>
        <pt x="482" y="464" on="0"/>
        <pt x="482" y="370" on="1"/>
        <pt x="482" y="0" on="1"/>
        <pt x="371" y="0" on="1"/>
        <pt x="342" y="58" on="1"/>
        <pt x="338" y="51" on="0"/>
        <pt x="295" y="22" on="0"/>
        <pt x="219" y="-6" on="0"/>
        <pt x="184" y="-6" on="1"/>
        <pt x="110" y="-6" on="0"/>
        <pt x="30" y="79" on="0"/>
        <pt x="30" y="135" on="1"/>
        <pt x="30" y="185" on="1"/>
        <pt x="30" y="249" on="0"/>
        <pt x="106" y="331" on="0"/>
        <pt x="264" y="331" on="0"/>
        <pt x="342" y="331" on="0"/>
        <pt x="342" y="331" on="1"/>
        <pt x="342" y="348" on="0"/>
        <pt x="342" y="365" on="0"/>
        <pt x="342" y="365" on="1"/>
        <pt x="342" y="405" on="0"/>
        <pt x="308" y="430" on="0"/>
        <pt x="206" y="430" on="0"/>
        <pt x="48" y="419" on="1"/>
      </contour>
      <contour>
        <pt x="170" y="155" on="1"/>
        <pt x="170" y="125" on="0"/>
        <pt x="196" y="106" on="0"/>
        <pt x="246" y="106" on="0"/>
        <pt x="307" y="127" on="0"/>
        <pt x="324" y="137" on="1"/>
        <pt x="342" y="148" on="1"/>
        <pt x="342" y="245" on="1"/>
        <pt x="213" y="235" on="1"/>
        <pt x="170" y="231" on="0"/>
        <pt x="170" y="181" on="1"/>
      </contour>
    </TTGlyph>
    <TTGlyph name="aacute.salt" xMin="37" yMin="0" xMax="496" yMax="736">
      <contour>
        <pt x="229" y="597" on="1"/>
        <pt x="320" y="736" on="1"/>
        <pt x="442" y="736" on="1"/>
        <pt x="320" y="597" on="1"/>
      </contour>
      <contour>
        <pt x="38" y="142" on="1"/>
        <pt x="38" y="184" on="1"/>
        <pt x="38" y="246" on="0"/>
        <pt x="66" y="282" on="1"/>
        <pt x="98" y="322" on="0"/>
        <pt x="197" y="322" on="1"/>
        <pt x="356" y="322" on="1"/>
        <pt x="356" y="359" on="0"/>
        <pt x="352" y="379" on="1"/>
        <pt x="344" y="418" on="0"/>
        <pt x="303" y="425" on="1"/>
        <pt x="286" y="428" on="0"/>
        <pt x="253" y="428" on="0"/>
        <pt x="179" y="428" on="0"/>
        <pt x="49" y="416" on="1"/>
        <pt x="49" y="502" on="1"/>
        <pt x="119" y="523" on="0"/>
        <pt x="222" y="537" on="0"/>
        <pt x="305" y="537" on="0"/>
        <pt x="309" y="537" on="1"/>
        <pt x="399" y="537" on="0"/>
        <pt x="443" y="493" on="1"/>
        <pt x="482" y="454" on="0"/>
        <pt x="492" y="361" on="1"/>
        <pt x="496" y="320" on="0"/>
        <pt x="496" y="262" on="1"/>
        <pt x="496" y="167" on="1"/>
        <pt x="496" y="53" on="0"/>
        <pt x="428" y="18" on="1"/>
        <pt x="394" y="0" on="0"/>
        <pt x="341" y="0" on="1"/>
        <pt x="197" y="0" on="1"/>
        <pt x="38" y="0" on="0"/>
      </contour>
      <contour>
        <pt x="178" y="153" on="1"/>
        <pt x="178" y="128" on="0"/>
        <pt x="196" y="107" on="0"/>
        <pt x="225" y="107" on="1"/>
        <pt x="301" y="107" on="1"/>
        <pt x="333" y="107" on="0"/>
        <pt x="356" y="132" on="0"/>
        <pt x="356" y="163" on="1"/>
        <pt x="356" y="237" on="1"/>
        <pt x="224" y="228" on="1"/>
        <pt x="198" y="226" on="0"/>
        <pt x="178" y="206" on="0"/>
        <pt x="178" y="184" on="1"/>
      </contour>
    </TTGlyph>
    <TTGlyph name="aacute.smcp" xMin="26" yMin="0" xMax="581" yMax="769">
      <contour>
        <pt x="265" y="630" on="1"/>
        <pt x="356" y="768" on="1"/>
        <pt x="478" y="768" on="1"/>
        <pt x="356" y="630" on="1"/>
      </contour>
      <contour>
        <pt x="27" y="0" on="1"/>
        <pt x="227" y="570" on="1"/>
        <pt x="394" y="570" on="1"/>
        <pt x="581" y="0" on="1"/>
        <pt x="434" y="0" on="1"/>
        <pt x="395" y="116" on="1"/>
        <pt x="216" y="116" on="1"/>
        <pt x="174" y="0" on="1"/>
      </contour>
      <contour>
        <pt x="250" y="229" on="1"/>
        <pt x="364" y="229" on="1"/>
        <pt x="310" y="398" on="1"/>
      </contour>
    </TTGlyph>
    <TTGlyph name="abreve" xMin="30" yMin="-7" xMax="482" yMax="715">
      <contour>
        <pt x="155" y="715" on="1"/>
        <pt x="213" y="715" on="1"/>
        <pt x="213" y="690" on="0"/>
        <pt x="245" y="659" on="0"/>
        <pt x="297" y="659" on="0"/>
        <pt x="327" y="689" on="0"/>
        <pt x="327" y="715" on="1"/>
        <pt x="385" y="715" on="1"/>
        <pt x="385" y="663" on="0"/>
        <pt x="319" y="601" on="0"/>
        <pt x="221" y="601" on="0"/>
        <pt x="155" y="664" on="0"/>
      </contour>
      <contour>
        <pt x="48" y="506" on="1"/>
        <pt x="139" y="541" on="0"/>
        <pt x="291" y="541" on="1"/>
        <pt x="383" y="541" on="0"/>
        <pt x="482" y="464" on="0"/>
        <pt x="482" y="370" on="1"/>
        <pt x="482" y="0" on="1"/>
        <pt x="371" y="0" on="1"/>
        <pt x="342" y="58" on="1"/>
        <pt x="338" y="51" on="0"/>
        <pt x="295" y="22" on="0"/>
        <pt x="219" y="-6" on="0"/>
        <pt x="184" y="-6" on="1"/>
        <pt x="110" y="-6" on="0"/>
        <pt x="30" y="79" on="0"/>
        <pt x="30" y="135" on="1"/>
        <pt x="30" y="185" on="1"/>
        <pt x="30" y="249" on="0"/>
        <pt x="106" y="331" on="0"/>
        <pt x="264" y="331" on="0"/>
        <pt x="342" y="331" on="0"/>
        <pt x="342" y="331" on="1"/>
        <pt x="342" y="348" on="0"/>
        <pt x="342" y="365" on="0"/>
        <pt x="342" y="365" on="1"/>
        <pt x="342" y="405" on="0"/>
        <pt x="308" y="430" on="0"/>
        <pt x="206" y="430" on="0"/>
        <pt x="48" y="419" on="1"/>
      </contour>
      <contour>
        <pt x="170" y="155" on="1"/>
        <pt x="170" y="125" on="0"/>
        <pt x="196" y="106" on="0"/>
        <pt x="246" y="106" on="0"/>
        <pt x="307" y="127" on="0"/>
        <pt x="324" y="137" on="1"/>
        <pt x="342" y="148" on="1"/>
        <pt x="342" y="245" on="1"/>
        <pt x="213" y="235" on="1"/>
        <pt x="170" y="231" on="0"/>
        <pt x="170" y="181" on="1"/>
      </contour>
    </TTGlyph>
    <TTGlyph name="abreve.salt" xMin="37" yMin="0" xMax="496" yMax="712">
      <contour>
        <pt x="161" y="711" on="1"/>
        <pt x="219" y="711" on="1"/>
        <pt x="219" y="686" on="0"/>
        <pt x="251" y="655" on="0"/>
        <pt x="303" y="655" on="0"/>
        <pt x="333" y="685" on="0"/>
        <pt x="333" y="711" on="1"/>
        <pt x="391" y="711" on="1"/>
        <pt x="391" y="659" on="0"/>
        <pt x="325" y="597" on="0"/>
        <pt x="227" y="597" on="0"/>
        <pt x="161" y="660" on="0"/>
      </contour>
      <contour>
        <pt x="38" y="142" on="1"/>
        <pt x="38" y="184" on="1"/>
        <pt x="38" y="246" on="0"/>
        <pt x="66" y="282" on="1"/>
        <pt x="98" y="322" on="0"/>
        <pt x="197" y="322" on="1"/>
        <pt x="356" y="322" on="1"/>
        <pt x="356" y="359" on="0"/>
        <pt x="352" y="379" on="1"/>
        <pt x="344" y="418" on="0"/>
        <pt x="303" y="425" on="1"/>
        <pt x="286" y="428" on="0"/>
        <pt x="253" y="428" on="0"/>
        <pt x="179" y="428" on="0"/>
        <pt x="49" y="416" on="1"/>
        <pt x="49" y="502" on="1"/>
        <pt x="119" y="523" on="0"/>
        <pt x="222" y="537" on="0"/>
        <pt x="305" y="537" on="0"/>
        <pt x="309" y="537" on="1"/>
        <pt x="399" y="537" on="0"/>
        <pt x="443" y="493" on="1"/>
        <pt x="482" y="454" on="0"/>
        <pt x="492" y="361" on="1"/>
        <pt x="496" y="320" on="0"/>
        <pt x="496" y="262" on="1"/>
        <pt x="496" y="167" on="1"/>
        <pt x="496" y="53" on="0"/>
        <pt x="428" y="18" on="1"/>
        <pt x="394" y="0" on="0"/>
        <pt x="341" y="0" on="1"/>
        <pt x="197" y="0" on="1"/>
        <pt x="38" y="0" on="0"/>
      </contour>
      <contour>
        <pt x="178" y="153" on="1"/>
        <pt x="178" y="128" on="0"/>
        <pt x="196" y="107" on="0"/>
        <pt x="225" y="107" on="1"/>
        <pt x="301" y="107" on="1"/>
        <pt x="333" y="107" on="0"/>
        <pt x="356" y="132" on="0"/>
        <pt x="356" y="163" on="1"/>
        <pt x="356" y="237" on="1"/>
        <pt x="224" y="228" on="1"/>
        <pt x="198" y="226" on="0"/>
        <pt x="178" y="206" on="0"/>
        <pt x="178" y="184" on="1"/>
      </contour>
    </TTGlyph>
    <TTGlyph name="abreve.smcp" xMin="26" yMin="0" xMax="581" yMax="744">
      <contour>
        <pt x="196" y="744" on="1"/>
        <pt x="254" y="744" on="1"/>
        <pt x="254" y="719" on="0"/>
        <pt x="285" y="688" on="0"/>
        <pt x="338" y="688" on="0"/>
        <pt x="368" y="718" on="0"/>
        <pt x="368" y="744" on="1"/>
        <pt x="426" y="744" on="1"/>
        <pt x="426" y="692" on="0"/>
        <pt x="359" y="630" on="0"/>
        <pt x="261" y="630" on="0"/>
        <pt x="196" y="693" on="0"/>
      </contour>
      <contour>
        <pt x="27" y="0" on="1"/>
        <pt x="227" y="570" on="1"/>
        <pt x="394" y="570" on="1"/>
        <pt x="581" y="0" on="1"/>
        <pt x="434" y="0" on="1"/>
        <pt x="395" y="116" on="1"/>
        <pt x="216" y="116" on="1"/>
        <pt x="174" y="0" on="1"/>
      </contour>
      <contour>
        <pt x="250" y="229" on="1"/>
        <pt x="364" y="229" on="1"/>
        <pt x="310" y="398" on="1"/>
      </contour>
    </TTGlyph>
    <TTGlyph name="acircumflex" xMin="30" yMin="-7" xMax="482" yMax="737">
      <contour>
        <pt x="112" y="601" on="1"/>
        <pt x="219" y="736" on="1"/>
        <pt x="323" y="736" on="1"/>
        <pt x="420" y="601" on="1"/>
        <pt x="327" y="601" on="1"/>
        <pt x="268" y="661" on="1"/>
        <pt x="206" y="601" on="1"/>
      </contour>
      <contour>
        <pt x="48" y="506" on="1"/>
        <pt x="139" y="541" on="0"/>
        <pt x="291" y="541" on="1"/>
        <pt x="383" y="541" on="0"/>
        <pt x="482" y="464" on="0"/>
        <pt x="482" y="370" on="1"/>
        <pt x="482" y="0" on="1"/>
        <pt x="371" y="0" on="1"/>
        <pt x="342" y="58" on="1"/>
        <pt x="338" y="51" on="0"/>
        <pt x="295" y="22" on="0"/>
        <pt x="219" y="-6" on="0"/>
        <pt x="184" y="-6" on="1"/>
        <pt x="110" y="-6" on="0"/>
        <pt x="30" y="79" on="0"/>
        <pt x="30" y="135" on="1"/>
        <pt x="30" y="185" on="1"/>
        <pt x="30" y="249" on="0"/>
        <pt x="106" y="331" on="0"/>
        <pt x="264" y="331" on="0"/>
        <pt x="342" y="331" on="0"/>
        <pt x="342" y="331" on="1"/>
        <pt x="342" y="348" on="0"/>
        <pt x="342" y="365" on="0"/>
        <pt x="342" y="365" on="1"/>
        <pt x="342" y="405" on="0"/>
        <pt x="308" y="430" on="0"/>
        <pt x="206" y="430" on="0"/>
        <pt x="48" y="419" on="1"/>
      </contour>
      <contour>
        <pt x="170" y="155" on="1"/>
        <pt x="170" y="125" on="0"/>
        <pt x="196" y="106" on="0"/>
        <pt x="246" y="106" on="0"/>
        <pt x="307" y="127" on="0"/>
        <pt x="324" y="137" on="1"/>
        <pt x="342" y="148" on="1"/>
        <pt x="342" y="245" on="1"/>
        <pt x="213" y="235" on="1"/>
        <pt x="170" y="231" on="0"/>
        <pt x="170" y="181" on="1"/>
      </contour>
    </TTGlyph>
    <TTGlyph name="acircumflex.salt" xMin="37" yMin="0" xMax="496" yMax="733">
      <contour>
        <pt x="121" y="597" on="1"/>
        <pt x="228" y="733" on="1"/>
        <pt x="332" y="733" on="1"/>
        <pt x="429" y="597" on="1"/>
        <pt x="336" y="597" on="1"/>
        <pt x="277" y="657" on="1"/>
        <pt x="215" y="597" on="1"/>
      </contour>
      <contour>
        <pt x="38" y="142" on="1"/>
        <pt x="38" y="184" on="1"/>
        <pt x="38" y="246" on="0"/>
        <pt x="66" y="282" on="1"/>
        <pt x="98" y="322" on="0"/>
        <pt x="197" y="322" on="1"/>
        <pt x="356" y="322" on="1"/>
        <pt x="356" y="359" on="0"/>
        <pt x="352" y="379" on="1"/>
        <pt x="344" y="418" on="0"/>
        <pt x="303" y="425" on="1"/>
        <pt x="286" y="428" on="0"/>
        <pt x="253" y="428" on="0"/>
        <pt x="179" y="428" on="0"/>
        <pt x="49" y="416" on="1"/>
        <pt x="49" y="502" on="1"/>
        <pt x="119" y="523" on="0"/>
        <pt x="222" y="537" on="0"/>
        <pt x="305" y="537" on="0"/>
        <pt x="309" y="537" on="1"/>
        <pt x="399" y="537" on="0"/>
        <pt x="443" y="493" on="1"/>
        <pt x="482" y="454" on="0"/>
        <pt x="492" y="361" on="1"/>
        <pt x="496" y="320" on="0"/>
        <pt x="496" y="262" on="1"/>
        <pt x="496" y="167" on="1"/>
        <pt x="496" y="53" on="0"/>
        <pt x="428" y="18" on="1"/>
        <pt x="394" y="0" on="0"/>
        <pt x="341" y="0" on="1"/>
        <pt x="197" y="0" on="1"/>
        <pt x="38" y="0" on="0"/>
      </contour>
      <contour>
        <pt x="178" y="153" on="1"/>
        <pt x="178" y="128" on="0"/>
        <pt x="196" y="107" on="0"/>
        <pt x="225" y="107" on="1"/>
        <pt x="301" y="107" on="1"/>
        <pt x="333" y="107" on="0"/>
        <pt x="356" y="132" on="0"/>
        <pt x="356" y="163" on="1"/>
        <pt x="356" y="237" on="1"/>
        <pt x="224" y="228" on="1"/>
        <pt x="198" y="226" on="0"/>
        <pt x="178" y="206" on="0"/>
        <pt x="178" y="184" on="1"/>
      </contour>
    </TTGlyph>
    <TTGlyph name="acircumflex.smcp" xMin="26" yMin="0" xMax="581" yMax="766">
      <contour>
        <pt x="156" y="630" on="1"/>
        <pt x="264" y="766" on="1"/>
        <pt x="368" y="766" on="1"/>
        <pt x="465" y="630" on="1"/>
        <pt x="372" y="630" on="1"/>
        <pt x="313" y="690" on="1"/>
        <pt x="250" y="630" on="1"/>
      </contour>
      <contour>
        <pt x="27" y="0" on="1"/>
        <pt x="227" y="570" on="1"/>
        <pt x="394" y="570" on="1"/>
        <pt x="581" y="0" on="1"/>
        <pt x="434" y="0" on="1"/>
        <pt x="395" y="116" on="1"/>
        <pt x="216" y="116" on="1"/>
        <pt x="174" y="0" on="1"/>
      </contour>
      <contour>
        <pt x="250" y="229" on="1"/>
        <pt x="364" y="229" on="1"/>
        <pt x="310" y="398" on="1"/>
      </contour>
    </TTGlyph>
    <TTGlyph name="acute" xMin="15" yMin="531" xMax="229" yMax="670">
      <contour>
        <pt x="15" y="531" on="1"/>
        <pt x="106" y="670" on="1"/>
        <pt x="228" y="670" on="1"/>
        <pt x="106" y="531" on="1"/>
      </contour>
    </TTGlyph>
    <TTGlyph name="acute.smcp" xMin="15" yMin="531" xMax="229" yMax="670">
      <contour>
        <pt x="15" y="531" on="1"/>
        <pt x="106" y="670" on="1"/>
        <pt x="228" y="670" on="1"/>
        <pt x="106" y="531" on="1"/>
      </contour>
    </TTGlyph>
    <TTGlyph name="adieresis" xMin="30" yMin="-7" xMax="482" yMax="719">
      <contour>
        <pt x="79" y="636" on="0"/>
        <pt x="79" y="684" on="0"/>
        <pt x="114" y="719" on="0"/>
        <pt x="162" y="719" on="0"/>
        <pt x="196" y="685" on="0"/>
        <pt x="196" y="636" on="0"/>
        <pt x="162" y="601" on="0"/>
        <pt x="114" y="601" on="0"/>
      </contour>
      <contour>
        <pt x="334" y="636" on="0"/>
        <pt x="334" y="684" on="0"/>
        <pt x="369" y="719" on="0"/>
        <pt x="405" y="719" on="0"/>
        <pt x="427" y="709" on="0"/>
        <pt x="434" y="702" on="1"/>
        <pt x="451" y="685" on="0"/>
        <pt x="451" y="636" on="0"/>
        <pt x="417" y="601" on="0"/>
        <pt x="369" y="601" on="0"/>
      </contour>
      <contour>
        <pt x="48" y="506" on="1"/>
        <pt x="139" y="541" on="0"/>
        <pt x="291" y="541" on="1"/>
        <pt x="383" y="541" on="0"/>
        <pt x="482" y="464" on="0"/>
        <pt x="482" y="370" on="1"/>
        <pt x="482" y="0" on="1"/>
        <pt x="371" y="0" on="1"/>
        <pt x="342" y="58" on="1"/>
        <pt x="338" y="51" on="0"/>
        <pt x="295" y="22" on="0"/>
        <pt x="219" y="-6" on="0"/>
        <pt x="184" y="-6" on="1"/>
        <pt x="110" y="-6" on="0"/>
        <pt x="30" y="79" on="0"/>
        <pt x="30" y="135" on="1"/>
        <pt x="30" y="185" on="1"/>
        <pt x="30" y="249" on="0"/>
        <pt x="106" y="331" on="0"/>
        <pt x="264" y="331" on="0"/>
        <pt x="342" y="331" on="0"/>
        <pt x="342" y="331" on="1"/>
        <pt x="342" y="348" on="0"/>
        <pt x="342" y="365" on="0"/>
        <pt x="342" y="365" on="1"/>
        <pt x="342" y="405" on="0"/>
        <pt x="308" y="430" on="0"/>
        <pt x="206" y="430" on="0"/>
        <pt x="48" y="419" on="1"/>
      </contour>
      <contour>
        <pt x="170" y="155" on="1"/>
        <pt x="170" y="125" on="0"/>
        <pt x="196" y="106" on="0"/>
        <pt x="246" y="106" on="0"/>
        <pt x="307" y="127" on="0"/>
        <pt x="324" y="137" on="1"/>
        <pt x="342" y="148" on="1"/>
        <pt x="342" y="245" on="1"/>
        <pt x="213" y="235" on="1"/>
        <pt x="170" y="231" on="0"/>
        <pt x="170" y="181" on="1"/>
      </contour>
    </TTGlyph>
    <TTGlyph name="adieresis.salt" xMin="37" yMin="0" xMax="496" yMax="715">
      <contour>
        <pt x="128" y="597" on="0"/>
        <pt x="93" y="632" on="0"/>
        <pt x="93" y="668" on="0"/>
        <pt x="103" y="690" on="0"/>
        <pt x="111" y="698" on="1"/>
        <pt x="128" y="715" on="0"/>
        <pt x="177" y="715" on="0"/>
        <pt x="211" y="681" on="0"/>
        <pt x="211" y="644" on="0"/>
        <pt x="201" y="622" on="0"/>
        <pt x="194" y="614" on="1"/>
        <pt x="177" y="597" on="0"/>
      </contour>
      <contour>
        <pt x="348" y="632" on="0"/>
        <pt x="348" y="681" on="0"/>
        <pt x="383" y="715" on="0"/>
        <pt x="432" y="715" on="0"/>
        <pt x="466" y="681" on="0"/>
        <pt x="466" y="644" on="0"/>
        <pt x="456" y="622" on="0"/>
        <pt x="449" y="614" on="1"/>
        <pt x="432" y="597" on="0"/>
        <pt x="383" y="597" on="0"/>
      </contour>
      <contour>
        <pt x="38" y="142" on="1"/>
        <pt x="38" y="184" on="1"/>
        <pt x="38" y="246" on="0"/>
        <pt x="66" y="282" on="1"/>
        <pt x="98" y="322" on="0"/>
        <pt x="197" y="322" on="1"/>
        <pt x="356" y="322" on="1"/>
        <pt x="356" y="359" on="0"/>
        <pt x="352" y="379" on="1"/>
        <pt x="344" y="418" on="0"/>
        <pt x="303" y="425" on="1"/>
        <pt x="286" y="428" on="0"/>
        <pt x="253" y="428" on="0"/>
        <pt x="179" y="428" on="0"/>
        <pt x="49" y="416" on="1"/>
        <pt x="49" y="502" on="1"/>
        <pt x="119" y="523" on="0"/>
        <pt x="222" y="537" on="0"/>
        <pt x="305" y="537" on="0"/>
        <pt x="309" y="537" on="1"/>
        <pt x="399" y="537" on="0"/>
        <pt x="443" y="493" on="1"/>
        <pt x="482" y="454" on="0"/>
        <pt x="492" y="361" on="1"/>
        <pt x="496" y="320" on="0"/>
        <pt x="496" y="262" on="1"/>
        <pt x="496" y="167" on="1"/>
        <pt x="496" y="53" on="0"/>
        <pt x="428" y="18" on="1"/>
        <pt x="394" y="0" on="0"/>
        <pt x="341" y="0" on="1"/>
        <pt x="197" y="0" on="1"/>
        <pt x="38" y="0" on="0"/>
      </contour>
      <contour>
        <pt x="178" y="153" on="1"/>
        <pt x="178" y="128" on="0"/>
        <pt x="196" y="107" on="0"/>
        <pt x="225" y="107" on="1"/>
        <pt x="301" y="107" on="1"/>
        <pt x="333" y="107" on="0"/>
        <pt x="356" y="132" on="0"/>
        <pt x="356" y="163" on="1"/>
        <pt x="356" y="237" on="1"/>
        <pt x="224" y="228" on="1"/>
        <pt x="198" y="226" on="0"/>
        <pt x="178" y="206" on="0"/>
        <pt x="178" y="184" on="1"/>
      </contour>
    </TTGlyph>
</ttFont>
